<svg width="110" height="55" viewBox="0 0 110 110" fill="none" xmlns="http://www.w3.org/2000/svg">
<g clip-path="url(#clip0_3810_48166)">
<path d="M48.2244 2.38785C48.219 2.37828 48.2142 2.36828 48.2101 2.35816L48.2167 2.35156C48.2201 2.36344 48.2227 2.37553 48.2244 2.38785Z" fill="#7572D5"/>
<path d="M48.2501 2.51754C48.24 2.48179 48.2326 2.44516 48.2283 2.4082C48.2461 2.44177 48.2536 2.47971 48.2501 2.51754Z" fill="#7572D5"/>
<path d="M52.8864 40.0322L52.8857 40.0341C50.9485 44.7511 49.5761 50.3565 49.1851 57.0187C43.5965 43.8886 34.5666 37.434 26.4801 34.2893C26.5569 32.0272 26.7537 28.9722 27.2429 25.8816C27.7332 22.7841 28.5153 19.6643 29.7563 17.2721C29.7739 17.2769 29.7931 17.2822 29.814 17.288C29.942 17.3237 30.132 17.3798 30.3776 17.4607C30.8689 17.6224 31.5829 17.8832 32.4689 18.2785C34.2409 19.0691 36.701 20.3975 39.4443 22.5468C43.7602 25.9282 48.7867 31.3501 52.932 39.9207C52.9268 39.9336 52.9215 39.9465 52.9165 39.959C52.9055 39.9862 52.8951 40.0118 52.8864 40.0322Z" fill="#7572D5" stroke="black" stroke-width="0.359351"/>
<path d="M53.95 39.8438L53.7621 39.8014C53.7892 39.7362 53.8131 39.6743 53.8392 39.6113C53.8761 39.6874 53.9141 39.7732 53.95 39.8438Z" fill="#7572D5"/>
<path d="M53.95 39.8438L53.7621 39.8014C53.7892 39.7362 53.8131 39.6743 53.8392 39.6113C53.8761 39.6874 53.9141 39.7732 53.95 39.8438Z" fill="#7572D5"/>
<path d="M9.08118 32.2192C9.08088 32.2132 9.08059 32.2072 9.08031 32.2015C9.12594 32.1981 9.18059 32.1942 9.24396 32.1902C9.46349 32.1762 9.78766 32.16 10.2042 32.1511C11.0373 32.1334 12.2395 32.1452 13.7126 32.2633C16.6594 32.4998 20.6872 33.1619 25.0117 34.8641C32.6714 37.8794 41.2715 44.1545 46.4648 57.1284V57.1383L46.4778 57.1706L46.4851 57.1887C46.5144 57.2613 46.5415 57.3286 46.566 57.3991L46.5658 57.3992L46.5686 57.4062C48.1032 61.2963 49.3299 65.7858 50.1388 70.9636C29.4874 70.9379 12.3795 55.2793 9.31062 34.8164C9.20745 33.9431 9.14806 33.2461 9.11447 32.7678C9.09766 32.5283 9.08731 32.3437 9.08118 32.2192Z" fill="#7572D5" stroke="black" stroke-width="0.359351"/>
<path d="M76.202 38.1731C76.1843 38.1825 76.168 38.191 76.1527 38.199C76.119 38.2166 76.0899 38.2318 76.0605 38.2489L76.0536 38.2529L76.0535 38.2528C75.8694 38.3491 75.6903 38.4446 75.5161 38.544L75.5111 38.5469L75.5111 38.5468C75.364 38.6246 75.2261 38.7026 75.0826 38.7857L75.0816 38.7862C70.0167 41.6749 65.7042 45.7171 62.4941 50.5846L62.4937 50.5853C55.6013 60.9374 55.0146 72.3172 54.9666 74.1572C77.7563 73.9684 96.4405 55.8971 98.5028 32.8509C91.9597 33.0321 86.4016 34.1009 81.6902 35.7713L81.6898 35.7714C81.4533 35.8546 81.2204 35.9398 80.9889 36.0291L80.9881 36.0294L80.7969 36.1022L80.7958 36.1026C80.2456 36.308 79.7065 36.5241 79.184 36.7508L79.1823 36.7516C79.0025 36.8274 78.8281 36.9023 78.6533 36.9843L78.6482 36.9867L78.6482 36.9867C78.5058 37.0482 78.3676 37.1092 78.2289 37.1743L78.2294 37.1741L78.1523 37.0118M76.202 38.1731C76.2019 38.1731 76.2018 38.1732 76.2017 38.1732L76.1179 38.0143L76.2022 38.1729C76.2022 38.173 76.2021 38.173 76.202 38.1731ZM76.202 38.1731C76.3793 38.0796 76.5543 37.9872 76.7333 37.8983L76.7352 37.8973C76.7488 37.8903 76.7623 37.8834 76.7756 37.8766C76.8561 37.8353 76.9326 37.796 77.0124 37.7596L77.0125 37.7598L77.0204 37.7558C77.2119 37.6568 77.4076 37.56 77.6034 37.4675C77.626 37.4568 77.6482 37.4463 77.6701 37.4359C77.841 37.3552 77.9953 37.2822 78.1606 37.2067L78.1606 37.2067L78.1631 37.2056L78.2286 37.1744L78.1523 37.0118M78.1523 37.0118L78.086 37.0433M78.1523 37.0118C78.2935 36.9455 78.4336 36.8836 78.577 36.8217C78.7551 36.7381 78.9321 36.662 79.1124 36.586C79.6381 36.3579 80.1801 36.1407 80.733 35.9343L80.9242 35.8615C81.1577 35.7714 81.3923 35.6856 81.6302 35.6019L78.086 37.0433M78.086 37.0433C77.9195 37.1193 77.7641 37.1928 77.5934 37.2735C77.5714 37.2839 77.5492 37.2944 77.5266 37.305C77.3289 37.3985 77.1313 37.4962 76.9379 37.5961C76.854 37.6344 76.7733 37.6758 76.6931 37.717C76.6798 37.7238 76.6666 37.7306 76.6533 37.7373L78.086 37.0433Z" fill="#7572D5" stroke="black" stroke-width="0.359351"/>
<path d="M58.4843 8.18526C61.1325 11.5329 64.4414 16.259 67.1193 21.8063C62.4904 25.3386 57.3105 30.8474 53.8278 39.1684C49.726 30.6231 44.7946 25.1551 40.5206 21.7065C41.8055 19.321 43.8637 15.7696 46.249 12.2473C48.6413 8.71437 51.3549 5.22247 53.9411 2.96248C53.9989 3.02124 54.0775 3.10165 54.1752 3.20303C54.4034 3.43997 54.7359 3.79139 55.1519 4.24838C55.9839 5.16238 57.1499 6.49846 58.4843 8.18526Z" fill="#7572D5" stroke="black" stroke-width="0.359351"/>
<path d="M51.1406 57.631L51.5021 57.3506L51.3372 57.8917L51.2273 58.2521C52.6935 61.9792 53.8882 66.2237 54.7284 71.0546C55.018 67.2793 56.3138 57.8743 62.0924 49.1939C65.2743 44.3724 69.5479 40.3687 74.5666 37.5078M51.1406 57.631L74.6559 37.6637M51.1406 57.631C51.4863 50.8935 52.8135 45.2363 54.7035 40.4938L54.7384 40.5014L55.0976 40.5801L54.9389 40.2483L54.8647 40.0932C58.2819 31.7658 63.443 26.3011 68.0279 22.8309C70.7361 20.7817 73.2442 19.4257 75.0742 18.5824C75.9891 18.1608 76.7342 17.8674 77.2498 17.6797C77.5076 17.5858 77.708 17.5184 77.8434 17.4745C77.8773 17.4636 77.9071 17.4541 77.9327 17.446C78.4954 18.1834 78.9623 19.2768 79.346 20.5974C79.7455 21.972 80.0503 23.5765 80.2823 25.2474C80.7382 28.5318 80.9108 32.0574 80.9727 34.5671C80.7804 34.6356 80.5893 34.7064 80.3984 34.7793L80.3982 34.7794L80.2128 34.8506L80.2757 35.0189L80.2113 34.8511L80.2121 34.8508M51.1406 57.631L80.2121 34.8508M74.5666 37.5078C74.5667 37.5077 74.5668 37.5077 74.5669 37.5076L74.6559 37.6637M74.5666 37.5078C74.5664 37.5079 74.5663 37.508 74.5661 37.5081L74.6559 37.6637M74.5666 37.5078C74.7086 37.4259 74.8473 37.3483 74.9925 37.2697M74.6559 37.6637C74.7971 37.5822 74.935 37.5051 75.0795 37.4269M74.9925 37.2697C74.992 37.2699 74.9916 37.2702 74.9911 37.2705L75.0795 37.4269M74.9925 37.2697C75.1398 37.1864 75.2888 37.1062 75.4361 37.0268C75.4641 37.0117 75.4921 36.9966 75.52 36.9816M74.9925 37.2697C74.993 37.2694 74.9935 37.2692 74.9939 37.2689L75.0795 37.4269M75.0795 37.4269L75.52 36.9816M75.52 36.9816C75.5188 36.9822 75.5177 36.9829 75.5165 36.9836L75.6084 37.138L75.5231 36.9799C75.5221 36.9804 75.521 36.981 75.52 36.9816ZM75.52 36.9816C75.5469 36.9657 75.5738 36.9517 75.5973 36.9396L75.6084 36.9339C75.6294 36.9232 75.6476 36.9139 75.6656 36.9038L75.6686 36.9022L75.6686 36.9022C75.8421 36.81 76.0172 36.7181 76.1972 36.6292M75.52 36.9816L76.2786 36.7893M76.1972 36.6292C76.1965 36.6295 76.1959 36.6298 76.1952 36.6302L76.2786 36.7893M76.1972 36.6292C76.1978 36.6289 76.1984 36.6285 76.199 36.6282L76.2786 36.7893M76.1972 36.6292C76.2867 36.5823 76.3807 36.5336 76.4778 36.4888M76.2786 36.7893C76.3699 36.7415 76.4622 36.6937 76.5567 36.6503M76.4778 36.4888C76.4766 36.4894 76.4754 36.4901 76.4741 36.4907L76.5567 36.6503M76.4778 36.4888C76.5748 36.4387 76.6762 36.3895 76.7738 36.3425L76.807 36.3265C76.8946 36.2843 76.978 36.2441 77.0544 36.2054C77.2333 36.1149 77.4192 36.0291 77.6017 35.9449L77.6034 35.9441L77.6037 35.9439L77.6692 35.9139M76.4778 36.4888C76.4791 36.4882 76.4803 36.4876 76.4816 36.4871L76.5567 36.6503M76.5567 36.6503C76.663 36.5953 76.7757 36.541 76.8851 36.4883C76.9724 36.4463 77.0575 36.4052 77.1356 36.3657C77.3115 36.2767 77.495 36.192 77.6785 36.1073L77.6692 35.9139M77.6692 35.9139L77.7449 36.0768L77.67 35.9135L77.6692 35.9139ZM77.6692 35.9139C77.8084 35.8492 77.9473 35.788 78.0878 35.7263M77.6692 35.9139L78.162 35.89M78.0878 35.7263C78.0871 35.7266 78.0865 35.727 78.0858 35.7273L78.162 35.89M78.0878 35.7263C78.0885 35.726 78.0892 35.7257 78.0899 35.7254L78.162 35.89M78.0878 35.7263C78.2642 35.6437 78.44 35.569 78.6158 35.4946M78.162 35.89C78.3358 35.8085 78.5096 35.7347 78.6866 35.6597M78.6158 35.4946C78.6156 35.4947 78.6154 35.4948 78.6152 35.4949L78.6866 35.6597M78.6158 35.4946C79.1342 35.2698 79.6666 35.0548 80.2121 34.8508M78.6158 35.4946C78.6161 35.4945 78.6164 35.4944 78.6166 35.4943L78.6866 35.6597M78.6866 35.6597L80.2121 34.8508M54.8094 72.6601L54.8263 72.651C54.8286 72.5055 54.836 72.223 54.8579 71.821L54.6775 71.8308C54.7226 72.1054 54.7666 72.3818 54.8094 72.6601ZM54.8094 72.6601L54.8257 72.6905C54.8258 72.6805 54.826 72.6695 54.8262 72.6575L54.8094 72.6601Z" fill="#7572D5" stroke="black" stroke-width="0.359351"/>
<path d="M49.8237 59.0358V59.0234C49.8237 59.0234 49.8237 59.0308 49.8237 59.0358Z" stroke="#7572D5" stroke-width="0.431209" stroke-miterlimit="10"/>
<path d="M53.8378 39.7175C53.8096 39.7837 53.7846 39.8489 53.7564 39.9184C51.6394 45.182 50.1633 51.4872 49.819 59.0285C43.9428 44.3185 34.1923 37.1965 25.504 33.7783C25.6594 28.8623 26.3284 20.3152 29.0612 15.0625C29.0612 15.0625 33.6851 16.1671 39.5058 20.8268C44.0982 24.5024 49.441 30.3981 53.8378 39.7175Z" stroke="#7572D5" stroke-width="0.431209" stroke-miterlimit="10"/>
<path d="M53.9556 39.9642L53.7568 39.9197C53.7851 39.8502 53.8101 39.785 53.8383 39.7188C53.8774 39.7991 53.9143 39.8828 53.9556 39.9642Z" stroke="#7572D5" stroke-width="0.431209" stroke-miterlimit="10"/>
<path d="M49.8237 59.0358V59.0234C49.8237 59.0234 49.8237 59.0308 49.8237 59.0358Z" stroke="#7572D5" stroke-width="0.431209" stroke-miterlimit="10"/>
<path d="M53.9556 39.9642L53.7568 39.9197C53.7851 39.8502 53.8101 39.785 53.8383 39.7188C53.8774 39.7991 53.9143 39.8828 53.9556 39.9642Z" stroke="#7572D5" stroke-width="0.431209" stroke-miterlimit="10"/>
<path opacity="0.9" d="M18.0173 57.4934C17.6339 57.0253 17.257 56.5463 16.8942 56.0597C12.0107 49.5627 8.79376 41.9679 7.52493 33.9398C7.20885 31.9728 7.25773 30.7802 7.25773 30.7802C7.25773 30.7802 15.7027 29.9243 25.5054 33.7791C34.1947 37.1983 43.942 44.3149 49.8193 59.0293V59.0412C49.8551 59.1292 49.8921 59.2172 49.9214 59.3084C51.681 63.7617 53.0778 68.9014 53.9924 74.8406C53.9924 74.8515 53.9924 74.8623 53.9924 74.8743C53.9304 74.8743 53.8718 74.8743 53.8099 74.8743C41.6915 74.8569 30.6397 70.0235 22.3066 62.127C21.4377 61.3048 20.5916 60.4456 19.7834 59.556" stroke="#7572D5" stroke-width="0.431209" stroke-miterlimit="10"/>
<path d="M49.8237 59.0358V59.0234C49.8237 59.0234 49.8237 59.0308 49.8237 59.0358Z" stroke="#7572D5" stroke-width="0.431209" stroke-miterlimit="10"/>
<path opacity="0.9" d="M100.469 30.7832C98.3698 55.423 78.3843 74.7666 54.0117 74.8654C54.0258 73.7466 54.3767 61.0993 62.0092 49.6326C65.4227 44.4588 70.0075 40.1624 75.3919 37.0917C75.545 37.0037 75.6938 36.9201 75.8492 36.8364C76.0371 36.7278 76.2282 36.6279 76.4194 36.5247C76.4683 36.4954 76.5215 36.4704 76.5747 36.4411C76.7626 36.3422 76.9505 36.2434 77.1417 36.1489C77.2405 36.0967 77.3394 36.0403 77.4426 35.9979C77.6479 35.8893 77.8564 35.7904 78.066 35.6916C78.2757 35.5928 78.4581 35.5048 78.6569 35.4135L78.7275 35.3799C78.8763 35.3104 79.0251 35.2452 79.1772 35.1789C79.3651 35.091 79.5519 35.0106 79.7431 34.9302C80.2992 34.6891 80.8727 34.4588 81.457 34.2394L81.6591 34.1623C81.9067 34.0678 82.1544 33.9755 82.4064 33.8886C87.469 32.092 93.4386 30.9581 100.469 30.7832Z" stroke="#7572D5" stroke-width="0.431209" stroke-miterlimit="10"/>
<path d="M68.1247 20.9411C63.1468 24.7112 57.5378 30.6547 53.8384 39.7177C49.4415 30.3984 44.0987 24.5026 39.5063 20.827C42.2218 15.7687 48.3651 5.49575 53.9524 0.689453C53.9557 0.689453 62.4137 9.05079 68.1247 20.9411Z" stroke="#7572D5" stroke-width="0.431209" stroke-miterlimit="10"/>
<path d="M21.249 47.8601C21.2501 47.8528 21.2501 47.8454 21.249 47.8382C21.249 47.8305 21.249 47.8229 21.249 47.8087C21.2472 47.7963 21.2472 47.7838 21.249 47.7715C21.2521 47.7977 21.2572 47.8236 21.2643 47.8491C21.2627 47.852 21.2605 47.8544 21.2579 47.8562C21.2551 47.8581 21.2522 47.8594 21.249 47.8601Z" fill="rgb(200, 225, 250)"/>
<path d="M21.2894 54.8808C21.1218 55.4215 20.9077 55.9465 20.6496 56.4503C20.5758 56.5926 20.503 56.7316 20.4226 56.8706C20.1483 57.3857 19.8116 57.865 19.4201 58.2978C19.3506 58.275 19.2811 58.2457 19.2192 58.2207C19.205 58.2207 19.1931 58.2099 19.1822 58.2055C17.9168 57.6537 16.9664 56.6186 16.684 55.4553C16.432 54.4311 16.6591 53.3232 16.1725 52.3619C15.5729 51.178 13.9567 50.4372 13.7546 49.0991C13.5722 47.8478 14.6985 46.6997 14.515 45.4745C14.3064 44.0875 12.6022 43.2653 12.2872 41.9119C12.0863 41.0712 12.2655 40.1013 12.1927 39.2345C12.1087 38.2656 11.9444 37.3055 11.7018 36.3637C11.8191 36.3561 11.9364 36.3529 12.0537 36.3485C14.4433 36.3083 16.8079 37.6519 17.5834 39.5451C18.209 41.0745 17.8908 42.8406 18.7206 44.2743C18.7709 44.367 18.8271 44.4562 18.889 44.5415C18.9978 44.6927 19.115 44.8377 19.2398 44.976L19.5037 45.2508C19.5472 45.2942 19.595 45.3344 19.6384 45.3822C19.6819 45.43 19.7297 45.4702 19.7742 45.518C20.1869 45.9123 20.6084 46.3109 20.8821 46.7834C20.9074 46.8243 20.9294 46.8672 20.9483 46.9115C20.974 46.9544 20.9957 46.9995 21.0135 47.0462C21.0371 47.0939 21.0582 47.1429 21.0765 47.1929C21.0982 47.2472 21.1167 47.3015 21.1341 47.3612C21.1601 47.4492 21.1862 47.5328 21.2036 47.6208C21.2036 47.6425 21.2036 47.661 21.2112 47.6795C21.2188 47.6979 21.2112 47.6936 21.2112 47.7012C21.2128 47.7083 21.2128 47.7157 21.2112 47.7229C21.2127 47.7354 21.2153 47.7478 21.2188 47.7598V47.7674C21.2192 47.781 21.2214 47.7946 21.2253 47.8076C21.2253 47.8217 21.2253 47.8293 21.2253 47.8369C21.2264 47.8441 21.2264 47.8515 21.2253 47.8587V47.8663L20.944 51.9481C21.1243 52.9354 21.5751 53.9195 21.2894 54.8808Z" fill="rgb(200, 225, 250)"/>
<path d="M23.4133 44.9727C23.5969 44.0875 23.611 43.1588 24.0281 42.3138C24.8036 40.7562 27.0693 39.6255 29.4448 39.5527H29.4882C29.7055 39.5527 29.9227 39.5527 30.1399 39.5636C29.8941 40.3733 29.7265 41.2048 29.6392 42.0466C29.5588 42.796 29.7478 43.6346 29.5404 44.3547C29.2069 45.5245 27.4332 46.2349 27.2181 47.4307C27.027 48.4908 28.2011 49.4825 28.0078 50.5611C27.7992 51.7167 26.1168 52.3565 25.4955 53.3851C24.9937 54.216 25.2283 55.1697 24.9687 56.0516C24.6646 57.0574 23.6653 57.9535 22.3499 58.4249C22.2652 58.4543 22.1892 58.4836 22.1045 58.5097C22.0599 58.5205 22.0089 58.539 21.9654 58.5498C21.9502 58.539 21.9361 58.5238 21.9176 58.5097C21.4929 58.148 21.0172 57.5375 20.6229 56.8804L20.6523 56.4633C20.9103 55.9595 21.1244 55.4344 21.292 54.8938C21.5777 53.9325 21.1269 52.9485 20.9662 51.9611L21.2475 47.8793L21.3355 47.8065C21.3676 47.7829 21.398 47.7571 21.4267 47.7294C21.8612 47.3786 22.3304 47.0419 22.666 46.6433C23.0831 46.1534 23.2775 45.6157 23.4013 45.052" fill="rgb(200, 225, 250)"/>
<path d="M23.4027 45.0294C23.4027 45.0109 23.4103 44.9935 23.4136 44.9707L23.4027 45.0294Z" fill="rgb(200, 225, 250)"/>
<path d="M23.4133 44.9705C23.4133 44.9933 23.4057 45.0107 23.4025 45.0291C23.2786 45.5929 23.0842 46.1305 22.6671 46.6204C22.3315 47.019 21.8634 47.3557 21.4278 47.7065C21.3992 47.7342 21.3687 47.76 21.3366 47.7837L21.2486 47.8597C21.2501 47.855 21.2501 47.8501 21.2486 47.8456C21.2452 47.833 21.2413 47.8207 21.2366 47.8086C21.2349 47.7964 21.2349 47.7839 21.2366 47.7717V47.7641C21.2332 47.7519 21.2307 47.7397 21.229 47.7272C21.2307 47.72 21.2307 47.7125 21.229 47.7054C21.2307 47.702 21.2315 47.6983 21.2315 47.6946C21.2315 47.6908 21.2307 47.6871 21.229 47.6837C21.2263 47.6639 21.2223 47.6443 21.2171 47.6251C21.1997 47.5371 21.1736 47.4535 21.1476 47.3655C21.1302 47.3101 21.1117 47.2514 21.09 47.1971C21.0717 47.1472 21.0506 47.0982 21.027 47.0505C21.0116 47.0028 20.9896 46.9574 20.9618 46.9158C20.9431 46.8715 20.9209 46.8286 20.8956 46.7876C20.6219 46.3152 20.2004 45.9187 19.7877 45.5222C19.7432 45.4745 19.6965 45.4267 19.6519 45.3865C19.6074 45.3463 19.5607 45.2985 19.5172 45.255L19.2533 44.9803C19.1285 44.842 19.0114 44.6969 18.9025 44.5458C18.9025 44.5458 19.1458 40.3173 21.3072 39.0378C23.3482 37.8191 23.4133 44.2569 23.4133 44.9705Z" fill="rgb(200, 225, 250)"/>
<path d="M23.4027 45.0294C23.4027 45.0109 23.4103 44.9935 23.4136 44.9707L23.4027 45.0294Z" fill="rgb(200, 225, 250)"/>
<path d="M21.2455 47.8465V47.864C21.2465 47.8567 21.2465 47.8493 21.2455 47.8421C21.2455 47.8344 21.2455 47.8268 21.2455 47.8126C21.2437 47.8002 21.2437 47.7877 21.2455 47.7754C21.2438 47.7991 21.2438 47.8228 21.2455 47.8465Z" fill="rgb(200, 225, 250)"/>
<path d="M28.5609 40.9043C24.6648 45.0969 22.8335 53.9383 22.1199 58.5002C22.0613 58.8858 22.0113 59.2378 21.9635 59.5549" fill="rgb(200, 225, 250)"/>
<path d="M28.9206 62.125L27.1284 72.6999C27.086 72.9889 26.9428 73.2535 26.7243 73.4471C26.5056 73.6407 26.2256 73.7507 25.9337 73.7579H16.5644C16.27 73.7504 15.9879 73.6381 15.7689 73.4411C15.5499 73.2442 15.4082 72.9756 15.3696 72.6837L13.7164 62.125H28.9206Z" fill="rgb(200, 225, 250)"/>
<path d="M30.6218 60.9482C30.6055 61.2614 30.4716 61.5568 30.2468 61.7755C30.0221 61.9942 29.7231 62.12 29.4096 62.1278H13.2507C12.9402 62.1203 12.6439 61.997 12.4199 61.7822C12.1957 61.5674 12.0601 61.2765 12.0396 60.9667C11.9712 60.2129 12.5327 59.5547 13.2507 59.5547H29.4096C30.12 59.5601 30.6793 60.1955 30.6218 60.9482Z" fill="rgb(200, 225, 250)"/>
<path d="M21.2564 47.8669C21.2562 47.843 21.2521 47.8194 21.2444 47.7969L21.2564 47.8669Z" fill="rgb(200, 225, 250)"/>
<path d="M13.2493 37.916C16.9889 42.7734 18.7485 53.0138 19.4404 58.3002C19.4991 58.7585 19.5491 59.1789 19.5936 59.5547" fill="rgb(200, 225, 250)"/>
<path d="M21.5858 43.0781C21.1177 44.5195 21.0949 45.9749 21.1513 46.8971C21.1663 47.1947 21.1978 47.4913 21.2458 47.7856" fill="rgb(200, 225, 250)"/>
<path d="M21.249 47.8601C21.2501 47.8528 21.2501 47.8454 21.249 47.8382C21.249 47.8305 21.249 47.8229 21.249 47.8087C21.2472 47.7963 21.2472 47.7838 21.249 47.7715C21.2521 47.7977 21.2572 47.8236 21.2643 47.8491C21.2627 47.852 21.2605 47.8544 21.2579 47.8562C21.2551 47.8581 21.2522 47.8594 21.249 47.8601Z" stroke="#7572D5" stroke-width="0.431209" stroke-miterlimit="10"/>
<path d="M21.2894 54.8808C21.1218 55.4215 20.9077 55.9465 20.6496 56.4503C20.5758 56.5926 20.503 56.7316 20.4226 56.8706C20.1483 57.3857 19.8116 57.865 19.4201 58.2978C19.3506 58.275 19.2811 58.2457 19.2192 58.2207C19.205 58.2207 19.1931 58.2099 19.1822 58.2055C17.9168 57.6537 16.9664 56.6186 16.684 55.4553C16.432 54.4311 16.6591 53.3232 16.1725 52.3619C15.5729 51.178 13.9567 50.4372 13.7546 49.0991C13.5722 47.8478 14.6985 46.6997 14.515 45.4745C14.3064 44.0875 12.6022 43.2653 12.2872 41.9119C12.0863 41.0712 12.2655 40.1013 12.1927 39.2345C12.1087 38.2656 11.9444 37.3055 11.7018 36.3637C11.8191 36.3561 11.9364 36.3529 12.0537 36.3485C14.4433 36.3083 16.8079 37.6519 17.5834 39.5451C18.209 41.0745 17.8908 42.8406 18.7206 44.2743C18.7709 44.367 18.8271 44.4562 18.889 44.5415C18.9978 44.6927 19.115 44.8377 19.2398 44.976L19.5037 45.2508C19.5472 45.2942 19.595 45.3344 19.6384 45.3822C19.6819 45.43 19.7297 45.4702 19.7742 45.518C20.1869 45.9123 20.6084 46.3109 20.8821 46.7834C20.9074 46.8243 20.9294 46.8672 20.9483 46.9115C20.974 46.9544 20.9957 46.9995 21.0135 47.0462C21.0371 47.0939 21.0582 47.1429 21.0765 47.1929C21.0982 47.2472 21.1167 47.3015 21.1341 47.3612C21.1601 47.4492 21.1862 47.5328 21.2036 47.6208C21.2036 47.6425 21.2036 47.661 21.2112 47.6795C21.2188 47.6979 21.2112 47.6936 21.2112 47.7012C21.2128 47.7083 21.2128 47.7157 21.2112 47.7229C21.2127 47.7354 21.2153 47.7478 21.2188 47.7598V47.7674C21.2192 47.781 21.2214 47.7946 21.2253 47.8076C21.2253 47.8217 21.2253 47.8293 21.2253 47.8369C21.2264 47.8441 21.2264 47.8515 21.2253 47.8587V47.8663L20.944 51.9481C21.1243 52.9354 21.5751 53.9195 21.2894 54.8808Z" stroke="#7572D5" stroke-width="0.431209" stroke-miterlimit="10"/>
<path d="M23.4133 44.9727C23.5969 44.0875 23.611 43.1588 24.0281 42.3138C24.8036 40.7562 27.0693 39.6255 29.4448 39.5527H29.4882C29.7055 39.5527 29.9227 39.5527 30.1399 39.5636C29.8941 40.3733 29.7265 41.2048 29.6392 42.0466C29.5588 42.796 29.7478 43.6346 29.5404 44.3547C29.2069 45.5245 27.4332 46.2349 27.2181 47.4307C27.027 48.4908 28.2011 49.4825 28.0078 50.5611C27.7992 51.7167 26.1168 52.3565 25.4955 53.3851C24.9937 54.216 25.2283 55.1697 24.9687 56.0516C24.6646 57.0574 23.6653 57.9535 22.3499 58.4249C22.2652 58.4543 22.1892 58.4836 22.1045 58.5097C22.0599 58.5205 22.0089 58.539 21.9654 58.5498C21.9502 58.539 21.9361 58.5238 21.9176 58.5097C21.4929 58.148 21.0172 57.5375 20.6229 56.8804L20.6523 56.4633C20.9103 55.9595 21.1244 55.4344 21.292 54.8938C21.5777 53.9325 21.1269 52.9485 20.9662 51.9611L21.2475 47.8793L21.3355 47.8065C21.3676 47.7829 21.398 47.7571 21.4267 47.7294C21.8612 47.3786 22.3304 47.0419 22.666 46.6433C23.0831 46.1534 23.2775 45.6157 23.4013 45.052" stroke="#7572D5" stroke-width="0.431209" stroke-miterlimit="10"/>
<path d="M23.4027 45.0294C23.4027 45.0109 23.4103 44.9935 23.4136 44.9707" stroke="#7572D5" stroke-width="0.431209" stroke-miterlimit="10"/>
<path d="M23.4133 44.9705C23.4133 44.9933 23.4057 45.0107 23.4025 45.0291C23.2786 45.5929 23.0842 46.1305 22.6671 46.6204C22.3315 47.019 21.8634 47.3557 21.4278 47.7065C21.3992 47.7342 21.3687 47.76 21.3366 47.7837L21.2486 47.8597C21.2501 47.855 21.2501 47.8501 21.2486 47.8456C21.2452 47.833 21.2413 47.8207 21.2366 47.8086C21.2349 47.7964 21.2349 47.7839 21.2366 47.7717V47.7641C21.2332 47.7519 21.2307 47.7397 21.229 47.7272C21.2307 47.72 21.2307 47.7125 21.229 47.7054C21.2307 47.702 21.2315 47.6983 21.2315 47.6946C21.2315 47.6908 21.2307 47.6871 21.229 47.6837C21.2263 47.6639 21.2223 47.6443 21.2171 47.6251C21.1997 47.5371 21.1736 47.4535 21.1476 47.3655C21.1302 47.3101 21.1117 47.2514 21.09 47.1971C21.0717 47.1472 21.0506 47.0982 21.027 47.0505C21.0116 47.0028 20.9896 46.9574 20.9618 46.9158C20.9431 46.8715 20.9209 46.8286 20.8956 46.7876C20.6219 46.3152 20.2004 45.9187 19.7877 45.5222C19.7432 45.4745 19.6965 45.4267 19.6519 45.3865C19.6074 45.3463 19.5607 45.2985 19.5172 45.255L19.2533 44.9803C19.1285 44.842 19.0114 44.6969 18.9025 44.5458C18.9025 44.5458 19.1458 40.3173 21.3072 39.0378C23.3482 37.8191 23.4133 44.2569 23.4133 44.9705Z" stroke="#7572D5" stroke-width="0.431209" stroke-miterlimit="10"/>
<path d="M23.4027 45.0294C23.4027 45.0109 23.4103 44.9935 23.4136 44.9707" stroke="#7572D5" stroke-width="0.431209" stroke-miterlimit="10"/>
<path d="M21.2455 47.8465V47.864C21.2465 47.8567 21.2465 47.8493 21.2455 47.8421C21.2455 47.8344 21.2455 47.8268 21.2455 47.8126C21.2437 47.8002 21.2437 47.7877 21.2455 47.7754C21.2438 47.7991 21.2438 47.8228 21.2455 47.8465Z" stroke="#7572D5" stroke-width="0.431209" stroke-miterlimit="10"/>
<path d="M28.5609 40.9043C24.6648 45.0969 22.8335 53.9383 22.1199 58.5002C22.0613 58.8858 22.0113 59.2378 21.9635 59.5549" stroke="#7572D5" stroke-width="0.431209" stroke-miterlimit="10"/>
<path d="M28.9206 62.125L27.1284 72.6999C27.086 72.9889 26.9428 73.2535 26.7243 73.4471C26.5056 73.6407 26.2256 73.7507 25.9337 73.7579H16.5644C16.27 73.7504 15.9879 73.6381 15.7689 73.4411C15.5499 73.2442 15.4082 72.9756 15.3696 72.6837L13.7164 62.125H28.9206Z" stroke="#7572D5" stroke-width="0.431209" stroke-miterlimit="10"/>
<path d="M30.6218 60.9482C30.6055 61.2614 30.4716 61.5568 30.2468 61.7755C30.0221 61.9942 29.7231 62.12 29.4096 62.1278H13.2507C12.9402 62.1203 12.6439 61.997 12.4199 61.7822C12.1957 61.5674 12.0601 61.2765 12.0396 60.9667C11.9712 60.2129 12.5327 59.5547 13.2507 59.5547H29.4096C30.12 59.5601 30.6793 60.1955 30.6218 60.9482Z" stroke="#7572D5" stroke-width="0.431209" stroke-miterlimit="10"/>
<path d="M21.2564 47.8669C21.2562 47.843 21.2521 47.8194 21.2444 47.7969L21.2564 47.8669Z" stroke="#7572D5" stroke-width="0.431209" stroke-miterlimit="10"/>
<path d="M13.2493 37.916C16.9889 42.7734 18.7485 53.0138 19.4404 58.3002C19.4991 58.7585 19.5491 59.1789 19.5936 59.5547" stroke="#7572D5" stroke-width="0.431209" stroke-miterlimit="10"/>
<path d="M21.5858 43.0781C21.1177 44.5195 21.0949 45.9749 21.1513 46.8971C21.1663 47.1947 21.1978 47.4913 21.2458 47.7856" stroke="#7572D5" stroke-width="0.431209" stroke-miterlimit="10"/>
<path d="M82.4066 33.8882C82.1547 33.9751 81.907 34.0674 81.6594 34.1619L81.4573 34.239C80.873 34.4563 80.2995 34.6887 79.7434 34.9298C79.5522 35.0102 79.3654 35.0906 79.1775 35.1786C79.0254 35.2448 78.8766 35.31 78.7278 35.3795L78.6572 35.4132C78.4584 35.5044 78.2607 35.5957 78.0663 35.6912C77.8719 35.7868 77.6481 35.8922 77.4428 35.9975C77.3342 36.0453 77.2408 36.0964 77.142 36.1485C76.9508 36.243 76.7629 36.3419 76.575 36.4407C76.5218 36.47 76.4664 36.495 76.4197 36.5243C76.2285 36.6275 76.0373 36.7296 75.8494 36.8361C75.6941 36.9197 75.5453 37.0033 75.3922 37.0913C70.0078 40.162 65.423 44.4585 62.0095 49.6322C54.377 61.0989 54.0261 73.7452 54.012 74.865L53.9935 74.8326C53.0801 68.8966 51.6822 63.7535 49.9258 59.3002L50.0638 58.8473L49.8237 59.0341C49.8237 59.0341 49.8237 59.0341 49.8237 59.0265C50.168 51.4852 51.6442 45.18 53.7611 39.9164L53.9599 39.961C53.9208 39.8795 53.8817 39.7959 53.8426 39.7155C57.5421 30.6525 63.151 24.709 68.1289 20.9389C73.9943 16.4986 78.9982 15.0605 78.9982 15.0605C81.6702 18.3625 82.2785 28.453 82.4066 33.8882Z" stroke="#7572D5" stroke-width="0.431209" stroke-miterlimit="10"/>
<path d="M82.7618 72.9006C81.9827 72.7442 81.2194 72.5574 80.4721 72.3402C77.407 71.4441 73.8465 69.9148 72.6256 66.6997C72.3201 65.8691 72.2239 64.9759 72.3453 64.0993C72.4666 63.2225 72.8021 62.3892 73.3219 61.6729C73.8726 60.909 74.6468 60.3347 75.5377 60.0295C77.4765 59.4028 79.6217 60.3793 81.0597 61.8239C82.4978 63.2685 83.4233 65.128 84.5496 66.8268C83.5308 64.5458 82.4967 62.1986 82.3566 59.7048C82.248 57.7605 82.7759 55.6523 84.1162 54.1914C85.3501 52.8467 88.235 51.7942 89.9337 52.7793C91.0547 53.431 91.5022 54.817 91.6944 56.0987C92.2223 59.6059 91.5445 63.1696 90.87 66.6519C91.323 64.7902 91.8096 62.9111 92.7328 61.2319C93.6561 59.5527 95.0713 58.069 96.8841 57.4466C98.1539 57.0122 99.6615 57.0589 100.725 57.8811C101.717 58.6414 102.16 59.9372 102.297 61.182C102.525 63.2696 102.034 65.3865 101.189 67.3079C98.0355 74.4799 89.2907 74.204 82.7618 72.9006Z" fill="rgb(200, 225, 250)"/>
<path d="M89.8761 69.3512C89.8761 69.3512 94.7367 70.7013 96.4529 63.9453L89.8761 69.3512Z" fill="rgb(200, 225, 250)"/>
<path d="M87.7138 57.8184C86.3626 60.8814 87.7138 70.0714 87.7138 70.0714V57.8184Z" fill="rgb(200, 225, 250)"/>
<path d="M83.2094 69.1439C83.0063 69.1091 81.0566 68.8365 79.3948 68.0729C78.1077 67.482 76.9922 66.5957 76.9922 65.2988" fill="rgb(200, 225, 250)"/>
<path d="M79.785 65.2988C79.785 65.2988 77.8853 67.5135 79.3951 68.0729L79.785 65.2988Z" fill="rgb(200, 225, 250)"/>
<path d="M78.5236 70.0871C78.794 69.7113 80.2006 70.4651 81.1195 68.6914L78.5236 70.0871Z" fill="rgb(200, 225, 250)"/>
<path d="M87.1132 61.874C86.6331 61.5134 85.3753 61.874 85.1907 58.9902L87.1132 61.874Z" fill="rgb(200, 225, 250)"/>
<path d="M87.3226 64.5758C87.3226 64.5758 89.4255 63.8155 89.4255 62.1699L87.3226 64.5758Z" fill="rgb(200, 225, 250)"/>
<path d="M91.8425 69.3915C91.8425 69.3915 92.9396 66.5599 93.3903 65.2988L91.8425 69.3915Z" fill="rgb(200, 225, 250)"/>
<path d="M95.2482 66.6842C95.2482 66.6842 96.4527 67.6389 97.8941 66.1074L95.2482 66.6842Z" fill="rgb(200, 225, 250)"/>
<path d="M95.2483 65.2985C95.2483 65.2985 94.4706 64.9607 94.8313 63.0176L95.2483 65.2985Z" fill="rgb(200, 225, 250)"/>
<path d="M82.7618 72.9006C81.9754 72.792 81.2183 72.5585 80.4721 72.3402C77.407 71.4441 73.8465 69.9148 72.6256 66.6997C72.3201 65.8691 72.2239 64.9759 72.3453 64.0993C72.4666 63.2225 72.8021 62.3892 73.3219 61.6729C73.8726 60.909 74.6468 60.3347 75.5377 60.0295C77.4765 59.4028 79.6217 60.3793 81.0597 61.8239C82.4978 63.2685 83.4232 65.128 84.5496 66.8268C83.5308 64.5458 82.4967 62.1986 82.3566 59.7048C82.248 57.7605 82.7759 55.6523 84.1162 54.1914C85.3501 52.8467 88.235 51.7942 89.9337 52.7793C91.0547 53.431 91.5022 54.817 91.6944 56.0987C92.2223 59.6059 91.5445 63.1696 90.87 66.6519C91.323 64.7902 91.8096 62.9111 92.7328 61.2319C93.6561 59.5527 95.0713 58.069 96.8841 57.4466C98.1539 57.0122 99.6615 57.0589 100.725 57.8811C101.717 58.6414 102.16 59.9372 102.297 61.1819C102.525 63.2696 102.063 65.4006 101.189 67.3079C97.9844 74.2909 89.1723 73.7631 82.7618 72.9006Z" stroke="#7572D5" stroke-width="0.431209" stroke-miterlimit="10"/>
<path d="M89.8761 69.3512C89.8761 69.3512 94.7367 70.7013 96.4529 63.9453" stroke="#7572D5" stroke-width="0.431209" stroke-miterlimit="10"/>
<path d="M87.7138 57.8184C86.3626 60.8814 87.7138 70.0714 87.7138 70.0714" stroke="#7572D5" stroke-width="0.431209" stroke-miterlimit="10"/>
<path d="M83.2094 69.1439C83.0063 69.1091 81.0566 68.8365 79.3948 68.0729C78.1077 67.482 76.9922 66.5957 76.9922 65.2988" stroke="#7572D5" stroke-width="0.431209" stroke-miterlimit="10"/>
<path d="M79.785 65.2988C79.785 65.2988 77.8853 67.5135 79.3951 68.0729" stroke="#7572D5" stroke-width="0.431209" stroke-miterlimit="10"/>
<path d="M78.5236 70.0871C78.794 69.7113 80.2006 70.4651 81.1195 68.6914" stroke="#7572D5" stroke-width="0.431209" stroke-miterlimit="10"/>
<path d="M87.1132 61.874C86.6331 61.5134 85.3753 61.874 85.1907 58.9902" stroke="#7572D5" stroke-width="0.431209" stroke-miterlimit="10"/>
<path d="M87.3226 64.5758C87.3226 64.5758 89.4255 63.8155 89.4255 62.1699" stroke="#7572D5" stroke-width="0.431209" stroke-miterlimit="10"/>
<path d="M91.8425 69.3915C91.8425 69.3915 92.9396 66.5599 93.3903 65.2988" stroke="#7572D5" stroke-width="0.431209" stroke-miterlimit="10"/>
<path d="M95.2482 66.6842C95.2482 66.6842 96.4527 67.6389 97.8941 66.1074" stroke="#7572D5" stroke-width="0.431209" stroke-miterlimit="10"/>
<path d="M95.2483 65.2985C95.2483 65.2985 94.4706 64.9607 94.8313 63.0176" stroke="#7572D5" stroke-width="0.431209" stroke-miterlimit="10"/>
<path d="M95.5798 48.4004C96.551 49.2372 97.4179 50.1879 98.1617 51.232C99.529 53.1013 100.303 55.3387 100.382 57.6535" stroke="#7572D5" stroke-width="0.431209" stroke-miterlimit="10"/>
<path d="M61.7054 10.1086C63.6605 8.93119 65.6993 7.8852 67.8673 7.14661C73.2732 5.30012 79.3003 5.70961 83.5831 9.76211C87.2956 13.2715 89.0508 18.4851 89.4093 23.4815C89.4093 23.5543 89.4212 23.6314 89.4245 23.7085C89.5885 26.2827 89.4538 29.1252 89.4354 31.9699" stroke="#7572D5" stroke-width="0.431209" stroke-miterlimit="10"/>
<path d="M19.0896 31.8109C19.5794 28.6838 18.9809 25.7425 18.6551 22.5242C17.8166 14.1389 20.4831 4.10599 30.1424 2.85147C35.3908 2.16718 39.6507 4.12772 43.1993 7.88804C43.9965 8.73199 44.7938 9.72366 45.6377 10.6817" stroke="#7572D5" stroke-width="0.431209" stroke-miterlimit="10"/>
<path d="M15.3225 59.5058C15.3225 59.5058 8.00716 56.2843 8.73924 50.231C8.94344 48.5225 9.74829 46.9943 10.7649 45.5898" stroke="#7572D5" stroke-width="0.431209" stroke-miterlimit="10"/>
<path d="M81.3943 63.5406C81.1162 63.34 80.8265 63.1496 80.5253 62.9693C77.521 61.1912 73.4272 60.5015 69.9949 60.2951C69.7853 60.2799 69.5789 60.2691 69.3747 60.2604C69.1042 60.2485 68.8396 60.1777 68.5992 60.0529C68.3502 59.9273 68.1338 59.7454 67.9671 59.5218C67.7987 58.8601 67.5963 58.2076 67.361 57.5667L66.8787 55.3943C66.6988 54.766 66.5578 54.1272 66.4562 53.4816C65.9566 50.2155 65.5873 46.1565 65.4569 44.6369C65.4726 44.6437 65.489 44.6483 65.5058 44.651L66.9971 45.129C67.0025 45.1285 67.008 45.1285 67.0134 45.129L67.5424 45.2843C69.5931 45.8665 71.7448 46.3031 73.8813 46.3498C75.895 46.3922 78.1043 46.062 79.8248 44.9476C79.9696 44.8563 80.1101 44.7586 80.2462 44.6543C81.5735 43.655 82.4957 42.1214 83.0181 40.5649C83.9794 37.686 84.1869 34.6088 83.6209 31.6268C83.4604 30.8058 83.2348 29.9987 82.9464 29.2133C82.1861 27.1224 81.088 25.163 80.1452 23.1308C79.928 22.6572 79.6173 22.1608 79.5793 21.6351C79.5337 21.0084 79.8552 20.4056 79.9562 19.7962C80.0739 19.064 80.1285 18.3231 80.1191 17.5815C80.1177 16.702 79.9494 15.8306 79.6227 15.0138C79.3414 14.3274 78.8418 13.176 77.9544 13.2184C77.6698 12.3082 77.1941 11.2546 76.3566 11.1362C76.1393 11.1029 75.9175 11.1567 75.7397 11.2861C75.6783 11.198 75.6119 11.1135 75.5409 11.033C75.1912 10.6398 74.5297 10.2857 73.9986 10.4899C72.945 10.907 73.4272 12.3571 73.9497 13.4573C73.6807 13.3995 73.4049 13.3812 73.1307 13.403C72.517 13.4573 71.8067 13.705 71.5688 14.2959C71.4395 14.6217 71.4852 15.2093 71.8154 15.394C72.2346 15.6232 72.7495 15.4711 73.1687 15.6862C73.6369 15.9273 73.8204 16.5736 73.752 17.0623C73.7387 17.2539 73.6623 17.4358 73.5348 17.5794C72.794 18.3201 72.2857 16.276 72.0043 15.9392C71.622 15.4798 71.0616 15.5634 70.6629 15.9512C69.8755 16.7115 70.2176 18.243 70.5478 19.1619C70.9062 20.1677 71.3722 21.2256 72.1162 22.0088C73.3534 23.3067 73.4891 25.3759 73.8161 27.0497C73.9508 27.7416 74.08 28.44 74.1843 29.1373C74.3907 30.4907 74.5101 31.8527 74.4015 33.2191C74.374 33.5942 74.2693 33.9596 74.0939 34.2922C73.9185 34.6249 73.6763 34.9177 73.3823 35.1523C73.0883 35.3869 72.749 35.5582 72.3858 35.6554C72.0225 35.7526 71.643 35.7737 71.2712 35.7173C70.386 35.5826 69.3498 35.4219 68.2462 35.2492C68.2462 35.2492 68.2549 35.2405 68.2603 35.2383C66.756 34.7267 65.4254 34.6637 64.1014 34.5942C60.366 34.0164 57.012 33.4733 57.012 33.4733C56.9356 33.4592 56.8665 33.419 56.8167 33.3594C56.7667 33.3 56.739 33.2251 56.7382 33.1474L56.6926 29.0004C56.9479 29.3132 57.5018 29.3567 57.8407 29.1753C57.9754 29.1067 58.0862 28.9988 58.1585 28.8661C58.2307 28.7332 58.2613 28.5817 58.2458 28.4313C58.4656 28.4294 58.6815 28.3739 58.8747 28.2694C58.9321 28.2374 58.9869 28.2011 59.0387 28.1608C59.146 28.0647 59.2324 27.9477 59.2928 27.8169C59.3531 27.6862 59.386 27.5444 59.3896 27.4005C59.3942 27.321 59.3902 27.2413 59.3776 27.1626C59.3776 27.1333 59.3689 27.1051 59.3635 27.0736C59.3516 27.0127 59.3374 26.953 59.3201 26.8889C59.3114 26.852 59.3005 26.8151 59.2886 26.7803C59.2603 26.6717 59.2288 26.5631 59.2049 26.4544C59.2175 26.4561 59.2303 26.4561 59.2429 26.4544C59.3502 26.4484 59.4566 26.4332 59.5612 26.4088C59.6606 26.3852 59.7577 26.3523 59.8512 26.3111C59.9037 26.2878 59.9548 26.2618 60.0044 26.2329C60.0129 26.2299 60.0206 26.2251 60.0272 26.2188C60.1112 26.1673 60.1907 26.1087 60.265 26.0439C60.2902 26.0232 60.3141 26.0011 60.3367 25.9776C60.3791 25.9378 60.4194 25.8957 60.4573 25.8516C60.5058 25.7948 60.5511 25.7353 60.5931 25.6735C60.6136 25.6472 60.6317 25.6193 60.6474 25.5899C60.7981 25.3481 60.9081 25.0832 60.9732 24.8056C60.9786 24.7796 60.9852 24.7535 60.9906 24.7285C61.2078 23.6945 60.882 22.5138 59.9739 22.1282C59.7925 22.0511 59.1495 21.9762 59.1495 21.7035C59.1499 21.6841 59.1528 21.6647 59.1582 21.646C59.1572 21.6421 59.1572 21.6379 59.1582 21.634C59.1754 21.5935 59.2 21.5567 59.231 21.5254C59.2451 21.508 59.2647 21.4907 59.282 21.4733C59.3201 21.4396 59.3624 21.4081 59.4026 21.3755C59.4439 21.3483 59.4834 21.3186 59.521 21.2865C59.537 21.2732 59.5522 21.259 59.5666 21.2441C59.5949 21.2126 59.6242 21.1811 59.6503 21.1496C59.6761 21.1185 59.7001 21.0858 59.7219 21.0518C59.7448 21.0171 59.7676 20.9823 59.7882 20.9432C59.8109 20.909 59.8301 20.8726 59.8458 20.8346C59.8785 20.7702 59.9054 20.703 59.9261 20.6337C59.9627 20.5198 59.9858 20.4021 59.9946 20.2828C59.9946 20.2405 59.9946 20.197 59.9946 20.1536C59.9946 19.1999 59.2169 18.2126 58.2339 18.1083C58.075 18.0909 57.9141 18.1098 57.7636 18.1637C57.6896 18.1894 57.6171 18.2191 57.5463 18.2528L57.4377 18.3038C57.3639 18.3386 57.2889 18.3755 57.2118 18.4124C57.1467 18.4434 57.0763 18.4611 57.0044 18.4646C56.9878 18.464 56.9715 18.4619 56.9555 18.4581L56.924 18.4494C56.9012 18.4444 56.8803 18.4327 56.8642 18.4157C56.8451 18.4018 56.8293 18.3841 56.8175 18.3636C56.8078 18.3437 56.8008 18.3224 56.7969 18.3006C56.7961 18.2993 56.7957 18.2978 56.7957 18.2962C56.7957 18.2947 56.7961 18.2932 56.7969 18.2919C56.7915 18.2666 56.7889 18.2407 56.7893 18.2148C56.7892 18.1611 56.7969 18.1077 56.8121 18.0562C56.8427 17.944 56.8582 17.8282 56.8577 17.7119C56.8576 17.6697 56.8547 17.6277 56.849 17.5859C56.8435 17.5279 56.8348 17.4702 56.823 17.4132C56.7166 16.993 56.464 16.6245 56.1104 16.3737C55.1144 15.6699 53.2473 15.6666 52.7324 16.9711C52.7216 16.9907 52.7162 17.0113 52.7075 17.0308C52.6412 16.9537 52.575 16.8733 52.5087 16.793C52.4629 16.7635 52.415 16.7374 52.3653 16.7148C51.6756 16.4139 50.6883 16.5432 50.1854 17.1319C49.7683 17.6206 49.6314 18.3755 50.0018 18.9295C49.7941 18.6612 49.5125 18.4596 49.1915 18.3495C49.2299 18.4569 49.2809 18.5594 49.3436 18.6547C49.3142 18.6147 49.2827 18.5762 49.2491 18.5395C49.223 18.5102 49.197 18.4841 49.1709 18.4592C49.1448 18.4342 49.1079 18.3983 49.0764 18.3723C49.0449 18.3462 49.0101 18.318 48.9765 18.2919C48.3302 17.8183 47.3787 17.7694 46.7759 18.3614C46.3045 18.8241 46.2067 19.4639 46.374 20.0841C46.5413 20.7043 46.9421 21.1355 47.2429 21.6699C46.223 21.9262 45.4073 23.0569 45.7288 24.117C45.796 24.3363 45.9136 24.5368 46.0723 24.7025C46.2309 24.868 46.4261 24.9942 46.6423 25.0707C46.7197 25.0901 46.7985 25.1036 46.878 25.1109C46.9046 25.1136 46.9302 25.1217 46.9535 25.1349C46.9768 25.148 46.9971 25.1657 47.0132 25.187C47.0293 25.2083 47.0408 25.2327 47.0471 25.2587C47.0534 25.2846 47.0543 25.3116 47.0496 25.3379C47.0334 25.4091 47.0251 25.482 47.0246 25.5551C47.0253 25.7301 47.071 25.902 47.1574 26.0542C47.2437 26.2064 47.3679 26.3338 47.5177 26.424C47.54 26.4364 47.5595 26.4534 47.575 26.4736C47.5905 26.4938 47.6017 26.517 47.6079 26.5417C47.6141 26.5664 47.6152 26.5922 47.611 26.6173C47.607 26.6425 47.5978 26.6665 47.584 26.688C47.433 26.9027 47.3443 27.155 47.3276 27.4171C47.3109 27.6791 47.367 27.9405 47.4895 28.1728C47.8251 28.8451 48.6474 29.4284 49.4229 29.1981C49.6724 29.1225 49.8883 28.9633 50.0344 28.7474C50.05 28.7311 50.0635 28.7128 50.0746 28.693C50.0774 28.6865 50.0814 28.6807 50.0865 28.6757C50.1982 28.5089 50.2724 28.3199 50.3038 28.1217C50.4948 28.4247 50.7087 28.7126 50.9435 28.9831L51.0847 29.1405L50.6557 31.7865L50.5927 32.2633C50.5695 32.4283 50.4873 32.5794 50.3617 32.6886C50.236 32.798 50.075 32.8583 49.9084 32.8585C49.8139 32.8585 49.7162 32.8585 49.6217 32.8585C49.4294 32.8585 49.2393 32.8639 49.0503 32.8694C48.4757 32.8835 47.9033 32.9096 47.332 32.9443C46.8975 32.9726 46.4729 33.0041 46.046 33.0421C45.8288 33.0594 45.6202 33.079 45.4051 33.1018C45.1901 33.1246 44.9772 33.1453 44.7643 33.1681C44.3483 33.2148 43.929 33.2626 43.512 33.318C43.0091 33.3842 42.5094 33.4526 42.0065 33.5243C41.2201 33.6395 40.4359 33.7655 39.6485 33.9012C38.8816 34.0337 38.118 34.1717 37.3512 34.3118C36.2737 34.5106 35.1854 34.6768 34.0927 34.8549C33.8057 34.9013 33.5122 34.8858 33.2318 34.8097C32.9513 34.7336 32.6902 34.5984 32.4662 34.4134C32.2421 34.2284 32.06 33.9976 31.9322 33.7366C31.8043 33.4756 31.7336 33.1903 31.7248 32.8998C31.6021 29.3154 33.6322 22.7778 33.6322 22.7778C33.6789 22.2694 34.2839 21.9088 34.6379 21.6199C35.6513 20.8194 36.2498 19.3857 36.5996 18.1789C36.8472 17.3176 37.0818 16.088 36.353 15.382C35.9533 14.9943 35.3928 14.9106 35.0116 15.3701C34.7303 15.709 34.2219 17.751 33.4801 17.0102C33.3526 16.8666 33.2761 16.6848 33.2629 16.4932C33.1988 16.0055 33.3715 15.3592 33.845 15.117C34.2643 14.8998 34.7792 15.054 35.1984 14.8248C35.5243 14.6402 35.5742 14.0493 35.445 13.7267C35.2071 13.1358 34.4978 12.8882 33.8831 12.8339C33.6089 12.8121 33.333 12.8303 33.0641 12.8882C33.5865 11.7879 34.0699 10.3379 33.0152 9.92187C32.4841 9.71224 31.8204 10.0652 31.4729 10.4584C31.4023 10.539 31.3362 10.6235 31.2752 10.7115C31.0967 10.5826 30.8748 10.5287 30.6571 10.5616C29.8154 10.68 29.345 11.7336 29.0605 12.6449C28.1818 12.6014 27.6843 13.7311 27.3997 14.4164C27.0772 15.2059 26.9059 16.0489 26.8946 16.9016C26.8675 17.8086 26.9316 18.7163 27.0858 19.6105C27.1575 19.9961 27.2868 20.3632 27.3791 20.7401C27.4801 21.1507 27.3704 21.558 27.2216 21.9436C26.6383 23.4197 25.8161 24.8013 25.1991 26.2665C24.5302 27.8173 23.9939 29.4218 23.596 31.0631C22.8291 34.3031 22.6716 37.7387 23.5677 40.97C25.2621 47.0765 33.8472 45.0714 38.7654 43.3596C40.8215 42.6449 42.2411 41.978 42.2411 41.978C42.2411 41.978 42.252 42.4515 42.252 43.2531V43.3618C42.2466 44.4479 42.1521 53.1134 40.6923 59.4762L40.6434 59.5598C40.6553 59.5511 40.6781 59.5511 40.6923 59.6282C40.6121 59.802 40.4837 59.9491 40.3223 60.0518C40.1609 60.1547 39.9734 60.209 39.782 60.2082C36.2868 60.1941 21.5681 60.6905 24.3584 70.201C24.8809 71.9878 26.2451 73.1337 28.16 73.8114C29.6807 74.3545 31.55 74.5902 33.6202 74.6076H33.6343C29.5873 75.3744 28.6456 81.3951 33.1608 82.3053C34.8986 82.655 36.2748 81.5298 37.8367 81.0497C38.7293 80.7858 39.6588 80.6677 40.5891 80.6999C41.1961 80.7145 41.8016 80.7712 42.4008 80.8694C48.9625 81.9437 55.6209 82.3056 62.2603 81.949C66.7495 81.7025 71.3255 81.1387 75.5855 79.6366C78.7962 78.5026 82.3197 76.5182 83.9012 73.4454C84.4615 72.364 84.7511 71.1627 84.7451 69.9447C84.7408 67.05 83.4026 64.9907 81.3943 63.5406Z" fill="rgb(200, 225, 250)"/>
<path d="M13.6629 73.6475L13.4989 73.4922" stroke="#7572D5" stroke-width="0.431209" stroke-miterlimit="10"/>
<path d="M67.3639 57.4074L66.8806 55.2296C66.7009 54.6013 66.5602 53.9625 66.4592 53.3169C65.9595 50.0508 65.5902 45.9928 65.4588 44.4733L67.0164 44.9697L66.4733 43.7608C66.4733 43.7608 64.6844 37.7401 68.2633 35.0888C65.6749 34.2079 63.6014 34.6608 61.1793 34.1036C60.2463 33.8864 59.2611 33.6963 58.1728 33.5182L57.3853 33.3802C57.3538 35.52 55.8647 36.0055 54.6395 36.238C51.6232 36.8158 49.5345 34.6152 49.6214 32.6992C46.2727 32.7372 42.9631 33.1793 39.6492 33.7419C40.0772 34.9976 40.9787 38.76 38.4425 43.209L38.7684 43.1981C40.8245 42.4823 42.2441 41.8165 42.2441 41.8165C42.2441 41.8165 42.256 42.2901 42.256 43.0917V43.2003C42.2506 44.28 42.1561 52.9519 40.6963 59.3136C40.5877 59.5211 40.6724 59.2658 40.6963 59.4961C40.6077 59.6729 40.5468 59.8622 40.516 60.0577L40.5866 59.7763C40.1934 60.3401 41.1775 61.0233 42.5993 61.3676C46.3161 62.2756 66.8046 63.8658 67.9613 60.0577C68.0294 59.8305 68.0317 59.5888 67.9678 59.3603C67.7998 58.6995 67.5982 58.0477 67.3639 57.4074Z" fill="#7572D5"/>
<path d="M40.5878 80.5359C39.6585 80.5048 38.7303 80.6233 37.8387 80.8868C36.2757 81.3658 34.8973 82.4921 33.1616 82.1413C28.6464 81.2311 29.5892 75.2105 33.6363 74.4436C34.024 74.4349 34.4118 74.4328 34.7963 74.4328H34.8224C36.6862 74.4328 38.5023 74.4816 39.9925 73.9668C39.8524 74.0961 36.2214 77.3165 40.5878 80.5359Z" fill="#7572D5"/>
<path d="M57.3825 33.3768V33.3822C57.351 35.522 55.8619 36.0075 54.6367 36.2399C51.6204 36.8178 49.5317 34.6172 49.6186 32.7012" stroke="#212121" stroke-width="0.431209" stroke-miterlimit="10"/>
<path d="M33.6398 74.4442C29.5927 75.211 28.65 81.2317 33.1652 82.1419C34.903 82.4927 36.2792 81.3663 37.8422 80.8873C38.7345 80.6236 39.6635 80.5052 40.5935 80.5365C41.1992 80.5531 41.8031 80.6116 42.4009 80.7114C48.9622 81.7879 55.6207 82.1521 62.2604 81.7976C66.7495 81.5499 71.3245 80.9873 75.5844 79.4851C78.7962 78.3501 82.3187 76.3656 83.9001 73.2939C84.4608 72.2122 84.7505 71.0106 84.7441 69.7921C84.7441 66.8942 83.4027 64.8348 81.3987 63.3837C81.1195 63.1828 80.8295 62.9938 80.5297 62.8124C77.5254 61.0343 73.4327 60.3446 70.0004 60.1383C69.7908 60.1241 69.5833 60.1122 69.3802 60.1035C69.1097 60.0924 68.845 60.0219 68.6047 59.8971C68.3553 59.7721 68.1387 59.5902 67.9725 59.366C67.8108 59.1536 67.697 58.9087 67.6391 58.648L67.3665 57.4098L66.8831 55.232L66.4595 53.3182C65.9599 50.0521 65.5906 45.9942 65.4591 44.4746" stroke="#212121" stroke-width="0.431209" stroke-miterlimit="10"/>
<path d="M71.42 71.5216C70.0807 74.5835 66.769 73.5353 63.1303 71.3315C60.8722 69.964 58.9453 69.7696 57.8081 69.8109C59.4113 69.6675 60.8125 69.1733 61.2067 67.3605C61.525 65.8876 60.6951 64.5364 59.2592 64.102C62.7111 63.9499 66.2531 64.2106 69.0619 66.3829C69.0641 66.3829 72.7614 68.4564 71.42 71.5216Z" fill="#7572D5"/>
<path d="M59.2365 26.2824C59.2242 26.284 59.2118 26.284 59.1996 26.2824C59.2332 26.4518 59.2973 26.6332 59.3397 26.8135C59.3737 26.9498 59.3883 27.0902 59.3831 27.2306C59.3375 27.8877 58.8715 28.244 58.2394 28.2614C58.2554 28.4121 58.2254 28.5643 58.1533 28.6977C58.0811 28.8311 57.9702 28.9395 57.8353 29.0087C57.4964 29.1868 56.9414 29.1466 56.6862 28.8327C56.3842 28.4688 56.5341 28.017 56.7177 27.6184C56.7839 27.4782 56.8502 27.3457 56.9045 27.2252C56.9707 27.0753 57.0283 26.9265 57.0794 26.7744C57.2601 26.2117 57.4002 25.6366 57.4986 25.0539C57.6188 24.4652 57.6983 23.8689 57.7365 23.2693C57.6963 23.1238 57.7224 22.9131 57.6648 22.761C57.5811 22.5263 57.4299 22.3215 57.2303 22.1723C56.8176 21.8682 56.268 21.8877 55.8292 21.6184C55.4319 21.3709 55.1184 21.0095 54.9298 20.5811C54.8929 20.492 54.8581 20.3769 54.806 20.2769C54.7828 20.2226 54.7475 20.1744 54.7028 20.1357C54.5051 19.9696 54.39 20.2628 54.2684 20.3769C54.1437 20.492 53.9958 20.5793 53.8348 20.6329C53.6737 20.6864 53.503 20.705 53.3343 20.6875C53.2066 20.6707 53.0824 20.634 52.966 20.5789C52.8806 20.5324 52.8007 20.4764 52.7282 20.4116C52.6419 20.3277 52.5416 20.2597 52.4316 20.2107C52.2253 20.1336 52.2144 20.4746 52.1851 20.593C52.1654 20.6953 52.123 20.7919 52.0606 20.8754C51.9984 20.9589 51.918 21.0273 51.8256 21.0753C51.7139 21.1301 51.5915 21.1595 51.4671 21.1611C51.3222 21.1669 51.1773 21.1474 51.0392 21.1035C50.9057 21.0639 50.7787 21.005 50.6623 20.9286C50.6413 20.9145 50.617 20.9066 50.5918 20.9057C50.5666 20.9049 50.5417 20.911 50.5199 20.9235C50.498 20.9361 50.4801 20.9546 50.4683 20.9768C50.4563 20.9989 50.451 21.024 50.4526 21.0492C50.4928 22.1723 49.4425 22.5633 49.0113 22.6785C48.8664 24.532 49.3193 26.3833 50.3038 27.9605C50.2675 28.1887 50.1745 28.4042 50.0334 28.5872C49.3241 28.7654 48.5051 28.572 48.1978 27.9605C47.8719 27.3088 47.9164 26.4062 48.4226 25.9413C48.0718 25.887 47.974 25.3689 48.1749 25.0648C48.1923 25.0354 48.1999 25.0181 48.1891 24.9898C48.1456 24.8714 47.6297 24.7726 47.4885 24.7291C47.287 24.6572 47.1051 24.5393 46.9572 24.3846C46.8094 24.2299 46.6997 24.043 46.6369 23.8385C46.3382 22.8533 47.0964 21.8019 48.0435 21.5641C47.7622 21.0666 47.3918 20.6647 47.2343 20.0901C47.0768 19.5155 47.1659 18.9181 47.6047 18.4837C47.7832 18.3139 48.0013 18.1914 48.2391 18.1273C48.477 18.0632 48.727 18.0595 48.9668 18.1166C49.1064 18.2181 49.2303 18.34 49.3339 18.4782C49.2701 18.384 49.219 18.2816 49.1818 18.1741C49.5032 18.2832 49.7852 18.485 49.9921 18.7541C49.6217 18.2002 49.7597 17.4442 50.1757 16.9554C50.6786 16.3667 51.667 16.2375 52.3556 16.5394C52.4055 16.5618 52.4537 16.5877 52.5001 16.6166C52.5652 16.698 52.6315 16.7784 52.6978 16.8555C52.705 16.8347 52.7137 16.8143 52.7238 16.7947C52.8636 16.9384 52.9959 17.0891 53.1203 17.2465C53.5678 15.9735 55.3458 15.9703 56.2854 16.6339C56.5066 16.7917 56.6878 16.9993 56.8143 17.24C56.8619 17.4515 56.8579 17.6713 56.8024 17.8809C56.7448 18.0818 56.7904 18.2339 56.9197 18.2773C57.0169 18.301 57.1194 18.2877 57.2075 18.2404C57.5518 18.0851 57.8364 17.895 58.2361 17.9384C59.5395 18.0764 60.4899 19.7708 59.7177 20.8765C59.6718 20.9452 59.6198 21.0096 59.5623 21.0688C59.4537 21.1774 59.2093 21.3045 59.155 21.4598C59.1535 21.4636 59.1535 21.4678 59.155 21.4717C59.0573 21.7976 59.7785 21.8704 59.9707 21.954C61.6739 22.6719 61.3143 26.1738 59.2365 26.2824Z" fill="#7572D5"/>
<path d="M29.6277 17.4521C29.2226 16.5896 29.5191 15.3807 29.9807 14.4673C30.3337 13.758 30.0524 12.6208 29.1509 12.4937C28.2146 12.3677 27.6911 13.5484 27.3989 14.2609C27.0758 15.0505 26.9041 15.894 26.8928 16.7471C26.8688 17.6544 26.9353 18.5619 27.0915 19.456C27.1632 19.8405 27.2925 20.2088 27.3837 20.5846C27.4847 20.9951 27.375 21.4035 27.2262 21.788C26.6429 23.2642 25.8218 24.6458 25.2038 26.111C24.5358 27.6619 23.9999 29.2664 23.6017 30.9075C22.8348 34.1476 22.6763 37.5831 23.5723 40.8145C25.2668 46.9209 33.8529 44.9159 38.77 43.2041C40.8261 42.4883 42.2458 41.8224 42.2458 41.8224C42.2458 41.8224 42.2577 42.296 42.2577 43.0976C42.2577 43.1345 42.2577 43.1725 42.2577 43.2062C42.2642 46.4289 42.135 54.5263 40.7469 59.3369C40.6868 59.5444 40.5606 59.7265 40.3874 59.8558C40.2143 59.9849 40.0038 60.0541 39.7878 60.0527C36.2925 60.0386 21.5749 60.535 24.3642 70.04C25.307 73.2508 28.9576 74.4054 33.6216 74.4455H33.6422C34.0213 74.4455 34.4091 74.4455 34.8022 74.4347H34.8283C36.5609 74.3745 38.2887 74.2182 40.0039 73.9665C46.0799 73.1106 52.5448 71.2837 56.7211 69.9673C56.962 69.9037 57.2081 69.8627 57.4565 69.8445C57.5597 69.8326 57.6737 69.8239 57.8019 69.8185H57.8127C58.9478 69.7728 60.8747 69.9673 63.135 71.3391C66.7736 73.5429 70.0865 74.5911 71.4246 71.5292C72.7628 68.4673 69.0644 66.3851 69.0644 66.3851C66.2555 64.2127 62.7135 63.9553 59.2617 64.1041C58.1962 64.1508 57.1361 64.2399 56.1118 64.3214C52.0126 64.6479 47.9126 64.9737 43.812 65.2989L38.4398 65.7334" stroke="#212121" stroke-width="0.431209" stroke-miterlimit="10"/>
<path d="M31.0886 16.8748C31.0886 16.8748 30.5032 15.6919 31.2277 13.8421C31.5264 13.0818 31.8707 12.1619 31.7295 11.3289C31.6853 11.0204 31.5214 10.7418 31.2733 10.5532C31.0949 10.4242 30.8728 10.3706 30.6553 10.4044C29.8146 10.5217 29.3432 11.5765 29.0586 12.4867" stroke="#212121" stroke-width="0.431209" stroke-miterlimit="10"/>
<path d="M32.3115 16.1881C32.3115 16.1881 31.7554 15.2464 32.5135 13.7986C32.6406 13.5574 32.8557 13.1718 33.0566 12.733C33.5802 11.6327 34.0624 10.1827 33.0077 9.76561C32.4766 9.55598 31.813 9.90898 31.4654 10.3033C31.3948 10.3834 31.3287 10.4676 31.2677 10.5553" stroke="#212121" stroke-width="0.431209" stroke-miterlimit="10"/>
<path d="M33.0597 12.7257C33.3286 12.6673 33.6046 12.649 33.8787 12.6713C34.4935 12.7257 35.2028 12.9722 35.4417 13.5642C35.571 13.89 35.5243 14.4776 35.1941 14.6612C34.7748 14.8915 34.2611 14.7394 33.8418 14.9545C33.3737 15.1956 33.1901 15.8419 33.2585 16.3306C33.2718 16.5222 33.3481 16.7041 33.4758 16.8477C34.2165 17.5884 34.7248 15.5443 35.0062 15.2076C35.3885 14.7481 35.9479 14.8307 36.3476 15.2184C37.0775 15.9244 36.8418 17.1529 36.5931 18.0153C36.2444 19.222 35.6459 20.6558 34.638 21.4552C34.2773 21.7398 33.6778 22.1069 33.6322 22.6152C33.6322 22.6152 31.6021 29.1485 31.7238 32.7362C31.7326 33.0266 31.8032 33.3117 31.931 33.5727C32.0587 33.8336 32.2407 34.0643 32.4647 34.2493C32.6887 34.4344 32.9496 34.5695 33.23 34.6457C33.5103 34.7219 33.8037 34.7374 34.0905 34.6913C35.1767 34.5142 36.2694 34.348 37.349 34.1482C38.1159 34.0081 38.8794 33.8701 39.6463 33.7376C43.0558 33.1576 46.4598 32.7068 49.9062 32.6916C50.0727 32.6919 50.2338 32.632 50.3596 32.5227C50.4854 32.4136 50.5674 32.2625 50.5905 32.0975L50.6557 31.625L51.0847 28.9737" stroke="#212121" stroke-width="0.431209" stroke-miterlimit="10"/>
<path d="M77.3852 18.0255C77.7904 17.1631 77.4938 15.9542 77.0322 15.0407C76.6759 14.3315 76.9605 13.1943 77.862 13.0672C77.8935 13.0672 77.925 13.0617 77.9544 13.0617C78.8418 13.0183 79.3414 14.1707 79.6227 14.8572C79.9498 15.6739 80.1186 16.5452 80.1202 17.4249C80.1286 18.1665 80.0737 18.9074 79.9562 19.6396C79.8563 20.2478 79.5337 20.8517 79.5804 21.4774C79.6173 22.0031 79.9279 22.5006 80.1463 22.9741C81.088 25.002 82.1904 26.9604 82.9464 29.0567C83.2347 29.8418 83.4602 30.6483 83.6209 31.4691C84.1885 34.4502 83.9828 37.5271 83.0235 40.4061C82.5 41.9636 81.5789 43.4973 80.2516 44.4966C80.114 44.6002 79.9732 44.6979 79.8291 44.7898C78.1086 45.9042 75.8993 46.2344 73.8867 46.191C71.7491 46.1454 69.5985 45.7087 67.5467 45.1255C67.1883 45.0227 66.8312 44.9141 66.4757 44.7996C66.1021 44.6812 65.7317 44.5607 65.3613 44.4347C64.9736 44.3 64.5858 44.1642 64.2013 44.0208" stroke="#212121" stroke-width="0.431209" stroke-miterlimit="10"/>
<path d="M77.9542 13.0628C77.6696 12.1526 77.1938 11.0979 76.3575 10.9806C76.1399 10.9468 75.9178 11.0004 75.7395 11.1294C75.4914 11.318 75.3275 11.5966 75.2833 11.9049C75.1421 12.738 75.4864 13.6569 75.7851 14.4183C76.5096 16.2648 75.923 17.452 75.923 17.452" stroke="#212121" stroke-width="0.431209" stroke-miterlimit="10"/>
<path d="M75.7397 11.1295C75.6788 11.0404 75.6104 10.9579 75.542 10.8764C75.1911 10.4832 74.5307 10.1302 73.9985 10.3398C72.9449 10.7558 73.4272 12.207 73.9507 13.3073C74.1571 13.7417 74.3722 14.1317 74.4938 14.3728C75.2541 15.8228 74.6948 16.7624 74.6948 16.7624" stroke="#212121" stroke-width="0.431209" stroke-miterlimit="10"/>
<path d="M73.9506 13.3062C73.6818 13.248 73.4059 13.2293 73.1317 13.2508C72.5169 13.3062 71.8076 13.5528 71.5687 14.1448C71.4394 14.4706 71.4861 15.0582 71.8163 15.2418C72.2356 15.472 72.7493 15.3189 73.1686 15.535C73.6367 15.7762 73.8203 16.4224 73.7519 16.9112C73.7386 17.1028 73.6621 17.2847 73.5346 17.4282C72.7939 18.169 72.2855 16.1248 72.0042 15.7881C71.6219 15.3276 71.0625 15.4112 70.6628 15.799C69.8753 16.5593 70.2175 18.0908 70.5477 19.0108C70.9072 20.0155 71.3721 21.0745 72.1161 21.8566C73.3543 23.16 73.489 25.2237 73.817 26.8975C73.9517 27.5904 74.081 28.2878 74.1842 28.9862C74.3905 30.3384 74.51 31.7016 74.4014 33.068C74.3738 33.443 74.2689 33.8084 74.0933 34.1411C73.9178 34.4738 73.6755 34.7667 73.3815 35.0012C73.0874 35.2358 72.7481 35.4071 72.3847 35.5043C72.0214 35.6015 71.6419 35.6226 71.27 35.5662C66.4126 34.8222 57.0118 33.3113 57.0118 33.3113C56.9349 33.298 56.8651 33.2581 56.8147 33.1986C56.7642 33.1389 56.7364 33.0635 56.7359 32.9854L56.6903 28.8374" stroke="#212121" stroke-width="0.431209" stroke-miterlimit="10"/>
<path d="M49.0068 22.6758C48.8081 24.8123 49.5499 27.2279 50.9402 28.8202C53.534 31.7866 55.7194 28.8202 55.7194 28.8202" stroke="#212121" stroke-width="0.431209" stroke-miterlimit="10"/>
<path d="M57.7648 23.3388C57.6888 23.1976 57.7333 22.9423 57.6681 22.7631C57.5839 22.5283 57.4329 22.3233 57.2336 22.1733C56.8187 21.8703 56.2702 21.8887 55.8325 21.6215C55.435 21.3728 55.1209 21.0108 54.931 20.5821C54.8701 20.4452 54.8224 20.2367 54.7061 20.1378C54.5074 19.9717 54.3922 20.2638 54.2717 20.379C54.0996 20.5393 53.8834 20.6442 53.651 20.6803C53.4186 20.7162 53.1807 20.6817 52.9683 20.581C52.7728 20.4843 52.637 20.2899 52.4328 20.2128C52.2286 20.1357 52.2155 20.4756 52.1851 20.5951C52.1657 20.6973 52.1234 20.7938 52.0616 20.8775C51.9997 20.9612 51.9198 21.0298 51.8278 21.0785C51.4683 21.2555 50.9773 21.1393 50.6645 20.9297C50.6435 20.9151 50.6189 20.907 50.5935 20.9059C50.5679 20.9049 50.5427 20.9111 50.5207 20.9238C50.4986 20.9366 50.4806 20.9553 50.4688 20.9779C50.4569 21.0004 50.4517 21.0259 50.4538 21.0513C50.5027 22.4633 48.83 22.7164 48.83 22.7164" stroke="#212121" stroke-width="0.431209" stroke-miterlimit="10"/>
<path d="M51.3669 25.7821C52.2031 25.7821 52.881 25.1043 52.881 24.268C52.881 23.4318 52.2031 22.7539 51.3669 22.7539C50.5307 22.7539 49.8528 23.4318 49.8528 24.268C49.8528 25.1043 50.5307 25.7821 51.3669 25.7821Z" stroke="#212121" stroke-width="0.431209" stroke-miterlimit="10"/>
<path d="M55.2913 25.6493C56.1276 25.6493 56.8055 24.9715 56.8055 24.1352C56.8055 23.299 56.1276 22.6211 55.2913 22.6211C54.4551 22.6211 53.7772 23.299 53.7772 24.1352C53.7772 24.9715 54.4551 25.6493 55.2913 25.6493Z" stroke="#212121" stroke-width="0.431209" stroke-miterlimit="10"/>
<path d="M50.734 24.4219C50.734 24.4219 51.3444 25.1225 51.9722 24.4219" stroke="#212121" stroke-width="0.431209" stroke-miterlimit="10"/>
<path d="M54.6747 24.4219C54.6747 24.4219 55.2851 25.1225 55.914 24.4219" stroke="#212121" stroke-width="0.431209" stroke-miterlimit="10"/>
<path d="M53.5108 27.7619C53.8054 27.7619 54.0442 27.5232 54.0442 27.2286C54.0442 26.9341 53.8054 26.6953 53.5108 26.6953C53.2163 26.6953 52.9775 26.9341 52.9775 27.2286C52.9775 27.5232 53.2163 27.7619 53.5108 27.7619Z" stroke="#212121" stroke-width="0.431209" stroke-miterlimit="10"/>
<path d="M52.8812 24.2685C52.8812 24.2685 53.2245 23.7091 53.7773 24.1338" stroke="#212121" stroke-width="0.431209" stroke-miterlimit="10"/>
<path d="M52.1849 22.0216C52.1849 22.0216 50.6132 20.8203 49.2957 21.9531" stroke="#212121" stroke-width="0.431209" stroke-miterlimit="10"/>
<path d="M56.7841 21.3926C56.7841 21.3926 54.917 20.7409 54.0155 22.2236" stroke="#212121" stroke-width="0.431209" stroke-miterlimit="10"/>
<path d="M50.2538 27.909C50.2502 28.1607 50.1674 28.4049 50.0173 28.6071C49.8672 28.8093 49.6574 28.9591 49.4174 29.0353C48.6419 29.2645 47.8208 28.6823 47.484 28.01C47.3613 27.7776 47.3053 27.5159 47.3222 27.2536C47.339 26.9914 47.4281 26.7388 47.5796 26.5241C47.5932 26.5026 47.6022 26.4786 47.6061 26.4535C47.61 26.4284 47.6088 26.4028 47.6025 26.3782C47.5962 26.3536 47.585 26.3305 47.5694 26.3104C47.554 26.2903 47.5346 26.2736 47.5123 26.2612C47.3615 26.1705 47.2368 26.0424 47.1505 25.8891C47.064 25.7359 47.0188 25.5628 47.0192 25.3869C47.0196 25.3139 47.0275 25.241 47.0431 25.1696C47.0481 25.1432 47.0474 25.1161 47.0413 25.09C47.0352 25.0638 47.0237 25.0393 47.0075 25.0178C46.9914 24.9964 46.9709 24.9785 46.9476 24.9653C46.9241 24.9522 46.8982 24.9441 46.8714 24.9415C46.7924 24.9344 46.714 24.9213 46.6368 24.9024C46.4208 24.8258 46.2256 24.6996 46.0669 24.534C45.9083 24.3685 45.7907 24.168 45.7234 23.9488C45.3975 22.8887 46.2176 21.7569 47.2375 21.5016C46.9334 20.9672 46.5304 20.536 46.3685 19.9158C46.2067 19.2956 46.3001 18.6548 46.7704 18.1921C47.5036 17.4741 48.7473 17.6979 49.3381 18.4853C48.9395 17.888 49.0883 17.0733 49.5369 16.5498C50.08 15.9176 51.139 15.7797 51.8809 16.1012C52.2339 16.2565 52.4609 16.578 52.702 16.8615C53.1843 15.4973 55.0916 15.4886 56.1061 16.2033C56.6339 16.5802 56.975 17.2634 56.8066 17.8869C56.7176 18.2029 56.8816 18.3919 57.2118 18.2464C57.542 18.1008 57.8407 17.901 58.2404 17.9444C59.6242 18.0911 60.6071 19.9864 59.5666 21.0748C59.458 21.1899 59.2136 21.3105 59.1593 21.4658C59.0409 21.7916 59.7762 21.8764 59.9717 21.96C61.6901 22.6812 61.3132 26.22 59.2114 26.2916C59.2744 26.5925 59.4178 26.926 59.395 27.2366C59.3494 27.8937 58.8834 28.25 58.2512 28.2706C58.2668 28.421 58.2365 28.5725 58.1643 28.7052C58.0922 28.838 57.9818 28.9459 57.8472 29.0147C57.5083 29.195 56.9533 29.1526 56.698 28.8387C56.2896 28.3456 56.7089 27.6993 56.9153 27.2279C57.2194 26.5382 57.3693 25.7942 57.5072 25.0556C57.6335 24.4436 57.7148 23.8232 57.7505 23.1993V23.1733" stroke="#212121" stroke-width="0.431209" stroke-miterlimit="10"/>
<path d="M6.12292 73.6484H28.1971" stroke="#212121" stroke-width="0.431209" stroke-miterlimit="10"/>
<path d="M83.743 73.6484H103.878" stroke="#212121" stroke-width="0.431209" stroke-miterlimit="10"/>
</g>
<defs>
<clipPath id="clip0_3810_48166">
<rect width="108.617" height="80.811" fill="rgb(200, 225, 250)" transform="translate(0.692139 0.691406)"/>
</clipPath>
</defs>
</svg>
