<svg width="200" height="100" viewBox="0 0 500 400" fill="none" xmlns="http://www.w3.org/2000/svg">
<path d="M433.909 36.4316H339.546C334.741 36.4316 330.847 40.3209 330.847 45.1186V179.866C330.847 184.664 334.741 188.553 339.546 188.553H433.909C438.713 188.553 442.608 184.664 442.608 179.866V45.1186C442.608 40.3209 438.713 36.4316 433.909 36.4316Z" stroke="#7572D5" stroke-width="4.83" stroke-miterlimit="10"/>
<path d="M429.837 52.1035H344.764C342.361 52.1035 340.414 54.0482 340.414 56.447V74.5153C340.414 76.9142 342.361 78.8588 344.764 78.8588H429.837C432.239 78.8588 434.186 76.9142 434.186 74.5153V56.447C434.186 54.0482 432.239 52.1035 429.837 52.1035Z" stroke="#7572D5" stroke-width="4.83" stroke-miterlimit="10"/>
<path d="M386.728 63.3746C388.258 63.3746 389.499 62.1358 389.499 60.6077C389.499 59.0796 388.258 57.8408 386.728 57.8408C385.198 57.8408 383.957 59.0796 383.957 60.6077C383.957 62.1358 385.198 63.3746 386.728 63.3746Z" fill="#7572D5"/>
<path d="M378.985 73.1281C378.985 71.0775 379.801 69.1109 381.253 67.6612C382.705 66.2109 384.674 65.3965 386.728 65.3965C388.781 65.3965 390.751 66.2109 392.202 67.6612C393.655 69.1109 394.47 71.0775 394.47 73.1281H378.985Z" fill="#7572D5"/>
<path d="M387.291 107.536C384.34 107.537 381.455 108.412 379.001 110.05C376.547 111.689 374.635 114.017 373.506 116.74C372.377 119.464 372.082 122.461 372.659 125.352C373.235 128.242 374.657 130.898 376.745 132.982C378.832 135.066 381.492 136.485 384.387 137.059C387.282 137.634 390.283 137.339 393.01 136.21C395.737 135.082 398.067 133.172 399.707 130.721C401.347 128.27 402.222 125.388 402.222 122.441C402.222 120.483 401.836 118.544 401.086 116.736C400.335 114.927 399.236 113.283 397.849 111.899C396.462 110.516 394.816 109.418 393.005 108.669C391.194 107.92 389.252 107.535 387.291 107.536ZM387.291 133.749C386.731 133.721 386.202 133.479 385.816 133.073C385.429 132.668 385.213 132.129 385.213 131.569C385.213 131.008 385.429 130.469 385.816 130.064C386.202 129.658 386.731 129.416 387.291 129.389C387.852 129.416 388.38 129.658 388.767 130.064C389.154 130.469 389.37 131.008 389.37 131.569C389.37 132.129 389.154 132.668 388.767 133.073C388.38 133.479 387.852 133.721 387.291 133.749ZM390.047 116.985C389.586 120.217 389.2 123.61 388.232 126.753C388.002 127.51 386.58 127.51 386.35 126.753C385.669 124.39 385.145 121.985 384.782 119.554C384.484 117.784 383.449 114.918 384.437 113.2C385.31 111.634 387.767 111.478 389.194 112.282C390.946 113.268 390.256 115.377 390.047 116.985Z" fill="#7572D5"/>
<path d="M223.979 66.635C218.746 65.0766 213.168 65.1033 207.95 66.7107C202.732 68.3186 198.109 71.4352 194.665 75.667C191.22 79.8988 189.11 85.0551 188.602 90.4845C188.093 95.9134 189.207 101.371 191.804 106.168C194.402 110.965 198.365 114.885 203.193 117.432C208.021 119.979 213.497 121.039 218.929 120.479C224.361 119.917 229.504 117.761 233.708 114.281C237.912 110.801 240.989 106.154 242.548 100.929C243.584 97.4592 243.926 93.8199 243.553 90.2188C243.181 86.6177 242.101 83.1251 240.377 79.9406C238.652 76.756 236.317 73.9422 233.503 71.6592C230.69 69.3757 227.453 67.6686 223.979 66.635ZM210.109 113.098C209.112 112.769 208.283 112.065 207.796 111.135C207.311 110.206 207.207 109.124 207.507 108.119C207.807 107.114 208.487 106.266 209.403 105.754C210.32 105.241 211.4 105.106 212.415 105.377C212.936 105.516 213.425 105.758 213.851 106.088C214.277 106.419 214.633 106.832 214.896 107.302C215.16 107.773 215.327 108.292 215.386 108.827C215.445 109.363 215.396 109.905 215.242 110.422C215.088 110.939 214.831 111.419 214.488 111.836C214.144 112.251 213.721 112.594 213.242 112.844C212.763 113.093 212.24 113.244 211.702 113.288C211.163 113.331 210.622 113.267 210.109 113.098ZM223.859 84.8338C221.333 90.3206 218.845 96.131 215.494 101.19C214.689 102.411 212.164 101.66 212.159 100.198C212.201 95.6549 212.551 91.1204 213.204 86.6244C213.612 83.3407 213.293 77.713 215.954 75.1862C218.317 72.9257 222.75 73.8967 224.868 76.0685C227.413 78.7205 225.082 82.0982 223.859 84.8338Z" fill="#7572D5"/>
<path d="M146.867 127.676C144.953 129.622 143.659 132.091 143.15 134.771C142.64 137.45 142.938 140.221 144.005 142.732C145.072 145.243 146.861 147.381 149.145 148.877C151.429 150.373 154.106 151.159 156.837 151.135C159.569 151.112 162.232 150.281 164.49 148.746C166.748 147.211 168.5 145.043 169.524 142.514C170.548 139.985 170.798 137.21 170.243 134.539C169.688 131.868 168.351 129.422 166.404 127.509C163.79 124.945 160.265 123.522 156.601 123.553C152.937 123.585 149.436 125.068 146.867 127.676ZM164.193 144.68C164.007 144.869 163.786 145.019 163.542 145.122C163.297 145.226 163.036 145.281 162.771 145.283C162.505 145.285 162.243 145.236 161.997 145.137C161.751 145.038 161.527 144.891 161.338 144.706C161.149 144.521 160.998 144.3 160.895 144.056C160.791 143.813 160.736 143.551 160.734 143.286C160.732 143.021 160.781 142.759 160.881 142.513C160.979 142.268 161.126 142.044 161.312 141.855C161.687 141.474 162.199 141.257 162.734 141.252C163.269 141.247 163.784 141.455 164.166 141.829C164.549 142.204 164.765 142.715 164.771 143.249C164.775 143.784 164.567 144.298 164.193 144.68ZM154.903 131.999C156.738 134.401 158.729 136.859 160.178 139.532C160.528 140.174 159.608 141.098 158.959 140.775C156.963 139.686 155.042 138.466 153.209 137.12C151.844 136.175 149.283 134.996 148.786 133.226C148.336 131.66 149.832 129.916 151.264 129.504C153.026 128.992 153.972 130.814 154.903 131.999Z" fill="#7572D5"/>
<path d="M349.793 90.8018H422.706" stroke="#7572D5" stroke-width="4.83" stroke-miterlimit="10"/>
<path d="M349.793 97.9717H422.706" stroke="#7572D5" stroke-width="4.83" stroke-miterlimit="10"/>
<path d="M349.793 144.118H422.706" stroke="#7572D5" stroke-width="4.83" stroke-miterlimit="10"/>
<path d="M366.726 150.903H405.767" stroke="#7572D5" stroke-width="4.83" stroke-miterlimit="10"/>
<path d="M442.613 134.71C449.044 142.781 455.16 152.784 460.691 165.109C494.369 240.212 452.274 278.327 452.274 278.327" stroke="#7572D5" stroke-width="4.83" stroke-miterlimit="10"/>
<path d="M90.8553 194.265C90.8553 194.265 40.8822 137.658 103.198 109.629C165.515 81.6003 177.852 77.7057 173.356 48.549C168.86 19.3922 204.201 -10.297 259.778 9.3218C315.356 28.9406 316.469 65.9125 312.527 94.495C310.29 110.788 319.548 114.704 330.825 113.884" stroke="#7572D5" stroke-width="4.83" stroke-miterlimit="10"/>
<path d="M439.09 302.759C438.963 305.884 438.153 308.943 436.716 311.722C436.66 311.861 436.593 311.995 436.518 312.124C433.998 316.645 430.473 320.528 426.213 323.474L426.062 323.578C422.217 326.146 417.893 327.913 413.348 328.773H461.726C461.726 328.773 455.254 236.604 395.772 191.759C338.207 148.366 284.313 169.28 280.894 170.679C281.954 173.665 282.427 176.827 282.29 179.992C282.29 179.992 286.619 182.242 287.34 190.298C288.062 198.353 289.567 220.749 275.091 224.967C275.091 224.967 262.095 224.649 258.66 219.668C255.226 214.688 254.4 215.701 253.051 216.964C252.005 217.919 245.695 221.334 242.783 222.9C243.151 222.918 243.517 222.968 243.876 223.051C243.876 223.051 245.544 237.105 265.948 259.13C266.639 259.858 267.292 260.621 267.903 261.417C270.984 264.107 274.447 266.853 278.291 269.655L301.576 286.669C302.101 287.115 302.724 287.432 303.395 287.593C304.698 287.921 306.06 287.933 307.368 287.629C310.076 287.107 328.567 285.223 340.534 284.032C340.806 284.032 341.093 283.98 341.36 283.949L342.928 283.798C343.179 283.798 343.451 283.745 343.671 283.73L345.082 283.594C345.772 283.526 346.394 283.458 346.969 283.411L348.538 283.26C349.923 283.124 350.744 283.041 350.812 283.041C353.663 282.96 356.504 282.684 359.318 282.216C362.01 281.694 364.467 280.853 365.105 279.459C365.226 279.165 365.271 278.845 365.236 278.53C365.091 277.643 364.72 276.809 364.159 276.108C361.702 272.814 355.993 269.989 355.574 269.786C355.562 269.781 355.55 269.781 355.538 269.786L355.423 269.702L321.442 243.338H321.405C321.405 243.338 326.523 188.815 373.161 202.232C373.161 202.232 373.381 202.383 373.783 202.717C375.602 204.116 381.327 208.752 389.744 217.413C389.963 217.648 390.199 217.883 390.434 218.134C391.328 219.042 392.206 219.987 393.079 220.911C398.987 227.217 405.976 235.252 413.687 245.27L413.74 245.322C422.575 256.807 428.942 267.332 433.083 276.645V276.677C437.563 286.799 439.45 295.471 439.079 302.388C439.091 302.511 439.094 302.635 439.09 302.759ZM298.423 209.045C297.043 193.158 304.786 187.405 305.22 187.087C294.21 206.977 314.63 237.465 315.346 238.645C314.76 238.154 299.804 224.925 298.423 209.045Z" fill="#7572D5"/>
<path d="M269.18 205.926C268.607 206.347 268.01 206.734 267.392 207.085L263.806 200.82C272.076 196.597 274.397 189.153 270.759 185.065C269.741 183.947 268.43 183.136 266.974 182.726C263.314 181.619 260.779 183.248 259.059 185.436C257.655 187.337 256.626 189.488 256.027 191.773L254.281 171.664L254.145 170.098C254.145 170.098 250.339 168.213 240.029 169.894C229.72 171.575 227.822 177.26 223.394 174.739C218.966 172.217 216.457 172.421 216.457 172.421C215.197 177.041 211.825 177.041 211.825 177.041C211.026 176.944 210.242 176.754 209.488 176.472C204.705 172.081 203.408 164.465 203.408 164.465C208.427 163.843 208.814 159.02 208.239 155.068C211.02 156.717 214.941 156.832 220.446 153.303C236.239 143.217 252.435 148.678 258.128 149.518C260.669 149.889 263.45 148.996 265.756 147.952C266.054 148.485 266.468 148.943 266.969 149.294C270.812 151.967 273.981 155.495 276.227 159.599C291.048 187.263 274.8 201.953 269.18 205.926Z" fill="#7572D5"/>
<path d="M210.016 328.781H215.976C218.525 328.779 220.968 327.766 222.771 325.966C224.573 324.166 225.587 321.726 225.59 319.181V312.519C225.59 311.912 225.47 311.311 225.237 310.75C225.004 310.189 224.663 309.679 224.233 309.25C223.802 308.821 223.292 308.481 222.73 308.25C222.168 308.017 221.566 307.899 220.958 307.899H185.314C185.316 309.317 185.037 310.721 184.494 312.031C183.951 313.342 183.155 314.532 182.15 315.534C181.146 316.537 179.954 317.331 178.641 317.873C177.329 318.414 175.923 318.692 174.503 318.69H45.7041C45.7057 321.366 46.7706 323.932 48.6657 325.824C50.5603 327.716 53.1298 328.78 55.8096 328.781H230.42C230.648 328.782 230.875 328.738 231.085 328.651C231.296 328.564 231.488 328.436 231.649 328.275C231.81 328.114 231.939 327.923 232.025 327.712C232.112 327.502 232.157 327.276 232.156 327.048V316.236C232.156 314.136 232.991 312.122 234.479 310.636C235.966 309.151 237.984 308.317 240.087 308.317C242.19 308.317 244.207 309.151 245.695 310.636C247.182 312.122 248.017 314.136 248.017 316.236V327.048C248.017 327.275 248.061 327.501 248.148 327.711C248.234 327.921 248.361 328.112 248.522 328.273C248.683 328.434 248.874 328.562 249.084 328.649C249.295 328.736 249.52 328.781 249.748 328.781H461.727C461.727 328.781 455.255 236.592 395.773 191.752C338.209 148.359 284.314 169.273 280.895 170.672L280.728 170.735" stroke="#212121" stroke-width="4.83" stroke-miterlimit="10"/>
<path d="M221.291 193.235C221.289 193.815 221.115 194.381 220.791 194.862C220.467 195.343 220.008 195.718 219.471 195.938C218.935 196.159 218.345 196.216 217.776 196.101C217.206 195.988 216.684 195.708 216.274 195.298C215.864 194.888 215.585 194.365 215.472 193.797C215.358 193.228 215.416 192.639 215.638 192.104C215.86 191.568 216.236 191.11 216.718 190.788C217.2 190.465 217.768 190.292 218.348 190.291C218.575 190.292 218.802 190.32 219.022 190.375C218.718 190.471 218.453 190.661 218.264 190.919C218.076 191.176 217.975 191.487 217.977 191.805C217.975 192.005 218.013 192.203 218.089 192.389C218.164 192.573 218.276 192.742 218.417 192.884C218.558 193.026 218.725 193.139 218.91 193.217C219.095 193.294 219.293 193.334 219.493 193.335C219.859 193.327 220.211 193.193 220.488 192.953C220.765 192.714 220.949 192.385 221.009 192.024C221.189 192.403 221.286 192.816 221.291 193.235Z" fill="#212121"/>
<path d="M241.686 194.054C241.687 194.637 241.515 195.207 241.191 195.692C240.868 196.177 240.408 196.555 239.869 196.779C239.331 197.003 238.738 197.062 238.166 196.948C237.593 196.835 237.067 196.555 236.654 196.144C236.242 195.732 235.96 195.208 235.846 194.636C235.732 194.065 235.79 193.473 236.013 192.934C236.236 192.396 236.614 191.936 237.099 191.612C237.584 191.288 238.154 191.115 238.738 191.115C238.878 191.114 239.019 191.13 239.156 191.162C238.895 191.282 238.674 191.474 238.52 191.716C238.364 191.957 238.282 192.238 238.283 192.525C238.265 192.927 238.407 193.319 238.678 193.615C238.95 193.912 239.329 194.089 239.731 194.107C240.133 194.125 240.525 193.982 240.823 193.711C241.12 193.44 241.297 193.063 241.315 192.661C241.556 193.086 241.684 193.566 241.686 194.054Z" fill="#212121"/>
<path d="M265.206 143.819C264.866 146.106 265.289 148.111 266.973 149.301C270.816 151.974 273.985 155.502 276.231 159.606C293.912 192.595 267.391 207.113 267.391 207.113L263.805 200.849C274.13 195.586 275.186 185.281 266.973 182.754C258.76 180.227 256.026 191.801 256.026 191.801L254.143 170.11C254.143 170.11 250.338 168.225 240.028 169.906C229.719 171.587 227.821 177.273 223.393 174.751C218.965 172.23 216.456 172.433 216.456 172.433C215.196 177.053 211.824 177.053 211.824 177.053C201.943 175.795 199.622 162.143 199.622 162.143C204.636 161.517 205.022 156.693 204.453 152.746C207.229 154.396 211.155 154.516 216.66 150.982C232.453 140.896 248.649 146.362 254.337 147.202C258.268 147.771 262.78 145.37 265.206 143.819Z" stroke="#212121" stroke-width="4.83" stroke-linecap="round" stroke-linejoin="round"/>
<path d="M274.323 307.409L278.228 305.843L281.156 313.731L280.696 328.046L276.738 328.761L261.719 328.114C261.719 328.114 262.764 319.385 265.959 315.235C269.153 311.084 274.323 307.409 274.323 307.409Z" fill="#7572D5"/>
<path d="M205.938 181.876C205.938 181.876 209.937 174.708 218.354 175.455" stroke="#212121" stroke-width="4.83" stroke-miterlimit="10"/>
<path d="M234.836 175.453C234.836 175.453 244.455 173.297 247.822 178.637" stroke="#212121" stroke-width="4.83" stroke-miterlimit="10"/>
<path d="M249.742 207.904C249.742 207.904 243.992 204.579 239.783 210.17" stroke="#212121" stroke-width="4.83" stroke-miterlimit="10"/>
<path d="M213.402 176.603C213.402 176.603 209.308 224.689 239.834 223.802C245.062 223.65 250.258 220.22 255.225 214.702" stroke="#212121" stroke-width="4.83" stroke-miterlimit="10"/>
<path d="M267.391 219.079L255.226 214.704C255.226 214.704 258.242 224.331 273.183 225.067C288.125 225.803 293.138 191.561 282.16 177.784" stroke="#212121" stroke-width="4.83" stroke-linejoin="round"/>
<path d="M314.954 315.54C314.954 315.54 303.803 324.577 311.378 328.779" stroke="#212121" stroke-width="4.83" stroke-miterlimit="10"/>
<path d="M306.328 307.133C306.328 307.133 286.985 318.065 303.594 328.782" stroke="#212121" stroke-width="4.83" stroke-miterlimit="10"/>
<path d="M299.804 298.729C299.804 298.729 274.13 310.736 293.912 328.783" stroke="#212121" stroke-width="4.83" stroke-miterlimit="10"/>
<path d="M407.77 328.78C407.77 328.78 438.918 328.78 439.336 298.725C439.754 268.671 378.939 193.202 339.583 182.704C300.228 172.205 298.539 200.976 298.539 202.156C298.539 203.335 296.229 215.729 306.329 228.953C314.129 239.175 348.58 264.693 363.867 275.781C364.428 276.189 364.852 276.758 365.082 277.412C365.312 278.067 365.337 278.775 365.153 279.444C364.97 280.113 364.587 280.71 364.056 281.156C363.524 281.602 362.869 281.876 362.178 281.941L294.571 288.425H294.53C293.892 288.54 270.032 292.936 262.765 300.401C262.765 300.401 258.692 303.413 260.799 308.039C262.906 312.664 269.378 311.14 269.556 310.967" stroke="#212121" stroke-width="4.83" stroke-miterlimit="10"/>
<path opacity="0.26" d="M238.742 199.515C243.391 199.515 247.159 195.752 247.159 191.11C247.159 186.468 243.391 182.705 238.742 182.705C234.093 182.705 230.325 186.468 230.325 191.11C230.325 195.752 234.093 199.515 238.742 199.515Z" fill="rgb(150, 200, 250)"/>
<path opacity="0.26" d="M217.382 198.684C222.03 198.684 225.799 194.921 225.799 190.279C225.799 185.637 222.03 181.874 217.382 181.874C212.733 181.874 208.965 185.637 208.965 190.279C208.965 194.921 212.733 198.684 217.382 198.684Z" fill="rgb(150, 200, 250)"/>
<path d="M290.137 306.079C287.178 305.255 282.342 304.513 277.36 306.111C274.924 306.894 272.676 308.172 270.757 309.864C270.339 310.23 269.936 310.6 269.55 310.971C268.716 311.788 267.928 312.65 267.192 313.555C267.095 313.675 266.957 313.755 266.805 313.78C264.949 314.035 252.731 315.967 252.794 322.133C252.852 327.672 258.926 328.58 261.018 328.726C261.104 328.734 261.191 328.724 261.273 328.697C261.355 328.669 261.431 328.625 261.495 328.567C261.559 328.509 261.611 328.439 261.647 328.36C261.683 328.282 261.701 328.196 261.702 328.11C261.702 326.137 262.152 319.95 267.04 313.727" stroke="#212121" stroke-width="4.83" stroke-miterlimit="10"/>
<path d="M180.06 262.567C181.492 274.1 172.516 279.315 162.703 280.088" stroke="#212121" stroke-width="4.83" stroke-miterlimit="10"/>
<path d="M148.44 277.681C144.698 275.663 141.668 272.545 139.758 268.751C137.849 264.956 137.153 260.667 137.765 256.465C139.333 245.371 148.743 236.861 157.955 231.463C177.298 220.13 220.888 228.331 228.212 230.002C233.827 231.286 238.521 226.901 240.424 224.781C240.505 224.691 240.61 224.626 240.726 224.594C240.843 224.562 240.966 224.564 241.082 224.599C241.197 224.635 241.3 224.703 241.378 224.796C241.456 224.888 241.506 225 241.522 225.12C245.542 248.613 292.232 280.5 303.033 287.636" stroke="#212121" stroke-width="4.83" stroke-miterlimit="10"/>
<path d="M191.837 254.592L176.378 264.172C175.457 264.745 174.425 265.119 173.351 265.269C172.276 265.419 171.182 265.343 170.138 265.044C169.095 264.746 168.126 264.233 167.293 263.538C166.461 262.843 165.784 261.981 165.305 261.008C164.443 259.261 164.272 257.254 164.826 255.386C165.381 253.519 166.62 251.928 168.296 250.933L191.821 236.937" stroke="#212121" stroke-width="4.83" stroke-miterlimit="10"/>
<path d="M238.742 199.515C243.391 199.515 247.159 195.752 247.159 191.11C247.159 186.468 243.391 182.705 238.742 182.705C234.093 182.705 230.325 186.468 230.325 191.11C230.325 195.752 234.093 199.515 238.742 199.515Z" stroke="#212121" stroke-width="4.83" stroke-miterlimit="10"/>
<path d="M217.381 197.427C221.333 197.427 224.538 194.227 224.538 190.28C224.538 186.332 221.333 183.133 217.381 183.133C213.428 183.133 210.224 186.332 210.224 190.28C210.224 194.227 213.428 197.427 217.381 197.427Z" fill="rgb(150, 200, 250)" stroke="rgb(150, 200, 250)" stroke-width="4.83" stroke-miterlimit="10"/>
<path d="M217.382 198.684C222.03 198.684 225.799 194.921 225.799 190.279C225.799 185.637 222.03 181.874 217.382 181.874C212.733 181.874 208.965 185.637 208.965 190.279C208.965 194.921 212.733 198.684 217.382 198.684Z" stroke="#212121" stroke-width="4.83" stroke-miterlimit="10"/>
<path d="M230.366 190.28H225.797" stroke="#212121" stroke-width="4.83" stroke-miterlimit="10"/>
<path d="M230.367 202.157H227.355C227.166 202.157 226.979 202.116 226.807 202.035C226.636 201.955 226.484 201.838 226.364 201.692C226.242 201.546 226.155 201.376 226.108 201.193C226.061 201.01 226.055 200.818 226.09 200.633L228.082 190.28" stroke="#212121" stroke-width="4.83" stroke-miterlimit="10"/>
<path d="M169.949 230.844C169.949 230.844 159.216 233.156 155.431 249.34C153.131 259.165 149.973 271.7 147.851 280.032C147.578 281.1 147.554 282.217 147.78 283.297C148.006 284.376 148.476 285.39 149.153 286.261C149.831 287.132 150.699 287.836 151.691 288.321C152.683 288.806 153.772 289.058 154.877 289.058C156.526 289.058 158.126 288.497 159.413 287.467C160.7 286.438 161.596 285.001 161.956 283.394L166.446 263.274" stroke="#212121" stroke-width="4.83" stroke-miterlimit="10"/>
<path d="M179.761 268.675C179.761 268.675 191.027 261.951 213.219 268.675C235.411 275.4 260.923 279.962 269.34 262.129" stroke="#212121" stroke-width="4.83" stroke-miterlimit="10"/>
<path d="M277.365 306.113C277.365 306.113 285.207 315.051 280.439 328.781" stroke="#212121" stroke-width="4.83" stroke-miterlimit="10"/>
<path d="M18.2359 194.974H142.136C146.127 194.968 150.004 196.304 153.142 198.766C156.279 201.229 158.496 204.674 159.435 208.547L179.16 290.123C179.692 292.324 179.717 294.618 179.234 296.83C178.75 299.042 177.77 301.116 176.367 302.895C174.964 304.675 173.176 306.113 171.136 307.102C169.096 308.09 166.858 308.604 164.59 308.604H41.0085C37.0254 308.608 33.1562 307.275 30.0221 304.821C26.8882 302.366 24.6706 298.931 23.7252 295.067L3.68152 213.507C3.14028 211.303 3.10776 209.005 3.58637 206.788C4.06498 204.57 5.04223 202.49 6.44418 200.705C7.84619 198.919 9.63627 197.476 11.6791 196.483C13.7219 195.49 15.964 194.974 18.2359 194.974Z" fill="#7572D5"/>
<path d="M22.7473 198.484H138.994C142.739 198.489 146.374 199.748 149.317 202.061C152.26 204.373 154.341 207.605 155.227 211.238L173.744 287.766C174.244 289.831 174.268 291.982 173.814 294.057C173.361 296.133 172.442 298.079 171.126 299.748C169.81 301.417 168.133 302.766 166.219 303.694C164.305 304.622 162.205 305.104 160.078 305.104H44.1136C40.3804 305.096 36.7569 303.841 33.8204 301.54C30.8834 299.238 28.802 296.021 27.9072 292.402L9.08689 215.869C8.57869 213.801 8.54805 211.645 8.99733 209.564C9.44657 207.483 10.364 205.531 11.68 203.856C12.9961 202.182 14.6764 200.827 16.5937 199.897C18.5112 198.966 20.6154 198.483 22.7473 198.484Z" fill="#7572D5"/>
<path d="M18.2359 194.974H142.136C146.127 194.968 150.004 196.304 153.142 198.766C156.279 201.229 158.496 204.674 159.435 208.547L179.16 290.123C179.692 292.324 179.717 294.618 179.234 296.83C178.75 299.042 177.77 301.116 176.367 302.895C174.964 304.675 173.176 306.113 171.136 307.102C169.096 308.09 166.858 308.604 164.59 308.604H41.0085C37.0254 308.608 33.1562 307.275 30.0221 304.821C26.8882 302.366 24.6706 298.931 23.7252 295.067L3.68152 213.507C3.14028 211.303 3.10776 209.005 3.58637 206.788C4.06498 204.57 5.04223 202.49 6.44418 200.705C7.84619 198.919 9.63627 197.476 11.6791 196.483C13.7219 195.49 15.964 194.974 18.2359 194.974Z" stroke="#212121" stroke-width="4.83" stroke-miterlimit="10"/>
<path d="M76.2655 249.31L68.8785 214.922C68.7254 214.195 68.326 213.543 67.7483 213.074C67.1706 212.605 66.4497 212.35 65.7052 212.349H29.152C28.6602 212.35 28.1753 212.463 27.7338 212.679C27.2923 212.895 26.9057 213.208 26.6035 213.596C26.3013 213.983 26.0913 214.434 25.9893 214.915C25.8874 215.395 25.8963 215.892 26.0153 216.368L34.5628 251.158C34.6689 251.643 34.8953 252.094 35.2215 252.469C35.5143 252.84 35.887 253.14 36.3126 253.348C36.7381 253.555 37.2055 253.663 37.6786 253.664H37.7466L73.1236 253.246C73.6014 253.24 74.0714 253.127 74.5006 252.918C74.9298 252.709 75.3078 252.407 75.6068 252.035C75.9116 251.658 76.1286 251.218 76.2425 250.747C76.3565 250.275 76.3643 249.785 76.2655 249.31ZM28.4567 215.752C28.4302 215.65 28.4277 215.542 28.4494 215.438C28.4712 215.334 28.5166 215.236 28.5821 215.152C28.6492 215.065 28.7355 214.994 28.8343 214.945C28.933 214.896 29.0417 214.871 29.152 214.87H65.7052C65.8699 214.87 66.0299 214.925 66.1574 215.029C66.2855 215.133 66.3728 215.278 66.4058 215.439L72.0309 241.631C53.2472 223.521 51.1195 244.298 51.1195 244.298C40.5174 238.785 37.4538 244.82 36.5651 248.793L28.4567 215.752Z" fill="#7572D5"/>
<path d="M39.0119 228.233C41.0508 227.601 42.018 224.902 41.1815 222.203C40.345 219.504 38.0082 217.834 35.9536 218.466C33.8991 219.097 32.9476 221.796 33.7893 224.49C34.631 227.184 36.9783 228.865 39.0119 228.233Z" fill="#7572D5"/>
<path d="M47.9625 227.618H59.9553C61.4452 227.618 62.9404 227.618 64.4303 227.618H64.6447C65.0639 227.629 65.4811 227.551 65.868 227.388C66.1351 227.256 66.3625 227.055 66.5262 226.806C66.6903 226.557 66.7849 226.27 66.8012 225.972C66.8168 225.675 66.7536 225.379 66.6171 225.113C66.4807 224.849 66.2763 224.625 66.0248 224.464C65.743 224.337 65.4863 224.16 65.2668 223.942C65.1214 223.713 65.0216 223.458 64.974 223.191C64.6969 222.435 64.1621 221.801 63.4632 221.4C62.9545 221.059 62.3826 220.823 61.7803 220.707C61.1786 220.591 60.5596 220.598 59.9605 220.727C59.3692 220.876 58.8281 221.178 58.3921 221.604C58.021 221.969 57.9478 222.46 57.6602 222.867C57.472 223.133 57.3518 223.05 57.0956 222.904C56.8394 222.757 56.6983 222.648 56.4892 222.543C56.0767 222.323 55.6485 222.133 55.2084 221.974C54.3118 221.643 53.3556 221.502 52.401 221.562C50.7228 221.692 49.0499 222.689 48.4644 224.266C47.9369 224.273 47.4288 224.468 47.0325 224.815C46.6357 225.162 46.3759 225.64 46.3001 226.161C46.2656 226.362 46.2786 226.569 46.3382 226.764C46.3984 226.959 46.5034 227.137 46.6451 227.284C47.0262 227.557 47.4967 227.676 47.9625 227.618Z" fill="#7572D5"/>
<path d="M133.94 226.875L132.978 222.923C132.333 220.266 130.812 217.903 128.66 216.214C126.507 214.525 123.849 213.607 121.111 213.609H107.9C106.393 213.608 104.906 213.953 103.554 214.62C102.202 215.286 101.023 216.254 100.107 217.45C99.1917 218.646 98.5648 220.036 98.2752 221.513C97.9856 222.99 98.0415 224.515 98.4378 225.966L99.5304 229.981C100.228 232.564 101.76 234.845 103.887 236.471C106.015 238.097 108.619 238.978 111.298 238.976H124.431C125.914 238.975 127.378 238.637 128.711 237.989C130.045 237.34 131.214 236.398 132.129 235.232C133.045 234.067 133.684 232.709 133.998 231.262C134.311 229.814 134.292 228.314 133.94 226.875ZM119.412 227.851L114.9 230.623C114.727 230.733 114.53 230.802 114.325 230.824C114.12 230.845 113.913 230.819 113.72 230.747C113.527 230.675 113.353 230.559 113.212 230.41C113.072 230.259 112.968 230.079 112.909 229.882L111.209 224.338C111.138 224.092 111.138 223.83 111.21 223.584C111.282 223.338 111.422 223.118 111.614 222.948C111.806 222.779 112.043 222.667 112.296 222.627C112.549 222.586 112.809 222.618 113.044 222.719L119.302 225.481C119.526 225.582 119.718 225.741 119.857 225.943C119.995 226.145 120.076 226.381 120.09 226.626C120.103 226.871 120.049 227.114 119.933 227.331C119.817 227.547 119.644 227.727 119.433 227.851H119.412Z" fill="rgb(150, 200, 250)"/>
<path d="M130.991 262.374H107.878C106.82 262.373 105.785 262.064 104.9 261.485C104.014 260.907 103.316 260.084 102.891 259.117C102.759 258.819 102.688 258.498 102.682 258.172C102.687 257.542 102.941 256.94 103.388 256.497C103.836 256.053 104.44 255.803 105.071 255.802H129.642C128.486 257.754 129.072 260.453 130.991 262.374Z" fill="#7572D5"/>
<path d="M145.964 260.004C145.963 260.633 145.712 261.235 145.267 261.679C144.823 262.123 144.22 262.373 143.591 262.374H130.991C129.073 260.453 128.487 257.754 129.643 255.802H140.736C141.793 255.802 142.826 256.109 143.711 256.685C144.596 257.26 145.295 258.079 145.724 259.044C145.868 259.344 145.95 259.671 145.964 260.004Z" fill="#7572D5"/>
<path d="M140.156 262.375C140.091 262.501 140.015 262.621 139.931 262.735C138.279 264.985 134.703 265.194 131.927 263.168C131.596 262.928 131.283 262.663 130.991 262.375C129.073 260.454 128.487 257.755 129.643 255.802C129.708 255.678 129.783 255.559 129.867 255.447C131.504 253.181 135.095 252.983 137.856 254.993C138.19 255.239 138.507 255.51 138.802 255.802C140.736 257.723 141.296 260.422 140.156 262.375Z" fill="rgb(150, 200, 250)"/>
<path d="M151.751 274.52C151.745 275.149 151.492 275.751 151.044 276.195C150.597 276.639 149.992 276.888 149.362 276.89H57.7592C58.9303 274.927 58.3448 272.238 56.4209 270.322H146.555C147.612 270.322 148.646 270.629 149.531 271.207C150.416 271.785 151.113 272.607 151.537 273.575C151.672 273.872 151.745 274.193 151.751 274.52Z" fill="#7572D5"/>
<path d="M57.7583 276.862H46.3459C45.2894 276.863 44.2558 276.556 43.3702 275.981C42.4851 275.405 41.7862 274.585 41.3585 273.62C41.2242 273.318 41.1531 272.991 41.1494 272.66C41.1489 272.349 41.2095 272.041 41.3287 271.753C41.4479 271.465 41.6225 271.204 41.8432 270.985C42.0638 270.764 42.3257 270.59 42.6143 270.472C42.9023 270.354 43.2113 270.294 43.5229 270.295H56.42C58.3439 272.211 58.9294 274.899 57.7583 276.862Z" fill="#7572D5"/>
<path d="M57.7583 276.864C57.7045 276.992 57.6344 277.114 57.5492 277.224C55.9129 279.49 52.3213 279.683 49.5558 277.673C49.2228 277.427 48.908 277.156 48.6148 276.864C46.7066 274.943 46.1211 272.259 47.2607 270.297C47.324 270.17 47.3993 270.049 47.4855 269.936C49.1375 267.686 52.7134 267.477 55.4894 269.498C55.8209 269.738 56.1319 270.006 56.42 270.297C58.3438 272.212 58.9293 274.901 57.7583 276.864Z" fill="rgb(150, 200, 250)"/>
<path d="M65.8403 291.226H51.3382C50.2822 291.225 49.2486 290.918 48.3636 290.343C47.4785 289.767 46.7795 288.948 46.3508 287.984C46.2071 287.693 46.125 287.374 46.1104 287.05C46.1119 286.419 46.3634 285.814 46.8104 285.368C47.2568 284.922 47.8622 284.671 48.4943 284.669H64.4759C63.3623 286.642 63.9322 289.326 65.8403 291.226Z" fill="#7572D5"/>
<path d="M156.723 288.892C156.714 289.519 156.458 290.116 156.008 290.553C155.56 290.991 154.956 291.232 154.328 291.226H65.8413C63.9331 289.304 63.3476 286.621 64.4873 284.658H151.526C152.583 284.658 153.618 284.965 154.502 285.543C155.387 286.12 156.084 286.943 156.508 287.911C156.647 288.22 156.719 288.554 156.723 288.892Z" fill="#7572D5"/>
<path d="M75.0005 291.226C74.9373 291.353 74.862 291.473 74.7757 291.586C73.1394 293.852 69.5479 294.045 66.7876 292.035C66.453 291.789 66.1367 291.519 65.8413 291.226C63.9332 289.305 63.3476 286.621 64.4873 284.659C64.5526 284.533 64.6279 284.413 64.7121 284.298C66.3641 282.048 69.94 281.85 72.716 283.86C73.0485 284.099 73.3595 284.367 73.6465 284.659C75.5704 286.595 76.1559 289.294 75.0005 291.226Z" fill="rgb(150, 200, 250)"/>
<g opacity="0.21">
<path opacity="0.21" d="M77.5313 250.569L70.16 216.181C70.0074 215.454 69.6085 214.801 69.0303 214.333C68.4526 213.865 67.7306 213.611 66.9867 213.612H30.4282C29.9331 213.612 29.4449 213.726 29.0007 213.944C28.5565 214.162 28.1685 214.479 27.8666 214.87C27.5671 215.254 27.3596 215.701 27.2599 216.177C27.1602 216.653 27.171 217.146 27.2915 217.616L35.8391 252.411C35.9436 252.896 36.1679 253.347 36.4925 253.722C36.7863 254.093 37.1607 254.393 37.5867 254.599C38.0133 254.806 38.4812 254.912 38.9549 254.912H39.0385L74.4103 254.489C74.887 254.483 75.3565 254.372 75.7847 254.164C76.2134 253.956 76.5903 253.654 76.8883 253.283C77.1889 252.906 77.4022 252.467 77.5135 251.997C77.6244 251.529 77.6306 251.04 77.5313 250.569ZM29.7172 217.016C29.6906 216.913 29.6885 216.805 29.7115 216.7C29.734 216.596 29.781 216.499 29.8479 216.416C29.9133 216.328 29.9985 216.257 30.0968 216.208C30.1945 216.159 30.3027 216.133 30.4125 216.134H66.9658C67.1305 216.133 67.2904 216.188 67.419 216.29C67.5476 216.393 67.6365 216.537 67.6715 216.698L73.2967 242.889C54.5078 224.774 52.3853 245.557 52.3853 245.557C41.7884 240.044 38.7196 246.079 37.8361 250.052L29.7172 217.016Z" fill="#7572D5"/>
<path opacity="0.21" d="M40.2779 229.493C42.3116 228.862 43.284 226.163 42.4423 223.469C41.6006 220.775 39.2742 219.094 37.2144 219.726C35.1546 220.357 34.2084 223.056 35.0448 225.755C35.8813 228.454 38.2704 230.146 40.2779 229.493Z" fill="#7572D5"/>
<path opacity="0.21" d="M49.2484 228.882H61.2359C62.7311 228.882 64.221 228.882 65.7162 228.882H65.9253C66.3451 228.894 66.7618 228.816 67.1486 228.652C67.4173 228.521 67.6458 228.321 67.8105 228.072C67.9757 227.823 68.0713 227.535 68.087 227.237C68.1032 226.939 68.0389 226.642 67.9014 226.377C67.7645 226.112 67.5585 225.888 67.3055 225.729C67.0263 225.597 66.7706 225.42 66.5474 225.207C66.4063 224.974 66.3075 224.718 66.2547 224.45C65.9776 223.697 65.4449 223.065 64.749 222.664C64.2404 222.322 63.6669 222.085 63.0641 221.97C62.4613 221.854 61.8413 221.861 61.2411 221.991C60.6598 222.141 60.1292 222.444 59.7041 222.868C59.3277 223.233 59.2598 223.719 58.9722 224.131C58.784 224.398 58.6638 224.314 58.4076 224.163C58.1515 224.011 58.0103 223.912 57.8012 223.802C57.3887 223.584 56.9606 223.396 56.5204 223.239C55.6238 222.906 54.6676 222.764 53.713 222.821C52.0349 222.951 50.3619 223.954 49.7712 225.525C49.2437 225.534 48.7366 225.73 48.3408 226.078C47.9451 226.426 47.6868 226.904 47.6121 227.425C47.5781 227.626 47.5917 227.832 47.6502 228.027C47.7093 228.221 47.8123 228.4 47.9519 228.548C48.3293 228.812 48.7899 228.931 49.2484 228.882Z" fill="#7572D5"/>
<path opacity="0.21" d="M135.226 228.136L134.264 224.189C133.618 221.531 132.096 219.168 129.943 217.477C127.79 215.787 125.13 214.869 122.391 214.87H109.16C107.654 214.869 106.169 215.215 104.818 215.88C103.468 216.545 102.29 217.512 101.375 218.706C100.459 219.9 99.8321 221.288 99.5409 222.763C99.2503 224.238 99.3036 225.761 99.6972 227.211L100.79 231.231C101.489 233.815 103.021 236.096 105.149 237.722C107.278 239.348 109.883 240.228 112.563 240.226H125.695C127.179 240.227 128.643 239.891 129.978 239.244C131.313 238.598 132.483 237.656 133.401 236.492C134.319 235.328 134.96 233.971 135.275 232.523C135.592 231.076 135.575 229.576 135.226 228.136ZM120.692 229.101L116.165 231.889C115.991 232 115.795 232.068 115.59 232.09C115.386 232.111 115.18 232.085 114.987 232.013C114.794 231.941 114.621 231.825 114.481 231.676C114.341 231.525 114.237 231.345 114.178 231.148L112.506 225.598C112.435 225.353 112.437 225.092 112.509 224.847C112.581 224.602 112.721 224.382 112.913 224.213C113.105 224.045 113.341 223.934 113.594 223.893C113.846 223.853 114.105 223.885 114.341 223.985L120.551 226.742C120.772 226.843 120.96 227.003 121.097 227.204C121.234 227.404 121.314 227.638 121.328 227.88C121.343 228.121 121.291 228.363 121.179 228.578C121.067 228.793 120.899 228.974 120.692 229.101Z" fill="#7572D5"/>
<path opacity="0.21" d="M132.256 263.633H109.144C108.087 263.631 107.053 263.323 106.167 262.745C105.282 262.168 104.583 261.347 104.156 260.381C103.993 260.02 103.924 259.624 103.956 259.23C103.986 258.836 104.117 258.456 104.335 258.125C104.552 257.795 104.849 257.524 105.199 257.339C105.549 257.153 105.94 257.059 106.336 257.066H130.907C129.757 259.013 130.332 261.717 132.256 263.633Z" fill="#7572D5"/>
<path opacity="0.21" d="M147.198 261.263C147.198 261.891 146.949 262.493 146.505 262.937C146.061 263.381 145.459 263.632 144.83 263.633H132.257C130.333 261.717 129.748 259.013 130.903 257.065H142.002C143.059 257.065 144.093 257.371 144.978 257.947C145.864 258.522 146.562 259.343 146.989 260.307C147.123 260.609 147.194 260.934 147.198 261.263Z" fill="#7572D5"/>
<path opacity="0.21" d="M141.416 263.635C141.355 263.763 141.279 263.883 141.192 263.995C139.54 266.245 135.964 266.454 133.188 264.433C132.857 264.191 132.546 263.924 132.257 263.635C130.333 261.719 129.748 259.014 130.903 257.067C130.969 256.94 131.045 256.82 131.133 256.707C132.77 254.441 136.361 254.248 139.121 256.258C139.457 256.504 139.773 256.774 140.068 257.067C141.976 258.988 142.561 261.672 141.416 263.635Z" fill="rgb(150, 200, 250)"/>
<path opacity="0.21" d="M153.011 275.758C153.006 276.387 152.752 276.989 152.304 277.432C151.857 277.875 151.252 278.123 150.622 278.123H59.0249C60.1959 276.16 59.6104 273.477 57.6865 271.556H147.815C148.874 271.556 149.909 271.864 150.795 272.443C151.681 273.021 152.378 273.845 152.802 274.813C152.937 275.111 153.008 275.432 153.011 275.758Z" fill="#7572D5"/>
<path opacity="0.21" d="M59.0243 278.123H47.6067C46.5512 278.123 45.5181 277.817 44.633 277.242C43.748 276.668 43.0485 275.85 42.6193 274.886C42.4881 274.583 42.417 274.257 42.4102 273.926C42.4102 273.297 42.66 272.695 43.1055 272.25C43.5504 271.806 44.1542 271.556 44.7836 271.556H57.686C59.6098 273.477 60.1954 276.16 59.0243 278.123Z" fill="#7572D5"/>
<path opacity="0.21" d="M59.0247 278.122C58.9709 278.251 58.8988 278.373 58.8104 278.482C57.1741 280.748 53.5825 280.946 50.8222 278.936C50.4871 278.688 50.1708 278.416 49.876 278.122C47.9678 276.206 47.3823 273.517 48.5272 271.554C48.5889 271.427 48.6642 271.305 48.752 271.194C50.404 268.944 53.9799 268.735 56.7559 270.761C57.0847 271.003 57.3957 271.268 57.6864 271.554C59.6103 273.476 60.1958 276.159 59.0247 278.122Z" fill="rgb(150, 200, 250)"/>
<path opacity="0.21" d="M67.1014 292.506H52.5783C51.5228 292.504 50.4909 292.197 49.6058 291.623C48.7212 291.049 48.0212 290.231 47.591 289.269C47.4597 288.971 47.3886 288.65 47.3818 288.324C47.3844 287.693 47.637 287.087 48.0845 286.641C48.532 286.194 49.1384 285.941 49.771 285.938H65.7526C64.6077 287.901 65.1932 290.59 67.1014 292.506Z" fill="#7572D5"/>
<path opacity="0.21" d="M157.988 290.151C157.988 290.462 157.925 290.769 157.806 291.055C157.686 291.342 157.511 291.602 157.291 291.82C157.07 292.039 156.809 292.213 156.521 292.33C156.234 292.447 155.925 292.507 155.615 292.506H67.1016C65.1934 290.59 64.6079 287.901 65.7528 285.938H152.786C153.845 285.938 154.881 286.246 155.766 286.825C156.652 287.404 157.35 288.228 157.774 289.196C157.91 289.497 157.982 289.822 157.988 290.151Z" fill="#7572D5"/>
<path opacity="0.21" d="M76.266 292.503C76.2007 292.63 76.1238 292.751 76.036 292.864C74.3997 295.129 70.8081 295.328 68.0478 293.318C67.7127 293.07 67.3964 292.798 67.1016 292.503C65.1934 290.587 64.6079 287.899 65.7528 285.936C65.8145 285.808 65.8897 285.687 65.9776 285.576C67.6296 283.326 71.2054 283.132 73.9814 285.142C74.3103 285.384 74.6213 285.649 74.912 285.936C76.8358 287.857 77.4214 290.556 76.266 292.503Z" fill="rgb(150, 200, 250)"/>
</g>
</svg>
