<svg width="222" height="132" viewBox="0 0 222 132" fill="none" xmlns="http://www.w3.org/2000/svg">
<path d="M102.053 25.4116C97.764 24.1375 93.1924 24.1593 88.916 25.4735C84.6397 26.7881 80.8509 29.3363 78.0283 32.7962C75.2057 36.2561 73.4764 40.4719 73.0596 44.9109C72.6423 49.3495 73.5553 53.812 75.6842 57.7337C77.8128 61.6554 81.0609 64.8605 85.018 66.943C88.9747 69.0255 93.4628 69.8924 97.9143 69.434C102.366 68.9751 106.581 67.2119 110.027 64.3666C113.472 61.5218 115.993 57.7226 117.271 53.45C118.12 50.6133 118.4 47.6379 118.095 44.6936C117.79 41.7494 116.905 38.8939 115.492 36.2902C114.078 33.6865 112.165 31.3859 109.859 29.5194C107.553 27.6524 104.9 26.2567 102.053 25.4116ZM90.686 63.3994C89.8689 63.1305 89.189 62.5552 88.7905 61.795C88.3925 61.0353 88.3072 60.1504 88.5531 59.3288C88.7991 58.5071 89.3565 57.8135 90.1076 57.3948C90.8586 56.9761 91.7438 56.8655 92.5754 57.0866C93.003 57.2002 93.4032 57.3982 93.7524 57.6684C94.102 57.939 94.3933 58.2766 94.6093 58.6612C94.8252 59.0458 94.9619 59.4701 95.0103 59.908C95.0592 60.3459 95.0189 60.7894 94.8925 61.2119C94.7661 61.6341 94.5557 62.0272 94.2742 62.3674C93.9927 62.7071 93.6457 62.9876 93.2532 63.1916C92.8612 63.3956 92.4319 63.519 91.991 63.5548C91.5497 63.5902 91.1063 63.5377 90.686 63.3994ZM101.954 40.2909C99.8848 44.7769 97.8454 49.5275 95.099 53.6635C94.4392 54.6622 92.3698 54.0476 92.3655 52.8525C92.4006 49.1382 92.6868 45.4308 93.2224 41.7549C93.5566 39.0702 93.2952 34.4689 95.476 32.4031C97.4126 30.5549 101.046 31.3488 102.781 33.1244C104.868 35.2927 102.957 38.0543 101.954 40.2909Z" fill="#7572D5"/>
<path d="M38.8549 75.32C37.2859 76.9108 36.2255 78.9293 35.8082 81.1202C35.3904 83.3111 35.6342 85.5763 36.5091 87.6293C37.3836 89.6824 38.8493 91.4307 40.7216 92.6536C42.5935 93.8764 44.7872 94.5193 47.0258 94.5C49.2645 94.4808 51.447 93.8013 53.2979 92.5464C55.1484 91.2916 56.5841 89.5185 57.423 87.4509C58.2624 85.3834 58.4672 83.1144 58.0121 80.9307C57.5571 78.747 56.462 76.7473 54.866 75.1834C52.7242 73.0868 49.8348 71.9233 46.8322 71.9489C43.8296 71.9745 40.9603 73.1871 38.8549 75.32ZM53.0537 89.2219C52.9016 89.3764 52.7204 89.4993 52.5203 89.5838C52.3202 89.6688 52.1055 89.7131 51.8883 89.7153C51.6711 89.717 51.4556 89.6764 51.2542 89.5953C51.0529 89.5147 50.8695 89.3947 50.7144 89.2432C50.5593 89.0917 50.4359 88.9111 50.3511 88.7118C50.2658 88.5129 50.2212 88.2986 50.2191 88.0822C50.2174 87.8658 50.2581 87.6511 50.3395 87.4505C50.4205 87.2499 50.5408 87.0672 50.6929 86.9127C51.0001 86.6007 51.4196 86.4236 51.8583 86.4193C52.2971 86.4155 52.7191 86.5853 53.0323 86.8914C53.3455 87.1974 53.5233 87.6153 53.5276 88.0524C53.5314 88.4894 53.3609 88.9098 53.0537 89.2219ZM45.4402 78.8542C46.944 80.8176 48.5764 82.828 49.7632 85.0133C50.0503 85.5383 49.2962 86.2938 48.7649 86.0292C47.1287 85.1392 45.5541 84.1413 44.052 83.0414C42.9337 82.2688 40.8343 81.3042 40.4273 79.8572C40.0588 78.5767 41.2842 77.1511 42.4582 76.8139C43.902 76.3956 44.6775 77.8853 45.4402 78.8542Z" fill="#7572D5"/>
<path d="M77.5111 118.614C77.5111 118.614 -29.0119 103.599 10.9824 75.0356C58.9098 54.507 64.7867 49.5522 61.3289 28.1976C57.871 6.84308 96.6791 -6.34834 139.424 8.02057C182.168 22.3895 186.229 37.2525 183.197 58.1865C181.476 70.1198 194.03 72.3872 197.27 72.3872C200.51 72.3872 203.259 70.641 212.104 75.0354C220.949 79.4299 220.179 87.8525 219.795 95.1766C219.41 102.501 215.949 109.458 207.874 116.416C199.798 123.374 183.197 128.135 163.65 125.571C144.104 123.008 144.038 104.698 144.038 104.698" stroke="#7572D5" stroke-width="4" stroke-miterlimit="10"/>
<path d="M68.3828 71.4969C68.3828 69.6908 69.8505 68.2266 71.661 68.2266H138.864C140.675 68.2266 142.142 69.6908 142.142 71.4969V128.729C142.142 130.535 140.675 131.999 138.864 131.999H71.661C69.8505 131.999 68.3828 130.535 68.3828 128.729V71.4969Z" fill="rgb(200, 225, 250)"/>
<path d="M64.2852 95.9506C64.2852 93.6369 66.6275 92.0549 68.7808 92.9141L104.045 106.986C104.827 107.298 105.699 107.298 106.48 106.986L141.744 92.9141C143.898 92.0549 146.24 93.6369 146.24 95.9506V128.73C146.24 130.536 144.772 132 142.962 132H67.5634C65.7529 132 64.2852 130.536 64.2852 128.73V95.9506Z" fill="#7572D5"/>
<mask id="path-6-inside-1_4458_38461" fill="rgb(150, 200, 250)">
<path fill-rule="evenodd" clip-rule="evenodd" d="M145.42 128.73V95.9506C145.42 94.2154 143.664 93.0288 142.049 93.6733L106.784 107.745C105.808 108.135 104.718 108.135 103.741 107.745L68.4765 93.6733C66.8615 93.0288 65.1047 94.2154 65.1047 95.9506V128.73C65.1047 130.084 66.2055 131.182 67.5634 131.182H142.962C144.32 131.182 145.42 130.084 145.42 128.73ZM68.7808 92.9141C66.6275 92.0549 64.2852 93.6369 64.2852 95.9506V128.73C64.2852 130.536 65.7529 132 67.5634 132H142.962C144.772 132 146.24 130.536 146.24 128.73V95.9506C146.24 93.6369 143.898 92.0549 141.744 92.9141L106.48 106.986C105.699 107.298 104.827 107.298 104.045 106.986L68.7808 92.9141Z"/>
</mask>
<path d="M142.049 93.6733L143.902 98.3172V98.3172L142.049 93.6733ZM106.784 107.745L104.931 103.101L106.784 107.745ZM103.741 107.745L105.594 103.101L103.741 107.745ZM68.4765 93.6733L70.3296 89.0293L68.4765 93.6733ZM68.7808 92.9141L66.9277 97.558H66.9277L68.7808 92.9141ZM141.744 92.9141L143.597 97.558V97.558L141.744 92.9141ZM106.48 106.986L104.627 102.342L104.627 102.342L106.48 106.986ZM104.045 106.986L102.192 111.63L102.192 111.63L104.045 106.986ZM140.42 95.9506V128.73H150.42V95.9506H140.42ZM143.902 98.3172C142.25 98.9764 140.42 97.7689 140.42 95.9506H150.42C150.42 90.6618 145.078 87.0812 140.196 89.0293L143.902 98.3172ZM108.638 112.389L143.902 98.3172L140.196 89.0293L104.931 103.101L108.638 112.389ZM101.888 112.389C104.054 113.254 106.471 113.254 108.638 112.389L104.931 103.101C105.144 103.017 105.381 103.017 105.594 103.101L101.888 112.389ZM66.6233 98.3172L101.888 112.389L105.594 103.101L70.3296 89.0293L66.6233 98.3172ZM70.1047 95.9506C70.1047 97.769 68.2753 98.9764 66.6233 98.3172L70.3296 89.0293C65.4476 87.0812 60.1047 90.6618 60.1047 95.9506H70.1047ZM70.1047 128.73V95.9506H60.1047V128.73H70.1047ZM67.5634 126.182C68.9556 126.182 70.1047 127.312 70.1047 128.73H60.1047C60.1047 132.857 63.4553 136.182 67.5634 136.182V126.182ZM142.962 126.182H67.5634V136.182H142.962V126.182ZM140.42 128.73C140.42 127.312 141.57 126.182 142.962 126.182V136.182C147.07 136.182 150.42 132.857 150.42 128.73H140.42ZM69.2852 95.9506C69.2852 97.1905 68.0414 98.0025 66.9277 97.558L70.634 88.2702C65.2136 86.1073 59.2852 90.0833 59.2852 95.9506H69.2852ZM69.2852 128.73V95.9506H59.2852V128.73H69.2852ZM67.5634 127C68.503 127 69.2852 127.763 69.2852 128.73H59.2852C59.2852 133.308 63.0027 137 67.5634 137V127ZM142.962 127H67.5634V137H142.962V127ZM141.24 128.73C141.24 127.763 142.022 127 142.962 127V137C147.523 137 151.24 133.308 151.24 128.73H141.24ZM141.24 95.9506V128.73H151.24V95.9506H141.24ZM143.597 97.558C142.484 98.0025 141.24 97.1905 141.24 95.9506H151.24C151.24 90.0833 145.312 86.1073 139.891 88.2702L143.597 97.558ZM108.333 111.63L143.597 97.558L139.891 88.2702L104.627 102.342L108.333 111.63ZM102.192 111.63C104.163 112.417 106.362 112.417 108.333 111.63L104.627 102.342C105.035 102.179 105.49 102.179 105.898 102.342L102.192 111.63ZM66.9277 97.558L102.192 111.63L105.898 102.342L70.634 88.2702L66.9277 97.558Z" fill="rgb(150, 200, 250)" mask="url(#path-6-inside-1_4458_38461)"/>
<path d="M88.0508 76.4021H135.585V78.0373H88.0508V76.4021Z" fill="rgb(150, 200, 250)"/>
<path d="M74.9375 82.9431H135.584V84.5783H74.9375V82.9431Z" fill="rgb(150, 200, 250)"/>
<path d="M74.9375 89.4844H135.584V91.1196H74.9375V89.4844Z" fill="rgb(150, 200, 250)"/>
</svg>
