<svg width="200" height="100" viewBox="0 0 250 200" fill="none" xmlns="http://www.w3.org/2000/svg">
<path d="M231.557 155.984H154.723H160.046L208.641 155.415C217.625 154.625 223.955 145.713 220.542 137.275C219.952 135.817 220.569 135.411 219.839 134.006C212.2 119.457 198.954 107.605 183.945 100.72C184.317 100.65 184.691 100.598 185.073 100.546C182.278 99.1304 179.4 97.8902 176.453 96.8326C174.891 96.2686 173.31 95.7591 171.731 95.3123C163.971 93.1 153.484 94.1108 150.181 102.802C147.404 110.098 151.092 118.912 158.028 122.108L170.487 126.925C170.382 126.767 170.287 126.609 170.19 126.442L181.025 130.63C181.24 130.782 181.404 130.997 181.494 131.246C181.585 131.496 181.599 131.767 181.533 132.024C181.467 132.281 181.325 132.511 181.125 132.684C180.926 132.857 180.68 132.965 180.419 132.992L154.106 135.899C150.313 136.286 145.564 137.891 142.768 140.531C140.729 142.438 139.01 145.034 139.026 148.32C137.307 148.451 135.597 148.694 133.908 149.048C131.33 149.609 128.707 150.576 128.521 152.164C128.154 155.352 132.634 156 135.457 156L117.592 155.93C119.51 155.93 119.747 155.913 121.019 154.633C122.29 153.352 123.712 152.366 123.712 150.426L123.869 144.209C123.869 142.928 124.17 141.893 122.904 141.893H111.591C112.051 141.906 112.506 141.784 112.9 141.542C113.294 141.301 113.611 140.95 113.813 140.531C113.822 140.521 113.827 140.509 113.829 140.495C114.395 139.433 114.524 137.904 114.419 136.458L114.551 135.984L114.89 134.719L122.077 130.442C122.131 130.41 122.183 130.376 122.234 130.338C125.983 128.02 126.452 123.876 125.167 120.171C125.14 120.1 125.124 120.037 125.097 119.977C125.038 119.819 124.984 119.669 124.917 119.519C124.573 118.675 124.149 117.866 123.648 117.106C121.792 114.174 119.098 111.785 116.539 111.161C115.821 110.997 115.088 110.914 114.352 110.916C123.257 102.47 133.518 94.9636 145.637 92.4679C156.241 90.2524 167.207 90.5415 177.682 93.3125C189.922 96.6064 200.945 103.445 209.686 112.681C221.453 125.096 226.956 139.602 231.557 155.984Z" fill="#7572D5"/>
<path d="M111.846 118.656C111.424 119.497 110.733 120.169 109.885 120.563C109.162 120.931 108.395 121.206 107.604 121.38C106.3 121.601 105.839 120.767 105.007 119.95C104.532 119.486 103.987 119.103 103.391 118.816C103.034 118.639 102.642 118.544 102.245 118.538C101.847 118.532 101.453 118.615 101.09 118.781C100.845 118.892 100.637 119.072 100.49 119.299C100.344 119.527 100.266 119.793 100.266 120.064C100.32 121.064 101.683 121.854 102.453 122.268C103.459 122.749 104.505 123.139 105.578 123.435C108.21 124.252 103.827 125.955 102.906 126.061C100.935 126.331 98.9353 126.283 96.9797 125.919C97.541 127.188 97.9718 128.512 98.2646 129.87C98.569 131.169 98.9245 132.733 98.674 134.041C98.3696 135.578 97.3433 136.719 96.0772 137.493L91.1558 116.727C92.9705 115.853 94.9443 115.367 96.9533 115.3C98.9623 115.234 100.963 115.588 102.83 116.34C103.453 116.572 104.129 116.619 104.777 116.474C105.425 116.329 106.018 115.999 106.486 115.523L106.99 115.029C107.691 114.875 108.422 114.934 109.091 115.198C110.284 115.653 112.493 117.116 111.846 118.656Z" fill="#7572D5"/>
<path d="M116.9 141.877H96.5785C96.3729 143.816 95.466 145.609 94.0318 146.913C92.5976 148.216 90.7376 148.936 88.8097 148.936H20.4907C20.495 150.805 21.231 152.596 22.5374 153.917C23.8439 155.238 25.6145 155.983 27.4622 155.987H116.895C118.742 155.981 120.513 155.236 121.82 153.915C123.128 152.595 123.866 150.805 123.874 148.936V144.195C123.874 143.581 123.633 142.991 123.203 142.556C122.773 142.121 122.19 141.877 121.582 141.877H116.9Z" stroke="#212121" stroke-width="2" stroke-miterlimit="10"/>
<path d="M85.5179 95.7823C86.1183 96.6187 86.5493 97.5668 86.7866 98.5721L96.4141 139.167C96.6269 140.048 96.6824 140.961 96.5784 141.862C96.3729 143.801 95.4659 145.594 94.0318 146.897C92.5976 148.2 90.7376 148.921 88.8096 148.921H19.2219C17.4651 148.92 15.7594 148.321 14.3801 147.22C13.0006 146.119 12.0275 144.581 11.6175 142.853L2.00078 102.258C1.72303 101.096 1.70999 99.884 1.96266 98.7152C2.21531 97.5466 2.7271 96.4511 3.45939 95.5117C4.19169 94.572 5.12537 93.813 6.19 93.2918C7.25462 92.7703 8.42239 92.5003 9.60524 92.502H79.1822C80.3251 92.5003 81.4544 92.7537 82.4893 93.2438C83.5245 93.734 84.4398 94.4492 85.1704 95.3382L85.5179 95.7823Z" stroke="#212121" stroke-width="2" stroke-miterlimit="10"/>
<path d="M51.7578 131.843C55.7206 130.579 57.7948 125.903 56.3906 121.398C54.9863 116.894 50.6354 114.266 46.6723 115.53C42.7095 116.794 40.6353 121.47 42.0396 125.975C43.4438 130.479 47.7948 133.106 51.7578 131.843Z" fill="#7572D5"/>
<path d="M185.453 100.306C179.314 101.344 174.595 104.183 171.427 110.06C168.59 115.318 168.259 121.734 171.284 126.952L158.933 122.162C151.781 118.849 149.265 111.487 152.132 103.927C155.539 94.9197 166.352 93.8735 174.355 96.1675C175.985 96.6306 177.612 97.1592 179.223 97.7422C181.327 98.5051 183.404 99.3598 185.453 100.306Z" fill="#7572D5"/>
<path d="M41.6151 92.5083C46.515 86.1044 53.2718 81.4101 60.9401 79.082C59.9186 76.3071 59.1083 73.457 58.5157 70.5571C52.1531 39.2581 72.0518 8.65929 102.99 2.20497C133.927 -4.24936 164.192 15.8683 170.57 47.1591C171.283 50.6656 171.68 54.2303 171.756 57.8092C173.966 57.0161 176.228 56.3788 178.525 55.902C205.562 50.2487 232.015 67.8435 237.596 95.1947C239.172 102.885 238.951 110.841 236.953 118.43C234.955 126.019 231.234 133.032 226.086 138.912" stroke="#7572D5" stroke-width="2" stroke-miterlimit="10"/>
<path d="M109.053 141.876H110.963C111.512 141.89 112.057 141.773 112.554 141.537C113.051 141.301 113.486 140.95 113.826 140.514C113.835 140.504 113.842 140.492 113.845 140.478C114.53 139.531 114.842 138.36 114.721 137.193L114.564 135.964L114.435 134.972L114.904 134.7L122.247 130.319L122.743 130.03C126.328 127.897 126.587 123.919 125.18 120.151C125.156 120.083 125.137 120.02 125.113 119.958C125.051 119.8 124.989 119.652 124.93 119.503C124.57 118.666 124.146 117.859 123.661 117.089C121.805 114.154 119.114 111.768 116.552 111.144C115.835 110.978 115.101 110.896 114.365 110.899C112.83 110.899 111.133 111.196 110.241 112.092C119.766 102.613 130.894 93.7179 144.279 90.958C154.887 88.7463 165.857 89.0408 176.335 91.819C188.575 95.1129 199.609 101.96 208.35 111.196C208.811 111.681 209.261 112.171 209.697 112.672C220.652 124.851 227.64 140.233 232.055 155.975" stroke="#212121" stroke-width="2" stroke-miterlimit="10"/>
<path d="M112.412 155.984H244.218" stroke="#212121" stroke-width="2" stroke-miterlimit="10"/>
<path d="M145.594 155.982H160.55" stroke="#212121" stroke-width="2" stroke-miterlimit="10"/>
<path d="M158.096 122.035C151.157 118.839 147.471 110.025 150.246 102.732C153.554 94.0377 164.041 93.0269 171.796 95.2392C173.38 95.688 174.954 96.1947 176.518 96.7595C193.955 103.026 209.8 116.035 218.452 132.518C219.182 133.913 219.764 135.347 220.354 136.807C221.149 138.769 221.477 140.892 221.311 143.006C221.145 145.12 220.49 147.164 219.399 148.975C218.308 150.785 216.811 152.311 215.029 153.428C213.247 154.545 211.231 155.223 209.142 155.407L160.55 155.982H145.594C144.273 155.982 142.984 155.564 141.91 154.786C140.836 154.008 140.029 152.91 139.603 151.644C137.963 146.74 140.083 143.04 142.763 140.52C145.559 137.894 149.206 136.393 152.999 136.006L180.298 133.216C180.559 133.189 180.806 133.082 181.005 132.909C181.205 132.736 181.348 132.505 181.414 132.248C181.48 131.991 181.468 131.719 181.377 131.47C181.287 131.22 181.124 131.004 180.909 130.851L158.096 122.035Z" stroke="#212121" stroke-width="2" stroke-miterlimit="10"/>
<path d="M149.958 141.361C147.466 142.811 144.904 145.08 144.048 147.955C143.062 151.265 145.376 154.273 148.005 155.995" stroke="#212121" stroke-width="2" stroke-miterlimit="10"/>
<path d="M152.63 145.16C150.306 147.397 148.291 150.233 149.635 153.606C150.019 154.532 150.618 155.35 151.38 155.993" stroke="#212121" stroke-width="2" stroke-miterlimit="10"/>
<path d="M157.19 149.537C157.19 149.537 151.838 153.561 155.237 155.975" stroke="#212121" stroke-width="2" stroke-miterlimit="10"/>
<path d="M143.453 155.599L143.547 155.986H134.911C132.088 155.986 128.176 155.547 128.545 152.36C128.914 149.172 139.024 148.303 139.024 148.303" stroke="#212121" stroke-width="2" stroke-miterlimit="10"/>
<path d="M127.961 55.3606L109.581 58.1424L112.784 60.4255L118.775 65.2778C119.713 65.9453 119.478 67.5201 119.998 68.4764C120.196 69.9198 119.971 71.3899 119.353 72.7062C118.735 74.0221 117.749 75.1266 116.518 75.8834C115.287 76.6406 113.864 77.0168 112.424 76.9662C110.985 76.9152 109.591 76.4398 108.415 75.5982L93.9631 65.316C92.3678 64.2019 91.0875 62.6863 90.2484 60.9186C89.0658 54.9656 92.6943 48.3451 99.6765 47.2962L119.767 44.2447L116.803 41.918L107.68 34.7362C106.898 34.1243 106.246 33.3598 105.762 32.4885C105.559 31.0135 105.796 29.5107 106.443 28.1727C107.091 26.8349 108.118 25.7231 109.394 24.9798C110.67 24.2366 112.137 23.8957 113.606 24.0012C115.075 24.1063 116.479 24.6531 117.638 25.571L133.914 38.3762C135.245 39.4101 136.321 40.7416 137.058 42.2667C138.168 48.0209 134.617 54.3499 127.961 55.3606Z" fill="#7572D5"/>
<path d="M114.438 134.972C114.438 134.972 113.878 129.986 111.979 128.229" stroke="#212121" stroke-width="2" stroke-miterlimit="10"/>
<path d="M90.9674 117.073C92.8013 116.162 94.8036 115.65 96.8452 115.57C98.8868 115.49 100.922 115.844 102.82 116.61C103.444 116.842 104.12 116.889 104.769 116.744C105.418 116.599 106.012 116.269 106.481 115.792L110.233 112.076" stroke="#212121" stroke-width="2" stroke-miterlimit="10"/>
<path d="M102.895 138.255L106.028 139.68C106.098 139.709 106.173 139.723 106.248 139.721C106.323 139.719 106.398 139.701 106.466 139.668C106.534 139.635 106.594 139.588 106.643 139.53C106.692 139.472 106.728 139.404 106.75 139.331L107.243 138.203" stroke="#212121" stroke-width="2" stroke-miterlimit="10"/>
<path d="M103.407 131.963C103.67 132.573 103.761 133.243 103.67 133.902C103.58 134.561 103.312 135.181 102.895 135.695" stroke="#7572D5" stroke-width="2" stroke-miterlimit="10"/>
<path d="M110.513 141.876C111.006 141.138 111.003 139.353 110.877 138.636C110.796 138.181 110.039 138.018 109.958 138.476C109.737 139.753 108.312 141.718 106.995 141.876" stroke="#212121" stroke-width="2" stroke-miterlimit="10"/>
<path d="M104.188 137.059C106.409 137.059 108.21 135.238 108.21 132.991C108.21 130.745 106.409 128.924 104.188 128.924C101.967 128.924 100.166 130.745 100.166 132.991C100.166 135.238 101.967 137.059 104.188 137.059Z" stroke="#212121" stroke-width="2" stroke-miterlimit="10"/>
<path d="M102.841 136.822L102.125 138.86C101.627 138.681 101.1 138.602 100.572 138.629C100.045 138.656 99.5275 138.788 99.0504 139.017C98.5733 139.247 98.1456 139.569 97.7916 139.966C97.4377 140.362 97.1645 140.825 96.9878 141.329" stroke="#212121" stroke-width="2" stroke-miterlimit="10"/>
<path d="M96.0614 137.761C97.3275 136.987 98.3511 135.854 98.6555 134.312C98.9087 133.001 98.5531 131.44 98.2487 130.141C97.9562 128.782 97.5257 127.459 96.9638 126.19C98.9195 126.553 100.92 126.6 102.89 126.329C103.809 126.225 108.194 124.531 105.562 123.705C104.489 123.411 103.444 123.02 102.44 122.537C101.664 122.131 100.304 121.34 100.256 120.338C100.252 120.067 100.327 119.801 100.47 119.572C100.614 119.343 100.82 119.162 101.064 119.049C101.426 118.884 101.821 118.802 102.219 118.809C102.616 118.816 103.008 118.912 103.364 119.09C103.962 119.374 104.508 119.757 104.98 120.223C105.815 121.041 106.271 121.858 107.58 121.648C108.37 121.476 109.135 121.201 109.856 120.831C110.705 120.438 111.399 119.766 111.823 118.924C112.474 117.39 110.26 115.927 109.059 115.488C108.391 115.223 107.662 115.162 106.96 115.314" stroke="#212121" stroke-width="2" stroke-miterlimit="10"/>
<path d="M127.961 55.3638L109.581 58.1456L112.784 60.4287L116.927 63.3711C117.74 63.9283 118.436 64.6437 118.973 65.4755C119.51 66.3073 119.877 67.2391 120.054 68.2161C120.231 69.1934 120.214 70.1963 120.003 71.1667C119.793 72.1369 119.393 73.0551 118.828 73.8675C118.263 74.68 117.543 75.3704 116.711 75.8984C115.879 76.4264 114.952 76.7814 113.982 76.9429C113.013 77.1042 112.022 77.0688 111.067 76.8386C110.111 76.6081 109.211 76.1877 108.418 75.6014L93.9656 65.3192C92.3704 64.2051 91.09 62.6895 90.2509 60.9218C87.1773 54.4675 90.7708 45.8717 98.8009 44.6593L114.74 42.2454L116.803 41.9212L107.68 34.7394C106.913 34.1365 106.272 33.3867 105.793 32.5331C105.313 31.6795 105.005 30.7385 104.884 29.7642C104.765 28.7902 104.835 27.8015 105.093 26.8547C105.351 25.9083 105.79 25.0222 106.386 24.2474C106.983 23.4728 107.724 22.8244 108.568 22.3392C109.412 21.8542 110.342 21.542 111.306 21.4207C112.269 21.2992 113.246 21.3709 114.182 21.6316C115.118 21.8921 115.994 22.3367 116.76 22.9396L133.036 35.7448C135.119 37.3473 136.547 39.6689 137.047 42.2672C138.167 48.0241 134.617 54.3531 127.961 55.3638Z" stroke="#212121" stroke-width="2" stroke-miterlimit="10"/>
<path d="M87.6187 86.9644L87.4409 82.2156L85.3587 84.3734C85.0055 84.7385 84.5233 84.9469 84.0185 84.9532C83.5135 84.9592 83.0267 84.7624 82.6649 84.4061C82.3039 84.0489 82.0979 83.5612 82.0917 83.0507C82.0858 82.5398 82.2802 82.0475 82.6326 81.6816L86.3634 77.8292C86.7478 77.4311 87.2394 77.1559 87.7769 77.0377C88.3145 76.9195 88.8746 76.963 89.3877 77.1636C89.9009 77.3638 90.3448 77.712 90.6643 78.1651C90.9838 78.6179 91.1648 79.1557 91.1853 79.7118L91.3603 84.5559L92.8958 82.8041C93.0617 82.6139 93.2632 82.4589 93.4887 82.348C93.7139 82.2368 93.9587 82.1717 94.209 82.1565C94.4592 82.1412 94.71 82.1764 94.9471 82.2594C95.1839 82.3425 95.4023 82.472 95.5895 82.6406C95.7773 82.8084 95.9306 83.0122 96.0405 83.24C96.1504 83.4678 96.2148 83.7154 96.2301 83.9685C96.2452 84.2214 96.211 84.475 96.1294 84.7148C96.0477 84.9543 95.9201 85.1755 95.7539 85.3651L92.7288 88.817C92.3428 89.2625 91.8334 89.5802 91.2663 89.7287C90.6996 89.8774 90.1016 89.8499 89.5501 89.6499C88.999 89.4502 88.5201 89.087 88.1755 88.6081C87.831 88.1291 87.637 87.5564 87.6187 86.9644Z" fill="#7572D5"/>
<path d="M103.227 95.5301L105.444 95.0288L104.245 94.2114C104.042 94.0728 103.901 93.8586 103.854 93.6159C103.806 93.3728 103.856 93.1206 103.992 92.9146C104.129 92.7089 104.341 92.5666 104.581 92.5192C104.821 92.4718 105.071 92.5228 105.274 92.6612L107.413 94.1079C107.634 94.2575 107.808 94.4697 107.911 94.7182C108.015 94.9667 108.044 95.2405 107.995 95.5053C107.945 95.7704 107.821 96.0148 107.635 96.2088C107.45 96.4025 107.212 96.5368 106.952 96.5954L104.681 97.113L105.643 97.6988C105.747 97.762 105.837 97.8454 105.909 97.9437C105.981 98.0423 106.033 98.1543 106.062 98.2734C106.091 98.3925 106.096 98.5159 106.078 98.6371C106.06 98.7581 106.018 98.8744 105.955 98.9793C105.829 99.191 105.625 99.3436 105.388 99.4032C105.15 99.4629 104.899 99.425 104.689 99.2981L102.804 98.1456C102.561 97.999 102.368 97.7819 102.249 97.5228C102.13 97.2637 102.09 96.9743 102.136 96.6924C102.181 96.4104 102.31 96.1486 102.504 95.9415C102.699 95.7342 102.951 95.5908 103.227 95.5301Z" fill="#7572D5"/>
<path d="M97.621 108.627L97.8015 107.128L97.0392 107.7C96.9753 107.748 96.9029 107.783 96.8256 107.803C96.7482 107.823 96.668 107.827 96.5893 107.815C96.5104 107.804 96.4347 107.777 96.3663 107.735C96.2978 107.694 96.2383 107.639 96.1906 107.575C96.0953 107.444 96.0546 107.281 96.0778 107.12C96.1009 106.959 96.1861 106.814 96.3146 106.717L97.6614 105.695C97.8018 105.589 97.9696 105.527 98.1444 105.517C98.319 105.507 98.493 105.549 98.6444 105.638C98.7958 105.726 98.9181 105.858 98.9962 106.016C99.0743 106.175 99.1047 106.353 99.0837 106.529L98.9006 108.06L99.4689 107.586C99.5304 107.535 99.6015 107.496 99.6777 107.472C99.7539 107.449 99.8339 107.441 99.9131 107.449C99.9926 107.457 100.07 107.48 100.14 107.518C100.21 107.556 100.272 107.608 100.323 107.67C100.374 107.732 100.411 107.804 100.435 107.881C100.458 107.958 100.466 108.039 100.458 108.12C100.451 108.2 100.427 108.278 100.39 108.349C100.352 108.42 100.301 108.483 100.239 108.534L99.1187 109.466C98.9754 109.581 98.8014 109.651 98.6188 109.666C98.4361 109.682 98.253 109.642 98.0927 109.552C97.9324 109.462 97.802 109.326 97.718 109.162C97.6342 108.997 97.6003 108.811 97.621 108.627Z" fill="#7572D5"/>
<path d="M185.454 100.498L185.34 100.692C185.254 100.638 185.165 100.59 185.071 100.55L185.454 100.498Z" fill="#7572D5"/>
</svg>
