<svg width="112" height="112" viewBox="0 0 112 112" fill="none" xmlns="http://www.w3.org/2000/svg">

<!-- skills -->

    <g id="vscode">
        <path d="M101.535 17.605L81.354 7.88899C80.2143 7.33948 78.9319 7.15814 77.6845 7.37011C76.4372 7.58208 75.2867 8.17686 74.3925 9.07199L8.32998 69.3C7.52845 70.0273 7.04865 71.0432 6.99614 72.1243C6.94363 73.2053 7.32271 74.2629 8.04998 75.0645C8.13748 75.159 8.22498 75.25 8.31948 75.334L13.713 80.234C14.4178 80.8754 15.3249 81.2497 16.277 81.2919C17.229 81.3341 18.1657 81.0416 18.9245 80.465L98.497 20.125C99.098 19.6689 99.8144 19.3897 100.566 19.3186C101.317 19.2476 102.073 19.3877 102.749 19.7231C103.424 20.0585 103.993 20.5758 104.391 21.217C104.789 21.8581 105 22.5975 105 23.352V23.1175C105 21.9656 104.675 20.8372 104.062 19.862C103.449 18.8868 102.573 18.1045 101.535 17.605Z" fill="#0065A9"/>
        <path d="M101.535 94.395L81.354 104.115C80.214 104.662 78.9319 104.843 77.6849 104.631C76.4379 104.419 75.2875 103.825 74.3925 102.932L8.32998 42.7C7.52845 41.9727 7.04865 40.9568 6.99614 39.8758C6.94363 38.7947 7.32271 37.7371 8.04998 36.9355C8.13748 36.841 8.22498 36.75 8.31948 36.666L13.713 31.766C14.4185 31.1219 15.3277 30.7459 16.2821 30.7037C17.2365 30.6615 18.1754 30.9557 18.935 31.535L98.497 91.875C99.098 92.3311 99.8144 92.6104 100.566 92.6814C101.317 92.7524 102.073 92.6123 102.749 92.2769C103.424 91.9415 103.993 91.4242 104.391 90.783C104.789 90.1419 105 89.4025 105 88.648V88.9C104.996 90.0488 104.669 91.1733 104.057 92.1451C103.444 93.1168 102.57 93.8965 101.535 94.395Z" fill="#007ACC"/>
        <path d="M81.354 104.114C80.214 104.662 78.9319 104.843 77.6849 104.631C76.4379 104.419 75.2875 103.825 74.3925 102.931C74.8951 103.428 75.5329 103.764 76.2261 103.899C76.9192 104.034 77.6368 103.962 78.289 103.691C78.9411 103.42 79.4988 102.963 79.8921 102.376C80.2854 101.79 80.4969 101.1 80.5 100.394V11.606C80.5006 10.8965 80.2906 10.2028 79.8966 9.61274C79.5026 9.02271 78.9423 8.56288 78.2868 8.29152C77.6312 8.02016 76.9099 7.94946 76.2141 8.0884C75.5184 8.22734 74.8795 8.56965 74.3785 9.07197C75.2728 8.17717 76.4231 7.58235 77.6702 7.3698C78.9174 7.15724 80.1997 7.33744 81.34 7.88547L101.517 17.5875C102.559 18.0845 103.438 18.8657 104.054 19.8411C104.67 20.8165 104.998 21.9463 105 23.1V88.9C105 90.0528 104.675 91.1822 104.061 92.1581C103.447 93.134 102.571 93.9167 101.531 94.416L81.354 104.114Z" fill="#1F9CF0"/>
    </g>

    <g id="js1">
        <path transform="scale(1.1) translate(-5, -5)" d="M8.11639 7.5H113.116V112.5H8.11639V7.5Z" fill="#F5DE19"/>
        <path transform="scale(1.1) translate(-5, -5)" d="M78.6501 89.5312C79.5448 91.3485 80.9347 92.8759 82.6598 93.9375C84.3848 94.9991 86.3747 95.5515 88.4001 95.5313C92.4876 95.5313 95.1014 93.4875 95.1014 90.6562C95.1014 87.2812 92.4164 86.0738 87.9164 84.105L85.4489 83.0475C78.3239 80.0138 73.5989 76.215 73.5989 68.1825C73.5989 60.7838 79.2239 55.1475 88.0476 55.1475C90.904 54.9412 93.7579 55.5805 96.2534 56.9856C98.7488 58.3907 100.775 60.4994 102.08 63.0488L94.3664 67.98C93.864 66.716 92.9892 65.6345 91.858 64.879C90.7268 64.1236 89.3927 63.7298 88.0326 63.75C87.4392 63.6906 86.84 63.7555 86.273 63.9404C85.7061 64.1254 85.1839 64.4265 84.7397 64.8244C84.2956 65.2224 83.9392 65.7085 83.6932 66.2518C83.4473 66.7951 83.3173 67.3837 83.3114 67.98C83.3114 70.9388 85.1451 72.1388 89.3789 73.98L91.8464 75.0375C100.231 78.6338 104.971 82.2975 104.971 90.5363C104.971 99.42 97.9926 104.287 88.6214 104.287C84.97 104.52 81.3293 103.691 78.1387 101.901C74.948 100.11 72.3438 97.4342 70.6401 94.1963L78.6501 89.5312ZM43.7939 90.3863C45.3426 93.135 46.7526 95.46 50.1426 95.46C53.3826 95.46 55.4301 94.1925 55.4301 89.2612V55.71H65.2964V89.3925C65.2964 99.6075 59.2964 104.257 50.5626 104.257C47.4755 104.426 44.4095 103.657 41.7677 102.051C39.126 100.444 37.0321 98.0761 35.7614 95.2575L43.7939 90.3863Z" fill="black"/>
    </g>

    <g id="css">
        <path d="M22.3653 101.154L13.9428 7.4375H106.523L98.089 101.139L60.1765 111.562L22.3653 101.154Z" fill="#1572B6"/>
        <path d="M60.2328 103.597L90.8703 95.174L98.0778 15.1019H60.2328V103.597Z" fill="#33A9DC"/>
        <path d="M60.2328 49.054H75.5703L76.6278 37.2842H60.2328V25.7896H89.2953L89.0178 28.8724L86.1715 60.5487H60.2328V49.054Z" fill="white"/>
        <path d="M60.304 78.9045L60.2515 78.9193L47.344 75.4609L46.519 66.2942H34.8828L36.5065 84.3413L60.2478 90.8788L60.304 90.864V78.9045Z" fill="#EBEBEB"/>
        <path d="M74.584 60.0615L73.189 75.4534L60.2628 78.9119V90.8714L84.0228 84.3412L84.199 82.4001L86.2128 60.0615H74.584Z" fill="white"/>
        <path d="M60.274 25.7896V37.2842H32.2765L32.044 34.6997L31.5153 28.8724L31.2378 25.7896H60.274ZM60.2328 49.054V60.5487H47.4865L47.254 57.9642L46.729 52.1369L46.4515 49.054H60.2328Z" fill="#EBEBEB"/>
    </g>
<!--  -->
    <g id="html">
        <path d="M22.9817 102.004L14.5554 7.5H107.143L98.7054 101.989L60.7929 112.5L22.9817 102.004Z" fill="#E44F26"/>
        <path d="M60.8492 104.468L91.4867 95.9738L98.6942 15.2288H60.8492V104.468Z" fill="#F1662A"/>
        <path d="M60.8492 50.2762H45.5117L44.4542 38.4075H60.8492V26.8162H31.7867L32.0642 29.9287L34.9104 61.8675H60.8492V50.2762ZM60.8492 80.3775L60.7967 80.3925L47.8892 76.9087L47.0642 67.665H35.4279L37.0517 85.86L60.7967 92.4525L60.8492 92.4375V80.3775Z" fill="#EBEBEB"/>
        <path d="M60.8079 50.2762V61.8675H75.0804L73.7379 76.9012L60.8079 80.3887V92.4487L84.5717 85.86L84.7442 83.9025L87.4667 53.3887L87.7517 50.2762H60.8079ZM60.8079 26.8162V38.4075H88.8054L89.0379 35.805L89.5667 29.9287L89.8442 26.8162H60.8079Z" fill="white"/>
    </g>  
<!--  -->
    <g id="greensock">
        <path d="M67.8306 119.745C66.2668 119.471 64.6468 118.729 63.7281 117.908C63.1044 117.253 62.7485 116.389 62.7306 115.485C62.7306 114.566 63.1993 113.276 63.9418 111.99C64.3918 111.266 64.7443 110.486 64.9956 109.665C65.1531 109.099 65.4831 108.18 65.7381 107.595L66.1881 106.523L66.3043 99.3563C66.3643 95.3925 66.4806 91.7213 66.5781 91.1513C66.8331 89.5088 67.2606 87.9075 67.8268 86.3475L68.2581 85.3125L67.6318 84.9413C67.0656 84.5888 66.5968 84.1013 64.7406 81.8925C62.4568 79.1963 59.4493 77.7113 55.1893 77.205C53.8018 77.07 52.3956 76.9688 50.9893 76.9125C44.7381 76.62 41.1643 75.3113 37.9431 72.1463C35.5393 69.7838 34.2906 67.0275 33.7843 62.9663C33.1018 57.4763 32.3406 54.6638 30.9343 52.38C30.5877 51.816 30.1885 51.2861 29.7418 50.7975L29.1756 50.2313L27.9268 51.0338C27.2443 51.4838 26.2843 52.05 25.8156 52.305C24.2518 53.1638 22.7668 54.12 21.3418 55.155C17.8468 57.6938 14.0368 60.8775 11.9481 62.9663C11.0106 63.9038 10.5231 64.3125 10.3056 64.275C8.88058 64.0613 9.97183 57.8888 12.2968 53.2388C15.2668 47.2425 20.2656 41.715 26.0481 37.9838C30.7956 34.9163 38.4718 30.6975 42.0231 29.2125C48.3306 26.5763 56.4943 23.7225 62.0818 22.2C63.2556 21.8663 63.9756 21.5738 64.4631 21.2438C65.5581 20.4825 66.6306 20.1113 67.8606 20.0925C68.8956 20.0738 68.9931 20.055 69.9906 19.3875C71.1643 18.6263 71.5131 18.585 72.6868 18.9975L73.4481 19.2713L74.3856 18.6263L75.3231 18L76.6693 18.0188C77.7043 18.0375 78.1731 18 78.6231 17.805C79.1893 17.55 79.2081 17.5125 79.3656 16.575C79.7181 14.5425 79.7556 13.5263 79.5418 12.2963C79.2681 10.6763 79.2306 4.3875 79.5043 3.15375C79.7968 1.82625 79.9918 1.5525 80.9893 1.065C82.4743 0.341252 83.5881 0.127502 86.1456 0.127502C89.2693 0.127502 90.8518 0.558753 92.0256 1.69125C93.0793 2.7075 93.2556 5.08875 92.7081 10.6763C92.3743 13.8975 92.3368 14.7975 92.4343 16.905C92.4718 18.2513 92.5693 19.5225 92.6106 19.6988C92.6893 20.0325 92.7681 20.0513 93.9006 20.07C95.0143 20.0888 95.2093 20.1488 96.2631 20.6963C97.2793 21.225 98.0406 21.87 98.1981 22.3388C98.2168 22.4363 98.3931 22.4363 98.7043 22.3388C99.3081 22.1625 99.8368 22.3575 100.268 22.8863C100.523 23.22 100.677 23.2763 101.266 23.2763C102.068 23.2763 102.361 23.4713 103.024 24.45C103.335 24.8893 103.76 25.2344 104.254 25.4475C105.349 25.995 106.834 27.5175 107.401 28.7288C108.278 30.525 108.454 32.6138 107.907 34.4888C107.712 35.1938 107.712 35.2125 108.121 35.895C108.979 37.3613 109.294 39.1575 108.942 40.68L108.747 41.58L109.332 42.165C112.242 45.075 111.811 49.8225 108.259 54.06C107.862 54.544 107.527 55.0756 107.262 55.6425C106.579 57.4575 105.796 58.7288 104.783 59.7825L103.748 60.8363H102.694C101.641 60.8363 100.156 60.4838 99.2556 60.015C98.8843 59.82 98.8656 59.82 98.9443 60.0525C99.1806 60.9113 99.7656 64.4063 99.9606 66.3413C100.272 69.3113 100.174 73.6275 99.7656 75.4838C99.4669 76.8586 98.9664 78.1816 98.2806 79.41C97.8906 80.0363 97.8718 80.1713 97.9468 80.9325C98.0631 82.005 97.8118 83.805 97.3806 84.9938C96.8518 86.3813 96.6568 87.0263 96.5406 87.7275C96.4431 88.3313 96.4431 88.3313 96.8743 88.3313C97.4406 88.3313 97.7518 88.665 97.7518 89.3288C97.7518 89.6213 97.4968 91.2038 97.1856 92.8238C96.3268 97.3763 96.2668 97.8825 96.2668 102.296C96.2481 106.849 96.2481 106.808 97.2831 107.49L99.6081 108.994C101.608 110.321 103.75 111.422 105.994 112.275C109.257 113.565 109.707 113.895 109.707 114.99C109.707 115.478 109.609 115.654 109.201 116.044C107.952 117.255 105.488 117.529 100.527 117C97.9488 116.758 95.3611 116.635 92.7718 116.629C85.9356 116.531 84.9381 116.295 84.0418 114.596C83.5356 113.621 83.6331 112.35 84.3343 110.261C84.6456 109.343 84.9193 108.405 85.1556 107.449C85.6243 105.184 85.3131 102.488 84.2181 99.4425L83.2806 96.8438C82.3618 94.2075 81.8556 89.3813 82.4031 88.29C82.5006 88.0763 82.6768 88.035 83.1456 88.0538L83.7306 88.1138L84.2181 87.0975C84.5893 86.295 84.9981 85.77 86.1118 84.6563L87.5368 83.2313L87.4581 82.3125C87.3981 81.435 86.2468 77.175 86.0893 77.1938C86.0293 77.1938 85.7181 77.625 85.3656 78.1688C84.5068 79.4588 82.6131 81.45 81.5368 82.1738C81.0681 82.485 80.6781 82.8563 80.6781 82.9763C80.6593 83.505 80.2093 84.54 79.6618 85.26C79.1331 85.965 79.0956 86.0813 79.1743 86.7038C79.3093 87.6225 79.0168 90.57 78.6681 92.115C78.352 93.2622 77.9197 94.3742 77.3781 95.4338C76.0318 98.2275 75.0156 100.725 74.7606 101.88C74.5764 102.992 74.4587 104.114 74.4081 105.24C74.3481 106.568 74.2131 107.858 74.1156 108.131C73.9806 108.503 73.9806 108.795 74.0968 109.361C74.1943 109.77 74.2543 110.689 74.2318 111.413C74.2131 112.41 74.2918 113.055 74.5843 114.225C75.0906 116.216 75.1881 117.469 74.9556 118.211C74.7981 118.68 74.6443 118.856 74.1156 119.111C72.9418 119.715 69.6231 120.049 67.8268 119.738L67.8306 119.745ZM72.5743 118.144C73.2568 117.949 73.8456 117.364 73.8456 116.835C73.8456 116.599 73.6506 115.916 73.4143 115.313C72.9456 114.161 72.1431 111.113 72.1431 110.606C72.1431 110.351 72.1618 110.333 72.5518 110.546L72.9831 110.783V110.235C72.9205 109.73 72.8087 109.233 72.6493 108.75C72.2781 107.636 72.2406 107.618 69.8743 107.479L68.2731 107.4L67.6881 107.966C67.3664 108.297 67.0845 108.665 66.8481 109.061C66.5931 109.568 66.4956 110.333 66.6531 110.505C66.6906 110.565 67.0843 110.505 67.5118 110.408C67.7656 110.332 68.0274 110.287 68.2918 110.273C68.2918 110.291 67.8606 110.644 67.3168 111.015C64.9731 112.774 64.1518 113.846 64.1518 115.215C64.1518 116.64 65.4981 117.754 67.6093 118.088C69.0531 118.301 71.8656 118.361 72.5706 118.148L72.5743 118.144ZM104.352 115.819C104.937 115.114 104.858 114.394 104.116 113.573C103.684 113.141 103.197 112.77 102.649 112.478C102.102 112.185 101.554 111.851 101.007 111.503C100.017 110.861 98.9994 110.261 97.9581 109.706C97.0581 109.219 96.1806 108.709 95.3218 108.165L94.9693 107.891V102.521C94.9693 97.23 94.9506 97.1513 94.6768 97.23C93.3081 97.6013 91.0431 97.7775 88.1743 97.7175L85.0693 97.68L85.5193 98.775C86.3593 100.845 86.7906 103.62 86.7906 106.804C86.7906 107.996 86.7118 108.424 86.4193 109.264C86.2618 109.673 86.1268 110.085 85.9881 110.494C85.9281 110.67 86.1456 110.805 86.9443 111.041C87.5293 111.218 88.3881 111.394 88.8793 111.45L89.7793 111.548L89.6818 112.448C89.5843 113.464 89.7006 114.536 89.9556 114.87C90.1131 115.065 90.6981 115.144 93.4131 115.26C95.4643 115.358 97.6918 115.571 99.4468 115.826C100.969 116.063 102.612 116.258 103.099 116.258C103.921 116.276 103.999 116.239 104.348 115.826L104.352 115.819ZM73.0843 106.68C73.1631 106.62 73.2793 105.566 73.3206 104.318C73.4781 100.823 73.6131 100.313 75.3718 96.3675C76.8156 93.1463 77.5806 90.1388 77.5206 88.0088L77.4831 86.7375L76.9356 87.2663C75.8031 88.3988 76.5831 86.6213 77.9331 85.0388C78.9493 83.8275 79.3018 83.1638 79.4556 82.0913C79.5343 81.66 79.6918 81.4463 80.3556 80.94C82.8391 79.0639 84.7527 76.5349 85.8831 73.635C86.1568 72.93 86.8581 70.53 87.4468 68.3025C88.5418 64.1813 89.1268 62.4038 89.6556 61.6425C89.8506 61.35 89.9293 61.29 89.8918 61.485C89.6086 62.5324 89.387 63.5955 89.2281 64.6688C89.0706 65.625 88.7781 67.5 88.5831 68.8088C88.2118 71.4863 87.8218 73.2038 87.2931 74.5313L86.9406 75.4313L87.8781 77.8538C88.8531 80.3325 89.3031 82.1325 89.3818 83.8688L89.4418 84.8438L88.6806 85.0013C87.6758 85.1791 86.7792 85.7396 86.1793 86.565C85.5156 87.5213 85.1443 88.305 85.3206 88.4775C85.3993 88.5563 86.3556 88.7325 87.4506 88.8675C89.1493 89.0625 89.7943 89.0625 92.0406 88.9275C93.0156 88.89 93.9756 88.7925 94.9318 88.6538C95.1456 88.575 95.3631 88.1475 95.7118 87.0338C96.5143 84.4763 96.6681 83.5763 96.5706 81.78L96.4918 80.1975L96.9006 79.6688C97.8568 78.4575 98.5993 76.2713 98.9106 73.71C99.2818 70.5863 98.5993 64.0425 97.3281 58.4175C96.7243 55.74 96.4693 54.1388 96.4693 52.9688V51.9338L95.5131 52.0313C92.0743 52.4025 87.9156 52.305 85.3768 51.7763C83.9893 51.5025 80.4943 50.4675 79.7331 50.1338L79.1293 49.86L79.0506 50.5425C78.9906 50.9138 78.9343 51.285 78.8556 51.675C78.7393 52.0838 78.7768 52.1813 79.5006 52.8863C80.4006 53.805 80.6743 54.2738 80.6743 54.8963C80.6743 55.2863 80.4606 55.6013 79.3656 56.7338C78.5805 57.5715 77.7094 58.3244 76.7668 58.98L75.4956 59.8388L74.9481 61.7325C72.9943 68.6663 72.6231 74.9738 73.9131 79.485L74.2243 80.6175L73.5981 81.3975C71.2543 84.345 69.8668 86.5913 69.6531 87.8438C69.5281 88.4605 69.3843 89.0733 69.2218 89.6813C68.7156 91.6163 68.3218 94.4475 68.1493 97.515C68.0291 100.083 67.8604 102.648 67.6431 105.21L67.5456 105.971L68.5206 106.264C69.0681 106.44 69.8893 106.635 70.3581 106.714C71.2356 106.849 72.8593 106.811 73.1106 106.676L73.0843 106.68ZM92.0481 95.9363C93.5706 95.8388 94.9581 95.6025 95.2318 95.37C95.3481 95.2913 95.4868 94.8825 95.5243 94.47L95.6218 93.7275L94.4106 94.0013C93.4543 94.1963 92.4981 94.3125 91.5381 94.3913C89.2318 94.4888 86.9106 94.4288 84.6231 94.1963C83.8618 94.08 83.8618 94.08 84.0943 95.0738C84.2893 95.8163 84.3306 95.8538 86.3218 95.9925C87.6493 96.1088 89.5056 96.09 92.0443 95.9325L92.0481 95.9363ZM90.7768 92.5388C92.7681 92.3625 95.2506 91.935 95.7381 91.68C95.8956 91.6013 96.0306 91.3088 96.0906 90.975L96.2668 89.94L96.3643 89.4525L95.8768 89.55C93.7093 90 92.0668 90.135 88.7856 90.135C85.5831 90.135 85.2118 90.1163 84.3718 89.8238C84.049 89.6877 83.7053 89.6078 83.3556 89.5875C83.2206 89.6663 83.1981 90.78 83.3181 91.56C83.3968 92.0288 83.4756 92.1075 83.9443 92.2425C85.4293 92.6513 87.9306 92.7488 90.7806 92.5163L90.7768 92.5388ZM54.5293 74.9213C59.5281 73.4775 66.0718 69.2363 71.4231 63.9263C73.1631 62.1863 73.3768 61.9538 73.6093 61.1738L73.9206 60.1763C73.9581 60.0975 73.6468 59.9625 73.2381 59.865C72.1656 59.61 71.3443 58.9875 71.3443 58.4213C71.3443 58.0875 71.1493 57.7575 70.5831 57.15C69.6643 56.115 69.4318 55.665 69.3343 54.6713L69.2556 53.8688L68.1606 53.0888C67.5343 52.6388 65.3481 51.4275 63.0231 50.2575C61.2528 49.3939 59.52 48.4555 57.8293 47.445C55.8756 46.1363 54.5668 44.5725 53.8243 42.72C53.6893 42.3488 53.5131 42.0375 53.4531 42.0375C53.2956 42.0375 48.9006 46.275 47.0256 48.2663C42.3981 53.1488 39.2143 57.3863 37.2006 61.3125C36.6943 62.2875 36.1468 63.4425 35.9893 63.87L35.6968 64.65L36.0493 65.9588C36.2631 66.6638 36.7131 67.815 37.0656 68.4975C38.2956 70.92 39.7618 72.3825 42.1843 73.575C44.7831 74.865 47.0856 75.315 50.9331 75.255C53.0031 75.2363 53.6106 75.1763 54.5256 74.9025L54.5293 74.9213ZM15.0756 57.7913C18.3568 54.8813 22.8868 51.6975 28.4368 48.3975C32.0706 46.23 46.1143 39.1988 52.5793 36.3263C53.7531 35.7975 54.8068 35.31 54.9231 35.2538C55.0393 35.175 55.3731 34.335 55.6843 33.3975C57.0531 29.0625 57.7356 28.2038 60.2143 27.6375C60.5256 27.5588 60.6043 27.4613 60.6043 27.15C60.6043 26.5838 60.9943 25.275 61.3281 24.69C61.5831 24.24 61.5831 24.2213 61.3656 24.2813C61.2306 24.3188 60.4093 24.555 59.5506 24.81C47.6368 28.2488 37.2268 32.8163 28.2418 38.52C18.6531 44.6138 13.1256 51.9188 11.5243 60.6675L11.4081 61.3125L12.5818 60.1613C13.2081 59.5163 14.3406 58.4625 15.0831 57.8175L15.0756 57.7913ZM103.456 59.4525C104.412 58.965 105.897 56.7188 106.444 54.9413C106.602 54.315 106.913 53.73 107.363 53.2425C108.807 51.6413 109.999 48.7313 110.018 46.74C110.018 43.635 108.259 42.4425 105.702 43.77C105.368 43.9275 105.098 44.0438 105.057 44.0063C104.922 43.8713 105.642 43.1663 106.523 42.6188C107.674 41.8575 107.892 41.4075 107.892 39.7875C107.909 38.4781 107.52 37.1955 106.778 36.1163C106.426 35.5875 106.291 35.2388 106.347 35.0213L106.699 33.7125C107.187 31.9725 107.011 29.9813 106.249 28.7138C105.117 26.8013 103.729 25.8638 101.794 25.7063L100.662 25.6275L101.326 26.37C103.298 28.5 104.254 31.1738 103.864 33.4613C103.669 34.635 103.493 34.8675 102.361 35.3175L101.697 35.5913L101.776 36.4913C101.911 37.9575 101.659 39.03 100.722 41.0025C100.253 42 99.9006 42.8963 99.9418 42.9938C100.058 43.3275 101.348 43.95 102.364 44.205L103.362 44.4413L102.736 44.655C101.914 44.91 101.738 45.2813 101.738 46.6275C101.738 47.8575 101.914 48.3675 102.811 49.7138C103.219 50.2988 103.493 50.9063 103.534 51.255C103.613 51.8025 103.594 51.84 103.144 51.9975C102.634 52.1407 102.11 52.2262 101.581 52.2525C99.7431 52.3688 99.6081 52.4288 98.7868 53.2088C98.0443 53.9138 98.0256 53.9513 98.0256 54.7313C98.0256 55.8038 98.4343 57.975 98.6893 58.2675C99.0231 58.62 100.876 59.5388 101.599 59.6738C102.224 59.8305 102.883 59.7545 103.456 59.46V59.4525ZM76.4031 57.99C77.5956 57.0525 78.5331 56.115 79.0581 55.3125C79.3918 54.825 79.4106 54.7275 79.2531 54.315C78.9793 53.6888 77.1831 52.0688 76.1856 51.5813C75.5209 51.2835 74.8179 51.0802 74.0968 50.9775L72.8668 50.82L72.1056 49.8638C70.5231 47.91 69.6456 46.3875 68.3931 43.4363C67.2981 40.935 66.3418 39.4725 64.8193 38.025C64.1931 37.44 63.7468 36.9525 63.7843 36.9525C63.8631 36.9525 64.6056 37.3238 65.4643 37.7738C66.8893 38.535 67.0656 38.595 67.7106 38.4975C70.0356 38.2238 72.0868 35.55 72.8293 31.8C73.0431 30.7463 73.4743 29.67 73.9243 29.025C73.9431 29.0063 74.8431 29.5913 75.8968 30.3525C78.5743 32.2463 79.1593 32.5388 80.6818 32.5988C81.6793 32.6363 82.2456 32.5613 84.0418 32.13C87.8706 31.1925 92.0106 30.8213 94.5306 31.155C95.9556 31.35 98.0068 31.9763 99.5293 32.6963C101.033 33.4013 101.326 33.4388 101.813 33.0075C102.222 32.655 102.222 32.5988 102.222 31.29C102.203 29.355 101.498 27.2663 100.426 26.0175C99.8781 25.3725 98.3368 24.3188 96.8106 23.5163C96.268 23.2285 95.728 22.936 95.1906 22.6388C94.4668 22.2075 93.6493 22.2675 91.4218 22.8525C88.8418 23.5163 88.1593 23.5163 85.2118 22.755C82.7106 22.1288 82.5568 22.11 80.0931 22.5C78.7843 22.695 75.5031 22.5788 74.4081 22.2863C73.8606 22.1288 73.3131 21.975 72.7881 21.78C71.8318 21.4088 70.1706 21.3488 68.6668 21.6225C65.6781 22.1513 63.4131 23.7713 62.5918 25.9763C62.1606 27.09 62.2206 27.6188 62.7868 27.9675C63.6868 28.5338 64.8756 30.0788 64.8756 30.6825C64.8756 30.72 64.5831 30.4688 64.2493 30.1163C63.4093 29.2388 62.6481 28.845 61.7481 28.845C61.1658 28.8612 60.5996 29.0397 60.1132 29.3603C59.6269 29.681 59.2398 30.1311 58.9956 30.66C58.7328 31.35 58.5112 32.055 58.3318 32.7713C57.7843 34.7625 57.2968 35.82 56.2618 37.2263C55.3431 38.4975 55.2081 39.0638 55.5381 40.4888C56.3593 44.0813 57.7843 45.5288 63.7393 48.9075C66.8631 50.685 68.4643 51.6825 69.6381 52.56C70.5381 53.2238 70.5568 53.265 70.4781 53.7713C70.3018 54.945 71.0443 56.2125 72.5106 57.2475C72.8818 57.5025 73.1143 57.7763 73.1143 57.9713C73.1143 58.3238 74.1118 58.8113 74.8318 58.8113C75.2406 58.8113 75.5556 58.635 76.3956 57.99H76.4031ZM100.486 51.405C102.751 51.4838 102.867 51.3075 101.659 49.9013C100.388 48.435 100.039 47.2463 100.508 45.9375L100.703 45.4313L99.9006 45.0413C99.6268 44.9063 99.3531 44.7675 99.0793 44.67C98.9443 45.1988 98.8056 45.705 98.6893 46.2338C98.3968 47.4263 98.0443 50.5125 98.0256 51.8213C98.0256 51.9375 98.2206 51.9 98.5543 51.6863C99.0231 51.4125 99.2593 51.375 100.489 51.4125L100.486 51.405ZM92.8881 51.2888C94.2568 51.21 95.6631 51.1125 96.0343 51.0525L96.7168 50.955L96.7956 48.7088C96.9118 45.5063 97.3806 43.6125 98.7681 40.5825C99.7431 38.4338 100.174 36.5588 99.9606 35.1525C99.8818 34.5488 99.8443 34.5075 99.0231 34.155C97.5193 33.5579 95.9533 33.1315 94.3543 32.8838C92.8131 32.67 88.2793 32.7863 86.5806 33.12C85.8756 33.2363 84.5893 33.51 83.7306 33.7238C81.6006 34.2113 80.4681 34.155 78.8481 33.45C77.2468 32.745 76.2306 32.1038 75.2743 31.2038C74.5131 30.4988 74.4343 30.4613 74.2393 30.6975C74.0818 30.8738 74.0031 31.4025 73.9468 32.535C73.8868 34.275 73.6131 35.19 72.8518 36.42C72.6827 36.6731 72.5383 36.9418 72.4206 37.2225C72.4206 37.2825 73.0056 37.965 73.7293 38.7075C76.2306 41.3063 77.4606 41.97 79.4331 41.8313C80.0781 41.7713 80.5281 41.7938 80.5281 41.8688C80.5281 42.0263 79.2568 43.02 78.7318 43.2938C78.4768 43.4288 78.4206 43.5675 78.4581 43.86L78.7693 45.9113C78.9456 47.085 79.0806 47.6288 79.2568 47.7863C79.7256 48.1763 82.1481 49.4288 83.6706 50.0513C85.6618 50.8538 86.7568 51.1463 88.2793 51.2813C90.1543 51.4388 90.1918 51.4388 92.8881 51.2813V51.2888ZM76.7368 49.14C76.7743 49.08 76.6393 47.9475 76.3843 46.6388C76.0731 44.8613 75.8968 44.2163 75.7018 44.04C75.5668 43.9238 74.8431 43.4138 74.1193 42.8888C73.1684 42.205 72.2674 41.4543 71.4231 40.6425L70.0768 39.315L69.3531 39.6863L68.5918 40.095C68.6559 40.4001 68.7606 40.6952 68.9031 40.9725C69.1168 41.4413 69.5481 42.5925 69.8593 43.53C70.6806 45.9713 71.3256 47.145 72.9456 49.2713L73.5493 50.0738L74.7006 50.25C75.3456 50.3475 75.9906 50.4863 76.1668 50.5425C76.4406 50.6588 76.4781 50.6025 76.5568 49.9763C76.5943 49.7025 76.6543 49.41 76.7331 49.1363L76.7368 49.14ZM101.483 24.8438C102.481 24.7463 102.657 24.6075 102.226 24.1613C101.952 23.8875 101.326 23.8688 100.819 24.1013C100.486 24.2588 100.411 24.2175 99.8818 23.6513C99.3343 23.0475 99.2968 23.025 98.6106 23.1038C97.9843 23.1825 97.8868 23.1638 97.8081 22.9088C97.5642 22.4899 97.2611 22.1084 96.9081 21.7763C96.4645 21.2722 95.91 20.8781 95.2881 20.625C94.0768 20.1563 93.3943 20.2163 92.2393 20.8613C88.8981 22.6763 89.0368 22.6575 85.8118 21.8363C82.8043 21.075 80.5581 20.295 79.8343 19.8038C79.2306 19.395 77.9406 18.945 76.8643 18.8063C76.0618 18.69 75.5556 18.8663 74.7943 19.4888L74.3856 19.8225L74.7568 20.4675C75.2631 21.3675 75.2068 21.4238 74.4456 20.76C73.6243 20.0775 72.6493 19.6088 72.0231 19.5863C71.5731 19.5863 70.2456 20.1713 70.0881 20.4263C70.0281 20.505 70.4406 20.6025 70.9881 20.64C71.5543 20.7 72.3343 20.895 72.8631 21.1088C74.2318 21.6938 74.9331 21.8888 76.1818 22.0088C77.5506 22.1438 80.0293 21.99 80.3218 21.7538C80.4793 21.6188 80.9068 21.5963 81.8068 21.675C82.9993 21.7538 83.4868 21.87 86.3181 22.6313C87.9606 23.0813 89.1118 23.04 91.0656 22.515C91.9656 22.26 93.0981 22.0088 93.5668 21.9488C94.3693 21.87 94.5231 21.9113 95.7756 22.4775C97.7668 23.3775 98.8243 23.9438 99.4093 24.4688C99.9943 24.975 100.073 24.975 101.479 24.8588L101.483 24.8438ZM90.3493 21.4275L91.5418 20.8013L91.5043 19.59C91.4856 18.75 91.4443 17.9288 91.4068 17.1113L91.3093 15.8625L90.1168 16.7813C89.4118 17.3288 88.7293 17.7375 88.4368 17.7975C87.5781 17.955 83.3406 17.7975 82.9468 17.5838C82.4223 17.1963 81.9317 16.7647 81.4806 16.2938L80.3856 15.18L80.3668 15.8438C80.3668 16.1963 80.3293 16.8 80.2506 17.1713C80.1531 17.8763 80.1531 17.895 80.9143 18.8513C81.3231 19.38 81.6568 19.8488 81.6568 19.905C81.6568 20.2763 87.3006 22.035 88.5718 22.0538C88.9806 22.0538 89.4906 21.8775 90.3493 21.4275ZM88.0843 16.9913C89.4906 16.7175 90.1731 15.7013 90.7018 13.125C91.2493 10.35 91.5231 5.99625 91.2681 4.14C91.0318 2.46 89.1568 1.7175 85.5831 1.83375C83.3556 1.9125 82.4368 2.12625 81.6756 2.77125C81.2068 3.16125 81.2068 3.2025 80.9931 5.055C80.6031 8.61 81.1881 13.6688 82.2043 15.5625C82.6918 16.4813 83.1231 16.8113 84.0193 16.9688C85.0356 17.145 87.2031 17.145 88.0806 16.9875L88.0843 16.9913Z" fill="black"/>
    </g>
<!--  -->
    <g id="redux">
        <path d="M72.7792 69.5627C76.6509 69.1619 79.5882 65.8242 79.4546 61.8184C79.3214 57.8131 75.9833 54.6086 71.9779 54.6086H71.7111C67.5718 54.7422 64.3677 58.2135 64.5013 62.3525C64.6349 64.3553 65.4357 66.091 66.6374 67.2926C62.098 76.2385 55.1554 82.7807 44.7415 88.2549C37.6652 91.9934 30.3222 93.3287 22.9792 92.3943C16.971 91.593 12.298 88.923 9.3603 84.5164C5.08817 77.9742 4.68776 70.8975 8.29268 63.8213C10.8296 58.7475 14.8345 55.009 17.3714 53.1398C16.8374 51.4041 16.0361 48.4668 15.6357 46.3307C-3.72371 60.35 -1.72084 79.3094 4.15375 88.2549C8.55949 94.9311 17.505 99.0701 27.3849 99.0701C30.055 99.0701 32.7251 98.8029 35.3955 98.1357C52.4853 94.7975 65.4361 84.65 72.7792 69.5627ZM96.2775 53.0066C86.1304 41.1234 71.1771 34.5811 54.0873 34.5811H51.9513C50.7496 32.1779 48.2128 30.5754 45.4091 30.5754H45.1419C41.0033 30.709 37.7992 34.1803 37.9324 38.3197C38.066 42.325 41.4037 45.5295 45.4091 45.5295H45.6759C48.6132 45.3959 51.1501 43.5266 52.2181 40.9898H54.6214C64.7685 40.9898 74.3812 43.927 83.0599 49.6684C89.7353 54.0746 94.5419 59.816 97.2119 66.7586C99.4816 72.3664 99.348 77.8406 96.9447 82.5139C93.2066 89.5902 86.9316 93.4623 78.6537 93.4623C73.3132 93.4623 68.2398 91.8598 65.5693 90.6582C64.1009 91.9934 61.4304 94.1295 59.5611 95.4652C65.3025 98.1352 71.1771 99.6041 76.7845 99.6041C89.6017 99.6041 99.0812 92.5275 102.686 85.4512C106.558 77.707 106.291 64.3553 96.2775 53.0066ZM28.4529 71.832C28.5865 75.8377 31.9242 79.0418 35.9296 79.0418H36.1968C40.3357 78.9086 43.5398 75.4369 43.4062 71.2979C43.273 67.2922 39.9349 64.0881 35.9296 64.0881H35.6628C35.3955 64.0881 34.9947 64.0881 34.7283 64.2213C29.2542 55.1422 26.9845 45.2623 27.7857 34.5807C28.3193 26.5697 30.9898 19.6266 35.6628 13.8852C39.5345 8.94508 47.0111 6.5418 52.0849 6.40861C66.2369 6.14139 72.2447 23.7656 72.6455 30.8422C74.3812 31.2426 77.3185 32.1775 79.3214 32.8451C77.7189 11.2156 64.3677 0 51.5509 0C39.5345 0 28.4529 8.67869 24.0468 21.4963C17.9054 38.5865 21.9107 55.009 29.3874 67.9602C28.7201 68.8947 28.3193 70.3635 28.4529 71.8324V71.832Z" fill="#764ABC"/>
    </g>
<!--  -->
    <g id="github">
        <path  transform='translate(10, 0)' fill-rule="evenodd" clip-rule="evenodd" d="M44 0C19.69 0 0 19.69 0 44C0 63.47 12.595 79.915 30.085 85.745C32.285 86.13 33.11 84.81 33.11 83.655C33.11 82.61 33.055 79.145 33.055 75.46C22 77.495 19.14 72.765 18.26 70.29C17.765 69.025 15.62 65.12 13.75 64.075C12.21 63.25 10.01 61.215 13.695 61.16C17.16 61.105 19.635 64.35 20.46 65.67C24.42 72.325 30.745 70.455 33.275 69.3C33.66 66.44 34.815 64.515 36.08 63.415C26.29 62.315 16.06 58.52 16.06 41.69C16.06 36.905 17.765 32.945 20.57 29.865C20.13 28.765 18.59 24.255 21.01 18.205C21.01 18.205 24.695 17.05 33.11 22.715C36.63 21.725 40.37 21.23 44.11 21.23C47.85 21.23 51.59 21.725 55.11 22.715C63.525 16.995 67.21 18.205 67.21 18.205C69.63 24.255 68.09 28.765 67.65 29.865C70.455 32.945 72.16 36.85 72.16 41.69C72.16 58.575 61.875 62.315 52.085 63.415C53.68 64.79 55.055 67.43 55.055 71.555C55.055 77.44 55 82.17 55 83.655C55 84.81 55.825 86.185 58.025 85.745C66.7597 82.796 74.3497 77.1822 79.7268 69.6937C85.1039 62.2052 87.9974 53.219 88 44C88 19.69 68.31 0 44 0Z" fill="black"/>
    </g>
<!--  -->
    <g id="git">
        <path d="M103.62 47.8219L57.7758 1.98038C55.1372 -0.6598 50.8552 -0.6598 48.2134 1.98038L38.6937 11.5001L50.7699 23.5763C53.5762 22.6281 56.7943 23.2642 59.0313 25.5012C61.2789 27.7525 61.9106 30.9981 60.9393 33.8134L72.5775 45.452C75.3932 44.482 78.6421 45.1095 80.891 47.3621C84.034 50.5039 84.034 55.596 80.891 58.7399C77.7471 61.8841 72.655 61.8841 69.5095 58.7399C67.1454 56.3733 66.5613 52.9013 67.7582 49.9888L56.9046 39.1352L56.9034 67.6973C57.6902 68.0863 58.4088 68.6002 59.0313 69.2189C62.1743 72.3607 62.1743 77.4532 59.0313 80.5995C55.8874 83.7422 50.7929 83.7422 47.6535 80.5995C44.5105 77.4532 44.5105 72.3611 47.6535 69.2193C48.4067 68.4658 49.3019 67.869 50.2872 67.4635V38.6352C49.3004 38.2324 48.4048 37.6353 47.6535 36.8793C45.2722 34.5013 44.6996 31.0071 45.9198 28.0831L34.0154 16.1775L2.58106 47.6099C-0.0603455 50.2525 -0.0603455 54.5349 2.58106 57.1755L48.4259 103.018C51.0652 105.658 55.3464 105.658 57.9891 103.018L103.619 57.3884C106.26 54.747 106.26 50.4621 103.619 47.8219" fill="#DE4C36"/>
    </g>
<!--  -->
    <g id="react">
        <g clip-path="url(#clip0_13_2986)">
        <path d="M93.1056 32.7027C91.9031 32.2887 90.6904 31.9051 89.4687 31.5523C89.6739 30.7106 89.8628 29.8792 90.0305 29.0623C92.7838 15.6483 90.9839 4.84178 84.8361 1.28375C78.9416 -2.12722 69.3016 1.42949 59.5659 9.93342C58.6064 10.773 57.6682 11.6368 56.7521 12.524C56.1389 11.934 55.5149 11.3556 54.8803 10.7888C44.6767 1.69616 34.4493 -2.13608 28.3081 1.43215C22.4189 4.85374 20.675 15.0127 23.1538 27.7254C23.4004 28.9844 23.6788 30.237 23.9888 31.4819C22.5411 31.8947 21.1442 32.3342 19.8073 32.8019C7.84441 36.9881 0.204742 43.5483 0.204742 50.3529C0.204742 57.3808 8.40627 64.43 20.8661 68.7043C21.8763 69.0495 22.8948 69.3692 23.9209 69.6634C23.5876 71.0042 23.2918 72.354 23.0337 73.7114C20.6706 86.2035 22.516 96.1223 28.3893 99.5222C34.4555 103.033 44.637 99.4247 54.5506 90.7268C55.3545 90.0196 56.1407 89.2925 56.9084 88.546C57.9004 89.5066 58.9189 90.4393 59.9627 91.343C69.566 99.6365 79.0501 102.985 84.9177 99.5762C90.9782 96.055 92.948 85.3995 90.3907 72.4356C90.1892 71.42 89.9633 70.4094 89.7132 69.4047C90.4282 69.1921 91.13 68.9732 91.8141 68.7455C104.767 64.4384 113.195 57.4747 113.195 50.3529C113.195 43.5234 105.309 36.919 93.1056 32.7027ZM90.2962 64.1474C89.6783 64.3525 89.0445 64.5505 88.3983 64.7432C86.9683 60.1995 85.0386 55.3684 82.6769 50.3764C84.9305 45.5036 86.786 40.734 88.1759 36.22C89.3318 36.5558 90.4534 36.9097 91.5347 37.2832C101.991 40.8961 108.369 46.2372 108.369 50.3529C108.369 54.7367 101.481 60.4277 90.2962 64.1474ZM85.6557 73.3765C86.7865 79.1087 86.9476 84.2916 86.1986 88.3435C85.5259 91.9844 84.1727 94.4115 82.499 95.3839C78.9385 97.4526 71.3235 94.7637 63.111 87.6706C62.1401 86.8305 61.1927 85.9634 60.2699 85.0703C63.4539 81.5756 66.6357 77.5131 69.7412 73.0008C75.2036 72.5144 80.3641 71.7188 85.0439 70.6331C85.2694 71.5426 85.4734 72.4573 85.6557 73.3765ZM38.7257 95.0264C35.2468 96.2592 32.4759 96.2946 30.8009 95.3254C27.2369 93.2624 25.7552 85.298 27.7762 74.6151C28.0165 73.3527 28.2915 72.0972 28.6011 70.8502C33.2293 71.8779 38.3523 72.6168 43.8275 73.0624C46.9542 77.4776 50.2278 81.5358 53.5271 85.0894C52.8259 85.7703 52.1082 86.4338 51.3745 87.0793C46.9904 90.9252 42.5974 93.654 38.7257 95.0264ZM22.4277 64.1204C16.9181 62.2302 12.368 59.7738 9.24929 57.0933C6.44659 54.6848 5.032 52.2932 5.032 50.3529C5.032 46.2234 11.1657 40.9564 21.3962 37.3766C22.6378 36.9425 23.9372 36.5327 25.2856 36.1482C26.6997 40.7641 28.5544 45.5904 30.7925 50.4707C28.5252 55.4233 26.6441 60.3267 25.2163 64.997C24.2797 64.7278 23.3499 64.4355 22.4277 64.1204ZM27.891 26.7947C25.7676 15.9031 27.1777 7.68706 30.7268 5.62497C34.5067 3.42867 42.8653 6.56011 51.6755 14.4115C52.25 14.9247 52.8152 15.4482 53.3708 15.9819C50.0879 19.52 46.8443 23.548 43.7454 27.9371C38.4313 28.4315 33.3445 29.2253 28.6678 30.2889C28.3797 29.131 28.1206 27.9661 27.891 26.7951V26.7947ZM76.6301 38.8739C75.5255 36.9589 74.3798 35.0679 73.194 33.2024C76.7991 33.66 80.2533 34.2673 83.4969 35.0098C82.5233 38.1425 81.3095 41.4175 79.8808 44.7753C78.8365 42.7867 77.7527 40.8191 76.6301 38.8739ZM56.7544 19.4443C58.9806 21.8652 61.2104 24.5678 63.4036 27.5003C58.9546 27.2894 54.4982 27.2886 50.0491 27.4977C52.2444 24.5922 54.4932 21.8931 56.7544 19.4443ZM36.751 38.9071C35.6425 40.8367 34.5789 42.792 33.5613 44.7713C32.1559 41.4255 30.9532 38.1355 29.9712 34.9584C33.1949 34.2346 36.6327 33.6427 40.2149 33.1935C39.0159 35.0704 37.8609 36.9754 36.751 38.9067V38.9071ZM40.3177 67.8569C36.6169 67.4423 33.1274 66.881 29.9045 66.1767C30.902 62.9429 32.1312 59.5829 33.567 56.1653C34.5887 58.1461 35.6567 60.1026 36.77 62.033C37.9149 64.0176 39.1004 65.9614 40.3177 67.8569ZM56.8876 81.6027C54.5996 79.1255 52.3177 76.3848 50.0892 73.4372C52.2528 73.5222 54.4583 73.5656 56.7001 73.5656C59.0031 73.5656 61.2797 73.5138 63.5205 73.4137C61.3203 76.4145 59.0989 79.1592 56.8876 81.6027ZM79.9263 55.9907C81.4366 59.446 82.7095 62.7883 83.7203 65.9667C80.4444 66.7171 76.9073 67.3214 73.1804 67.7701C74.3746 65.8699 75.5311 63.9461 76.6491 61.9998C77.7858 60.0214 78.8784 58.0179 79.9263 55.9907ZM72.468 59.5794C70.7564 62.5634 68.9487 65.4909 67.0475 68.357C63.6038 68.6018 60.1524 68.7234 56.7001 68.7216C53.1837 68.7216 49.7635 68.6118 46.47 68.3974C44.5192 65.5378 42.677 62.6053 40.9471 59.6059H40.9476C39.2259 56.6225 37.6177 53.5745 36.1265 50.4685C37.6139 47.3618 39.2172 44.3124 40.933 41.3267L40.9326 41.3271C42.6477 38.3407 44.4753 35.4206 46.4113 32.5734C49.7714 32.3182 53.2172 32.1853 56.6996 32.1853H56.7001C60.1984 32.1853 63.6485 32.3195 67.0078 32.5765C68.9243 35.4195 70.7402 38.3295 72.4521 41.301C74.1736 44.2801 75.7981 47.3147 77.3231 50.3999C75.8138 53.5166 74.1944 56.5783 72.468 59.5794ZM82.4253 5.48056C86.2087 7.67067 87.6802 16.5024 85.303 28.0842C85.1512 28.8231 84.9808 29.5757 84.7954 30.339C80.1072 29.2528 75.0169 28.4452 69.6874 27.9433C66.5828 23.506 63.3656 19.4717 60.1361 15.9792C60.9825 15.1604 61.849 14.3628 62.7349 13.5871C71.0768 6.30141 78.8732 3.42468 82.4253 5.48056ZM56.7001 40.2263C62.2724 40.2263 66.7898 44.7603 66.7898 50.3529C66.7898 55.9456 62.2724 60.4795 56.7001 60.4795C51.1278 60.4795 46.6104 55.9456 46.6104 50.3529C46.6104 44.7603 51.1278 40.2263 56.7001 40.2263Z" fill="#764ABC"/>
        </g>
        <defs>
        <clipPath id="clip0_13_2986">
        <rect width="113" height="101" fill="white" transform="translate(0.200012)"/>
        </clipPath>
        </defs>
    </g>
<!--  -->
    <g id="sass">
        <g clip-path="url(#clip0_13_2988)">
        <path d="M101.473 50.0766C97.4031 50.0975 93.8654 51.0694 90.9035 52.5063C89.8163 50.3721 88.7295 48.4708 88.538 47.076C88.3246 45.4493 88.0691 44.4561 88.3246 42.5122C88.5805 40.5683 89.7313 37.8001 89.7098 37.589C89.6888 37.3778 89.4539 36.3846 87.1099 36.3637C84.7659 36.3424 82.7413 36.8073 82.5069 37.42C82.2724 38.0326 81.825 39.4273 81.5266 40.8637C81.1217 42.9771 76.8386 50.5198 74.3881 54.471C73.5993 52.9291 72.9175 51.5765 72.768 50.499C72.5551 48.8722 72.2991 47.879 72.5551 45.9351C72.811 43.9912 73.9617 41.2235 73.9403 41.0119C73.9188 40.8007 73.6843 39.8075 71.3403 39.7866C68.9959 39.7653 66.9713 40.2302 66.7373 40.8429C66.5029 41.4559 66.247 42.8923 65.7571 44.2871C65.2667 45.6818 59.5769 58.275 58.0853 61.5285C57.4824 62.8453 56.8501 64.1487 56.1887 65.4376C56.1887 65.4376 56.1672 65.501 56.1032 65.6066C55.8954 66.0107 55.6824 66.4122 55.4643 66.811V66.8318C55.1444 67.4028 54.8035 67.9307 54.633 67.9307C54.5051 67.9307 54.2706 66.4095 54.6755 64.3387C55.5278 59.9652 57.5524 53.1615 57.5314 52.9291C57.5314 52.8022 57.9148 51.6191 56.2102 51.006C54.5476 50.3934 53.9512 51.4075 53.8017 51.4075C53.6527 51.4075 53.5458 51.7668 53.5458 51.7668C53.5458 51.7668 55.4003 44.118 50.0085 44.118C46.6418 44.118 41.9958 47.7734 39.6943 51.0694C37.078 52.4811 34.4639 53.8968 31.8521 55.3166C30.5953 56.0139 29.2951 56.7113 28.0804 57.3661C27.9949 57.2818 27.9099 57.1758 27.8244 57.0915C21.3034 50.1822 9.24203 45.3012 9.75342 36.0257C9.94537 32.6449 11.1171 23.7705 32.9178 12.9947C50.8609 4.22583 65.1392 6.65549 67.6111 12.0436C71.1484 19.7349 59.9608 34.0183 41.4204 36.0887C34.3455 36.8708 30.6373 34.1661 29.7 33.152C28.7197 32.0953 28.5703 32.0318 28.2079 32.2435C27.6115 32.5606 27.9949 33.5113 28.2079 34.0605C28.7622 35.4969 31.0422 38.0326 34.8994 39.2796C38.3091 40.378 46.5988 40.991 56.6361 37.1454C67.8666 32.8348 76.6467 20.8546 74.0682 10.8183C71.4893 0.633908 54.4411 -2.72556 38.3091 2.95799C28.7197 6.33921 18.32 11.6634 10.8402 18.594C1.95366 26.834 0.54699 33.997 1.12236 36.9976C3.18987 47.6465 18.0006 54.5771 23.9248 59.7114C23.6264 59.8804 23.349 60.0286 23.115 60.1555C20.1526 61.6132 8.85814 67.4658 6.04526 73.6568C2.84894 80.6716 6.55711 85.7009 9.00759 86.3765C16.6154 88.4686 24.4362 84.7076 28.6343 78.4953C32.8323 72.2834 32.321 64.2119 30.3819 60.5144C30.3604 60.4722 30.3394 60.4296 30.2964 60.3875C31.0637 59.9439 31.8521 59.479 32.6194 59.0354C34.0297 58.2088 35.4578 57.4126 36.9029 56.6474C36.1781 58.6126 35.6452 60.958 35.3898 64.3387C35.0699 68.3113 36.7105 73.4665 38.863 75.4947C39.8223 76.3828 40.9516 76.4037 41.6764 76.4037C44.1908 76.4037 45.3206 74.3329 46.5778 71.8819C48.112 68.8818 49.4972 65.3954 49.4972 65.3954C49.4972 65.3954 47.771 74.8191 52.4595 74.8191C54.1641 74.8191 55.8902 72.6214 56.6576 71.5017V71.5226C56.6576 71.5226 56.7001 71.4592 56.7855 71.3114C56.956 71.0368 57.0625 70.8674 57.0625 70.8674V70.8257C57.7443 69.6421 59.279 66.9587 61.559 62.5004C64.4998 56.7534 67.3342 49.5696 67.3342 49.5696C67.3342 49.5696 67.5901 51.3232 68.4635 54.239C68.9753 55.9505 70.0401 57.831 70.8929 59.648C70.2111 60.5991 69.7847 61.127 69.7847 61.127L69.8061 61.1483C69.2518 61.8665 68.6554 62.6481 67.9946 63.4094C65.6716 66.1558 62.9017 69.3045 62.5178 70.2126C62.0699 71.2901 62.1769 72.0722 63.0296 72.7062C63.6475 73.1711 64.7553 73.234 65.885 73.1711C67.9735 73.0229 69.4437 72.5158 70.1681 72.1991C71.2978 71.7976 72.619 71.1846 73.8548 70.276C76.1353 68.6067 77.52 66.2192 77.3925 63.0714C77.3285 61.3386 76.7531 59.6059 76.0498 57.9787C76.2632 57.6833 76.4547 57.3874 76.6681 57.0915C80.2694 51.8724 83.0612 46.1462 83.0612 46.1462C83.0612 46.1462 83.3172 47.8998 84.1905 50.8161C84.6169 52.2951 85.4907 53.901 86.2575 55.4643C82.8693 58.1903 80.7808 61.3594 80.0349 63.4302C78.6927 67.2759 79.7365 69.0082 81.7185 69.4097C82.6134 69.6 83.8921 69.1772 84.8298 68.7757C86.0231 68.3956 87.4298 67.7408 88.7725 66.7684C91.0529 65.0995 93.2475 62.775 93.1195 59.6272C93.0555 58.1903 92.6721 56.7743 92.1392 55.4009C95.0161 54.2182 98.7243 53.563 103.455 54.1122C113.599 55.2953 115.602 61.5706 115.218 64.2123C114.835 66.8531 112.704 68.29 112.001 68.7336C111.297 69.1777 111.063 69.3254 111.127 69.6421C111.212 70.107 111.553 70.0862 112.15 70.0014C112.981 69.8537 117.478 67.8672 117.669 63.0075C117.989 56.7956 112.022 50.0132 101.473 50.0766ZM23.2215 76.2346C19.8542 79.8687 15.1662 81.2421 13.1417 80.0803C10.9682 78.8333 11.8205 73.4665 15.9546 69.6213C18.469 67.2759 21.7083 65.0991 23.8608 63.7683C24.3507 63.4724 25.0755 63.0501 25.9493 62.5217C26.0983 62.437 26.1838 62.3948 26.1838 62.3948L26.6952 62.0776C28.2079 67.5713 26.7592 72.4103 23.2215 76.2346ZM47.7285 59.7114C46.5563 62.543 44.1058 69.7903 42.6142 69.3888C41.3354 69.0508 40.5466 63.5571 42.3582 58.1269C43.2745 55.4009 45.2136 52.147 46.3433 50.8796C48.1759 48.8509 50.2005 48.1744 50.6904 48.9991C51.3087 50.0766 48.4529 57.9365 47.7285 59.7114ZM67.9521 69.3041C67.4617 69.5578 66.9933 69.7269 66.7798 69.6C66.6309 69.5153 66.9933 69.1772 66.9933 69.1772C66.9933 69.1772 69.5292 66.473 70.5305 65.2473C71.1063 64.5291 71.7877 63.684 72.5126 62.7329V63.0075C72.5126 66.2405 69.3583 68.4169 67.9516 69.3041H67.9521ZM83.5511 65.7756C83.1887 65.5219 83.2527 64.6768 84.4674 62.0355C84.9363 61.0001 86.0441 59.2678 87.9412 57.5985C88.1541 58.2746 88.3036 58.9298 88.2821 59.5424C88.2606 63.6205 85.3202 65.1417 83.5511 65.7756Z" fill="#764ABC"/>
        </g>
        <defs>
        <clipPath id="clip0_13_2988">
        <rect width="117" height="87" fill="white" transform="translate(0.799988)"/>
        </clipPath>
        </defs>
    </g>
<!--  -->
    <g id="bootstrap">
        <path d="M0.399963 75.7821C0.399963 81.9781 5.48024 87 11.7468 87H77.0528C83.3204 87 88.4 81.9774 88.4 75.7821V11.2182C88.4 5.02187 83.3197 0 77.0531 0H11.7472C5.47956 0 0.399963 5.02255 0.399963 11.2179V75.7818V75.7821Z" fill="#563D7C"  transform='translate(15, 0)'/>
        <path d="M36.8918 38.4832V26.1629H47.8612C48.9062 26.1629 49.9134 26.2489 50.8834 26.4212C51.8535 26.5931 52.7118 26.9003 53.4581 27.3431C54.2041 27.786 54.8012 28.4007 55.2491 29.1875C55.6966 29.9746 55.9208 30.9829 55.9208 32.2121C55.9208 34.4255 55.2491 36.0241 53.9057 37.0076C52.5627 37.9915 50.8463 38.4832 48.7567 38.4832H36.8918ZM25.1758 17.1621V69.8379H50.9955C53.3835 69.8379 55.7093 69.5429 57.9729 68.9526C60.2365 68.3623 62.2513 67.4525 64.0174 66.223C65.7833 64.9934 67.1889 63.407 68.2335 61.4645C69.2785 59.5216 69.8007 57.2222 69.8007 54.5663C69.8007 51.2709 68.9922 48.4553 67.3755 46.1192C65.7585 43.7828 63.3083 42.1474 60.0248 41.2129C62.4128 40.0819 64.2165 38.6307 65.4354 36.8601C66.654 35.0895 67.2635 32.8765 67.2635 30.2203C67.2635 27.7612 66.853 25.6956 66.0322 24.0232C65.2113 22.3512 64.0546 21.0108 62.562 20.0025C61.0698 18.9942 59.2788 18.2686 57.1892 17.8262C55.0999 17.3833 52.7864 17.1621 50.2492 17.1621H25.1758ZM36.8918 60.8371V46.3771H49.6521C52.1893 46.3771 54.2292 46.9548 55.7716 48.111C57.3136 49.2668 58.085 51.1971 58.085 53.9023C58.085 55.2797 57.8485 56.4107 57.3758 57.296C56.9032 58.1813 56.269 58.8823 55.4728 59.3986C54.6771 59.9151 53.7565 60.2839 52.7118 60.5054C51.6668 60.7263 50.5727 60.8371 49.4283 60.8371H36.8918Z" fill="white"  transform='translate(15, 0)'/>
    </g>
<!--  -->
    <g id="tailwind">
        <path d="M36.8438 56.0844C40.6646 40.801 50.2167 33.1594 65.5 33.1594C88.425 33.1594 91.2906 50.3531 102.753 53.2187C110.395 55.1292 117.081 52.2635 122.812 44.6219C118.992 59.9052 109.44 67.5469 94.1562 67.5469C71.2313 67.5469 68.3656 50.3531 56.9031 47.4875C49.2615 45.5771 42.575 48.4427 36.8438 56.0844ZM8.1875 90.4719C12.0083 75.1885 21.5604 67.5469 36.8438 67.5469C59.7687 67.5469 62.6344 84.7406 74.0969 87.6062C81.7385 89.5167 88.425 86.651 94.1562 79.0094C90.3354 94.2927 80.7833 101.934 65.5 101.934C42.575 101.934 39.7094 84.7406 28.2469 81.875C20.6052 79.9646 13.9187 82.8302 8.1875 90.4719Z" fill="#44A8B3"/>
    </g>
<!--  -->
    <g id="ts1">
        <path d="M0 60V120H60H120V60V0H60H0V60Z" fill="#007ACC"/>
        <path d="M26.5375 60.3979L26.4994 65.3122H34.309H42.1185L42.1185 87.5026V109.693H47.6423H53.1661V87.5026L53.1661 65.3122H60.9756H68.7852V60.4931C68.7852 57.8264 68.728 55.5979 68.6518 55.5407C68.5947 55.4645 59.0899 55.4264 47.5661 55.4455L26.5947 55.5026L26.5375 60.3979Z" fill="white"/>
        <path d="M96.8265 55.3636C99.8741 56.1255 102.198 57.4779 104.331 59.6874C105.436 60.8684 107.074 63.0208 107.207 63.535C107.246 63.6874 102.026 67.1922 98.8646 69.1541C98.7503 69.2303 98.2931 68.7351 97.7789 67.9731C96.236 65.7255 94.6169 64.7541 92.1408 64.5827C88.5027 64.335 86.1598 66.2398 86.1789 69.4208C86.1789 70.3541 86.3122 70.9065 86.6931 71.6684C87.4931 73.3255 88.9789 74.316 93.6455 76.3351C102.236 80.0303 105.912 82.4684 108.198 85.935C110.75 89.8017 111.322 95.9731 109.588 100.564C107.684 105.554 102.96 108.945 96.3122 110.068C94.255 110.43 89.3789 110.373 87.1693 109.973C82.3503 109.116 77.7789 106.735 74.9598 103.611C73.855 102.392 71.7027 99.2112 71.836 98.9827C71.8931 98.9065 72.3884 98.6017 72.9408 98.2779C73.4741 97.9731 75.4931 96.8112 77.3979 95.7065L80.8455 93.7065L81.5693 94.7731C82.5789 96.316 84.7884 98.4303 86.1217 99.135C89.9503 101.154 95.2074 100.868 97.7979 98.5446C98.9027 97.535 99.3598 96.4874 99.3598 94.9446C99.3598 93.5541 99.1884 92.9446 98.4646 91.897C97.5312 90.5636 95.6265 89.4398 90.2169 87.097C84.0265 84.4303 81.3598 82.7731 78.9217 80.1446C77.5122 78.6208 76.1789 76.1827 75.6265 74.1446C75.1693 72.4493 75.055 68.2017 75.4169 66.4874C76.6931 60.5065 81.2074 56.335 87.7217 55.097C89.836 54.697 94.7503 54.8493 96.8265 55.3636Z" fill="white"/>
    </g>
<!--  -->
    <g id="mongo">
        <path d="M84.7407 47.7544C78.7204 19.869 66.1563 12.4436 62.9681 7.19463C61.2353 4.33931 59.4685 0 59.4685 0C59.2957 2.47333 58.9895 4.03976 56.9792 5.91949C52.9535 9.68719 35.8453 24.3238 34.4083 56.0098C33.0681 85.5523 55.0868 103.772 58.0132 105.655C60.2485 106.809 62.9865 105.677 64.2952 104.619C74.9067 96.9681 89.4235 76.5686 84.7276 47.7544" fill="#10AA50"/>
        <path d="M60.3802 89.9189C59.8279 97.2345 59.43 101.491 58.0244 105.663C58.0244 105.663 58.951 112.624 59.5949 120H61.8905C62.4385 114.805 63.2749 109.648 64.3955 104.556C61.422 103.025 60.4927 96.3358 60.3802 89.9189Z" fill="#B8C4C2"/>
        <path d="M64.3941 104.561C61.3891 103.104 60.5201 96.2809 60.3866 89.9189C61.127 79.43 61.341 68.9075 61.0279 58.395C60.8709 52.8795 61.1064 7.30163 59.7349 0.62915C60.2898 1.93452 61.6299 5.00144 62.9701 7.19171C66.1714 12.4434 78.725 19.8689 84.7401 47.757C89.428 76.497 74.9976 96.8607 64.3941 104.561Z" fill="#12924F"/>    
    </g>
<!--  -->
    <g id="StyledComponents" >
        <path d="M31.2591 0.25L30.9888 1.64963C30.5708 4.30212 30.7221 5.06099 31.8682 6.04539L32.9747 6.95461L31.8286 12.0305C31.1438 15.0588 30.3041 17.5968 29.7707 18.4308C29.313 19.1503 28.7796 20.2099 28.6642 20.7791C28.4732 21.4592 27.8245 22.1429 26.8334 22.7478C25.9576 23.2418 24.2385 24.5663 23.0203 25.6294C22.0472 26.4993 21.3769 27.0326 21.0129 27.2617L19.8235 28.196C19.4415 28.8046 19.2253 29.295 19.1424 29.6672C19.0595 30.0503 19.1063 30.3044 19.2289 30.4905C19.3478 30.6695 19.5532 30.7948 19.8343 30.8736C20.1671 30.951 20.5097 30.9788 20.8507 30.9559C21.6222 30.9035 22.3858 30.7691 23.1284 30.555C23.3807 30.487 23.5789 30.4225 23.7519 30.3653C24.0186 30.0395 24.6349 29.4238 25.7269 28.3535C28.6246 25.5149 29.731 23.9613 28.5885 24.3802C28.1669 24.5305 28.3579 24.1511 29.0823 23.3922C30.6104 21.9138 31.4862 19.6801 33.317 12.6748C34.7659 7.14433 34.7659 7.06558 35.8327 7.06558C36.3336 7.06558 37.75 7.15149 37.75 7.15149V0.25H34.4992H31.2591ZM18.4216 12.0806C17.3692 12.0735 15.1058 13.6664 8.33025 19.1611C8.03832 19.8519 8.01309 20.328 8.14644 20.6359C8.23294 20.8471 8.39152 20.9938 8.61137 21.1012C8.82761 21.2086 9.10873 21.2731 9.41867 21.2981C10.035 21.3518 10.763 21.2552 11.3504 21.1406L11.7469 21.0511C11.8826 20.8704 12.0608 20.7254 12.2659 20.6287C12.6839 20.3996 14.4391 18.8103 16.1943 17.1064C19.2829 13.9993 20.0073 12.5961 18.7495 12.1415C18.6463 12.1007 18.5326 12.08 18.4216 12.0806ZM26.336 14.2391C25.4098 14.2642 23.7411 15.3309 20.8831 17.5968C19.4487 18.753 18.5405 19.3759 18.0539 19.5047L16.1654 20.9867C15.4554 22.2753 15.3509 23.0736 15.5383 23.5139C15.5852 23.6225 15.6533 23.7208 15.7387 23.8031C15.8241 23.8855 15.925 23.9502 16.0357 23.9936C16.311 24.1015 16.6046 24.1562 16.9006 24.1546C17.608 24.1471 18.3112 24.0448 18.991 23.8504C19.3453 23.7559 19.6952 23.6461 20.0398 23.521L20.1443 23.4781L20.3353 23.3779C20.6957 22.9161 21.5246 22.0462 22.5626 21.044C25.8423 17.9011 27.5181 15.6674 27.1758 14.8333C27.0208 14.4288 26.7541 14.2248 26.336 14.2391ZM17.5998 18.1051C17.3331 18.1337 16.7349 18.5919 15.6573 19.5298C14.1003 20.8972 12.4028 21.6847 11.8154 21.3339C11.6788 21.3645 11.5419 21.3932 11.4045 21.4198C10.8062 21.5379 10.0602 21.6346 9.39344 21.5809C9.07929 21.562 8.77137 21.4855 8.48523 21.3554C8.21533 21.2328 7.99994 21.0164 7.87975 20.7468C7.7464 20.4247 7.7464 20.0238 7.89777 19.5119L5.55514 21.4234L0.253605 25.7798V32.8424L17.6251 19.2506C17.6217 19.1018 17.6411 18.9533 17.6827 18.8103C17.8161 18.3306 17.8089 18.0872 17.5998 18.1087V18.1051ZM25.0746 20.3925C24.8115 20.3925 24.3718 20.7612 23.669 21.5021C22.714 22.5152 21.2111 23.496 20.4146 23.6964L20.292 23.7609C20.1613 23.8145 20.0291 23.8646 19.8956 23.9112C19.6794 23.9828 19.3982 24.0687 19.0739 24.1546C18.4252 24.33 17.6179 24.4911 16.897 24.4732C16.5572 24.4728 16.2207 24.4072 15.9059 24.2799C15.6093 24.1585 15.3716 23.9275 15.2428 23.6356C15.0338 23.138 15.1167 22.44 15.5744 21.4485L0.25 33.4366V37.75H6.98234L21.2615 26.6103C21.6327 26.2022 22.1914 25.6438 22.9446 24.9457C24.9629 23.0879 25.4206 22.4472 25.4206 21.4986C25.4206 20.7612 25.3377 20.3889 25.0746 20.3889V20.3925ZM28.4732 27.3727L27.2514 28.5826C26.5667 29.2269 25.3449 30.0216 24.5088 30.3617L24.343 30.4333L24.3322 30.4512L24.2961 30.487C24.2637 30.512 24.2493 30.5156 24.2241 30.5263C23.8903 30.6518 23.5512 30.7629 23.2077 30.8592C22.4441 31.08 21.6586 31.218 20.8651 31.2709C20.4899 31.2948 20.1132 31.2622 19.7478 31.1743C19.4307 31.1049 19.1508 30.9213 18.9622 30.6588C18.7892 30.3939 18.7387 30.0395 18.836 29.6028C18.9134 29.2919 19.0284 28.9914 19.1784 28.7079L7.6563 37.75H22.9807L24.8115 35.6667C27.3271 32.7529 28.4732 30.6695 28.4732 28.8869V27.3727Z" fill="#7572D5" transform='scale(2.5) translate(5, 0)'/>
    </g>
<!--  -->
    <g id="reactNative">
        <path d="M59.9999 63.6073C65.9173 63.6073 70.7142 58.8103 70.7142 52.893C70.7142 46.9757 65.9173 42.1787 59.9999 42.1787C54.0826 42.1787 49.2856 46.9757 49.2856 52.893C49.2856 58.8103 54.0826 63.6073 59.9999 63.6073Z" fill="#F5DE19"/>
        <path d="M60 77.4583C47.122 77.7698 34.2763 76.0339 21.9429 72.3155C16.2455 70.5094 10.9317 67.6643 6.27 63.924C4.49113 62.6463 3.00974 60.9988 1.92747 59.0946C0.845197 57.1905 0.18767 55.0748 0 52.8926C0 45.8083 7.78286 38.8655 20.82 34.3226C33.4831 30.2972 46.714 28.3463 60 28.5455C73.1087 28.3623 86.1623 30.2779 98.6657 34.2197C104.153 35.969 109.286 38.6765 113.829 42.2169C115.577 43.4351 117.036 45.0228 118.103 46.8677C119.169 48.7126 119.817 50.7695 120 52.8926C120 60.2555 111.3 67.7169 97.2857 72.354C85.1911 75.9513 72.6164 77.6728 60 77.4583ZM60 33.6712C47.2891 33.5013 34.6321 35.3559 22.5043 39.1655C10.5043 43.3526 5.12571 49.0783 5.12571 52.8797C5.12571 56.8569 10.9071 63.1097 23.6014 67.4512C35.4003 70.9905 47.6855 72.6381 60 72.3326C72.0703 72.5484 84.1025 70.9152 95.6786 67.4897C108.857 63.1226 114.857 56.8612 114.857 52.8926C114.641 51.5307 114.145 50.2285 113.4 49.0681C112.655 47.9078 111.677 46.9145 110.529 46.1512C106.465 43.0104 101.879 40.6108 96.9814 39.0626C85.0201 35.3073 72.5356 33.4872 60 33.6712Z" fill="#F5DE19"/>
        <path d="M35.6553 106.331C33.656 106.377 31.6803 105.892 29.9295 104.925C23.7924 101.385 21.6667 91.1767 24.2424 77.6124C27.0823 64.6313 32.003 52.1951 38.8138 40.7852C45.2027 29.3385 53.3818 18.9877 63.041 10.1252C67.2974 6.24538 72.2076 3.1504 77.5438 0.983791C79.4739 0.0792446 81.5794 -0.389648 83.711 -0.389648C85.8425 -0.389648 87.948 0.0792446 89.8781 0.983791C96.2595 4.66093 98.3724 15.9238 95.3938 30.3795C92.4662 42.6562 87.6734 54.4114 81.1824 65.2352C75.0184 76.5468 67.0969 86.8074 57.7138 95.6338C53.3029 99.6657 48.1838 102.846 42.6153 105.015C40.3859 105.843 38.0328 106.287 35.6553 106.331ZM43.2538 43.3309C36.7571 54.2566 32.041 66.1468 29.2824 78.5552C26.9124 91.0481 29.1881 98.5609 32.4967 100.472C35.9253 102.457 44.2481 100.575 54.3538 91.7467C63.3111 83.2907 70.872 73.4689 76.7553 62.6466C82.9736 52.2989 87.5711 41.0601 90.3881 29.3209C93.191 15.7138 90.7695 7.38236 87.3324 5.40236C86.0442 4.90876 84.6675 4.6878 83.2895 4.75346C81.9115 4.81911 80.5622 5.16995 79.3267 5.78379C74.5767 7.74385 70.2098 10.5265 66.4267 14.0038C57.1981 22.4929 49.3854 32.4021 43.2838 43.3566L43.2538 43.3309Z" fill="#F5DE19"/>
        <path d="M84.3262 106.387C78.5191 106.387 71.1434 102.872 63.4634 96.2681C53.6349 87.325 45.3175 76.8512 38.8334 65.2524C32.1079 53.9996 27.2262 41.7433 24.3734 28.9481C23.1361 23.3187 22.9068 17.5146 23.6962 11.8052C23.8787 9.68726 24.5236 7.63511 25.5855 5.7935C26.6474 3.95188 28.1003 2.36565 29.8419 1.14666C36.2148 -2.54334 47.0276 1.24951 58.0634 11.0467C67.2373 19.7132 75.0279 29.7354 81.1634 40.7638C87.8846 51.7539 92.8175 63.7418 95.7776 76.2795C97.0681 82.1154 97.2672 88.1397 96.3648 94.0481C96.1501 96.227 95.4667 98.3337 94.3615 100.224C93.2564 102.114 91.7555 103.742 89.9619 104.998C88.2398 105.953 86.2947 106.432 84.3262 106.387ZM43.2691 62.6724C49.4895 73.7571 57.4346 83.7811 66.8062 92.3681C76.4448 100.661 84.0905 102.444 87.3776 100.511C90.8062 98.5181 93.3348 90.3838 90.7291 77.2224C87.8743 65.2521 83.1429 53.8091 76.7105 43.3181C70.8555 32.7629 63.4194 23.1661 54.6605 14.8609C44.2719 5.63808 35.8462 3.57666 32.4134 5.56523C31.3434 6.43472 30.4654 7.51661 29.8347 8.7426C29.204 9.96858 28.8343 11.312 28.7491 12.6881C28.0677 17.7799 28.2896 22.952 29.4048 27.9667C32.1489 40.203 36.8308 51.9221 43.2734 62.6809L43.2691 62.6724Z" fill="#F5DE19"/>    
    </g>
<!--  -->
    <g id="docker">
        34 39.3171 96.1307 35.6842L93.5413 33.8092L91.7394 36.5046C89.488 40.0202 88.3621 44.9421 88.6996 49.6296C88.8121 51.2697 89.375 54.1994 91.0639 56.7775C89.488 57.715 86.2227 58.8869 81.9444 58.8869H0.541279L0.316279 59.8244C-0.472159 64.5114 -0.472159 79.1594 8.76034 90.4089C15.741 98.9632 26.0994 103.299 39.7227 103.299C69.2211 103.299 91.0639 89.1194 101.31 63.4567C105.363 63.5739 114.033 63.4567 118.424 54.6677C118.536 54.4333 118.761 53.9646 119.549 52.2072L120 51.2697L117.523 49.7463ZM65.6183 16.7008H53.2339V28.4191H65.6183V16.7008ZM65.6183 30.7628H53.2339V42.4811H65.6183V30.7624V30.7628ZM50.9816 30.7628H38.5972V42.4811H50.9816V30.7624V30.7628ZM36.3449 30.7628H23.96V42.4811H36.3449V30.7624V30.7628ZM21.7082 44.8249H9.32331V56.5432H21.7077V44.8244L21.7082 44.8249ZM36.3449 44.8249H23.96V56.5432H36.3449V44.8244V44.8249ZM50.9816 44.8249H38.5972V56.5432H50.9816V44.8244V44.8249ZM65.6188 44.8249H53.2335V56.5432H65.6188V44.8244V44.8249ZM80.2555 44.8249H67.8702V56.5432H80.2555V44.8244V44.8249Z" fill="#2396ED"/>
    </g>
<!--  -->
    <g id="nestJS">
        <path fill-rule="evenodd" clip-rule="evenodd" d="M70.6687 0C69.8449 0.00936615 69.0283 0.154155 68.2515 0.428571C75.1558 4.96286 67.0515 11.5457 70.823 17.1429C70.5591 15.2693 70.8564 13.3595 71.6771 11.6547C72.4978 9.94995 73.8053 8.52656 75.4344 7.56429C76.6558 6.54857 77.4358 6.18429 77.1744 4.50429C76.763 1.75286 73.0944 0 70.6687 0ZM80.5258 1.77429C79.5744 6.58714 78.383 6.76286 74.8558 9.86143C73.4787 10.9449 72.5066 12.4606 72.0961 14.164C71.6856 15.8675 71.8606 17.6596 72.593 19.2514C58.0215 13.5943 39.3444 10.1743 25.6515 19.9629C20.7272 23.4814 17.7187 28.5343 11.6458 30.5957C7.7201 31.9371 3.86296 31.5429 1.41153 35.4343C0.511845 36.558 0.0418561 37.9654 0.0858371 39.4042C0.129818 40.843 0.684892 42.2191 1.65153 43.2857C2.3801 44.0357 3.79439 44.5157 4.37725 45.2786C4.71582 45.7071 4.70725 46.1357 5.02868 46.7057C5.59537 48.0348 6.41649 49.2403 7.44582 50.2543C8.07153 50.7729 10.2401 51.2786 10.6087 51.8314C11.0672 52.5214 9.86725 55.26 10.8744 55.6886C11.5558 56.0014 13.5401 52.5 13.733 52.1914C13.3387 54.9471 12.8201 59.8371 15.9187 55.7657C17.3887 53.8329 17.4787 53.1943 19.9515 52.7657C24.832 51.9298 29.8328 52.1146 34.6382 53.3084C39.4437 54.5023 43.9495 56.6792 47.8714 59.7019C51.7933 62.7245 55.0461 66.5273 57.4245 70.8702C59.8029 75.2131 61.2553 80.0019 61.6901 84.9343C61.2272 82.7914 58.4287 79.3629 55.823 80.1771C54.713 80.52 54.3015 82.4357 53.573 83.5457C52.6531 84.9541 51.5179 86.2094 50.2087 87.2657C50.4322 85.1881 50.3281 83.0882 49.9001 81.0429C49.1201 84.2486 47.5558 89.5671 43.6172 88.7057C42.3052 88.5054 41.0759 87.9403 40.0695 87.0749C39.0632 86.2095 38.3204 85.0787 37.9258 83.8114C37.4158 80.5543 40.8572 76.7357 35.3244 76.4657C24.2244 75.9214 26.7915 92.2457 33.3444 96.5014C31.8384 96.668 30.3693 97.0776 28.9944 97.7143C33.1537 100.131 37.8403 101.496 42.6469 101.69C47.4535 101.883 52.2348 100.901 56.5751 98.8262C60.9155 96.7519 64.6836 93.6491 67.552 89.7873C70.4205 85.9255 72.3024 81.4217 73.0344 76.6671C74.5608 83.6224 73.5802 90.8933 70.2658 97.1957C68.8786 99.8304 67.1014 102.24 64.9944 104.344C63.7087 105.63 61.163 107.044 60.3272 108.377C65.5285 107.689 70.6113 106.294 75.4344 104.229C70.4422 111.031 63.8069 116.457 56.1487 120C64.3719 119.418 72.321 116.798 79.2791 112.377C86.2372 107.956 91.9856 101.873 96.0058 94.6757C94.7246 101.874 91.8791 108.703 87.6701 114.681C93.3312 110.891 98.1476 105.972 101.817 100.232C105.486 94.4917 107.929 88.0549 108.992 81.3257C110.045 86.2519 110.347 91.3092 109.887 96.3257C114.539 89.8646 117.682 82.4422 119.085 74.6051C120.487 66.7682 120.114 58.7163 117.992 51.0429C116.367 45.0782 113.932 39.3648 110.753 34.0629C109.523 31.9968 108.176 30.0021 106.72 28.0886C106.15 27.3471 103.103 24.6343 103.103 23.8029C103.077 23.8857 103.056 23.8857 103.039 23.8029C103.039 37.8 88.0387 46.5643 75.4772 42.93C80.3399 42.5484 84.9268 40.5192 88.4801 37.1778C92.0334 33.8365 94.3405 29.3829 95.0201 24.5529C95.5934 19.6687 94.4652 14.7362 91.8258 10.5868C89.1863 6.43752 85.1969 3.32511 80.5301 1.77429H80.5258Z" fill="url(#paint0_linear_1_2448)"/>
        <defs>
        <linearGradient id="paint0_linear_1_2448" x1="59.993" y1="120" x2="59.993" y2="0" gradientUnits="userSpaceOnUse">
        <stop stop-color="#FFB199"/>
        <stop offset="1" stop-color="#FF0844"/>
        </linearGradient>
        </defs>    
    </g>

    <g id="express">
        <path d="M37.2184 73.3891V47.1349H38.6425V51.2647C38.8106 51.0816 38.9659 50.8871 39.1073 50.6826C40.2967 48.2149 42.8053 46.6576 45.5441 46.6883C48.791 46.5915 51.4295 47.7934 52.98 50.6826C53.9667 52.4774 54.5097 54.4823 54.5636 56.5298C54.6175 58.5773 54.1808 60.6079 53.2899 62.4522C51.8453 65.69 48.2772 67.2998 44.4572 66.7085C43.2684 66.6074 42.1239 66.2102 41.1281 65.5531C40.1322 64.896 39.3169 63.9999 38.7564 62.9467V73.388L37.2184 73.3891ZM38.6425 56.4221L38.9615 59.505C39.5243 63.0139 41.5988 65.0873 44.856 65.477C46.3856 65.7284 47.955 65.4417 49.2968 64.6655C50.6386 63.8894 51.6698 62.672 52.2144 61.2207C53.4813 58.2017 53.3879 54.7839 51.9638 51.8355C51.3825 50.5345 50.3935 49.4582 49.1464 48.769C47.8992 48.0799 46.4616 47.8154 45.0508 48.0156C43.7266 48.1119 42.4652 48.6183 41.4419 49.4643C40.4187 50.3104 39.6843 51.4541 39.3408 52.7366C39.0376 53.9503 38.8044 55.1805 38.6425 56.421V56.4221ZM83.6409 59.9903C83.4249 61.8388 82.5449 63.546 81.1646 64.7943C79.7842 66.0427 77.9974 66.7472 76.1366 66.7768C70.1646 67.0776 67.362 63.1119 66.9166 58.5355C66.6068 56.0502 67.0102 53.5282 68.0797 51.2636C68.8241 49.7101 70.0438 48.4339 71.5619 47.6199C73.0801 46.8059 74.8181 46.4964 76.5239 46.7362C78.1456 46.874 79.6829 47.5184 80.9182 48.5781C82.1535 49.6377 83.0243 51.0591 83.4073 52.6409C83.7107 54.0819 83.934 55.5386 84.0761 57.0043H68.3919C68.1014 61.1535 70.3309 64.4892 73.4912 65.2935C77.4273 66.2619 80.7916 64.5564 82.0129 60.814C82.284 59.8536 82.7785 59.718 83.6511 59.9903H83.6409ZM68.3805 55.6759H82.4093C82.3216 51.2556 79.5692 48.0429 75.8358 48.0064C71.6206 47.9381 68.5639 51.0221 68.3805 55.6759ZM86.5403 60.0871H87.9154C87.9659 61.1002 88.2949 62.0797 88.8661 62.9178C89.4373 63.756 90.2287 64.4204 91.1531 64.8378C92.3139 65.3602 93.5775 65.6141 94.8499 65.5805C96.1224 65.547 97.3708 65.2269 98.5025 64.6442C99.1193 64.3664 99.6361 63.906 99.9828 63.3251C100.33 62.7442 100.49 62.0709 100.441 61.3961C100.477 60.7454 100.299 60.1007 99.9354 59.56C99.5715 59.0193 99.0413 58.612 98.425 58.3999C96.9121 57.8371 95.3034 57.5272 93.762 57.0328C92.1581 56.5761 90.5897 56.0027 89.0694 55.3171C86.5858 54.1049 86.432 49.3838 89.2437 47.8891C90.6834 47.0767 92.3036 46.6377 93.9565 46.6123C95.6094 46.5868 97.2424 46.9756 98.7064 47.7433C100.522 48.7458 101.526 50.7703 101.228 52.8244H100.048C100.048 52.7674 99.9414 52.7173 99.9414 52.6592C99.7955 48.8996 96.6352 47.7239 93.2425 48.0543C92.2172 48.1682 91.2454 48.4781 90.334 48.9361C89.7861 49.1863 89.3296 49.6006 89.0275 50.1217C88.7254 50.6427 88.5928 51.2448 88.6479 51.8446C88.649 52.4448 88.8361 53.03 89.1833 53.5196C89.5305 54.0092 90.0209 54.3792 90.5869 54.5788C92.0679 55.1222 93.6401 55.4709 95.1724 55.8969L98.875 56.8653C99.7166 57.1415 100.454 57.6667 100.991 58.3714C101.528 59.076 101.838 59.927 101.88 60.8117C102.177 62.7997 101.163 64.7535 99.3695 65.6592C96.1317 67.4912 90.7988 67.007 88.4235 64.6909C87.2079 63.4684 86.53 61.8085 86.5437 60.086L86.5403 60.0871ZM119.328 52.8255H118.038C118.038 52.6512 117.97 52.4837 117.951 52.3504C117.93 51.3837 117.578 50.4535 116.953 49.7157C116.328 48.9779 115.468 48.4774 114.518 48.2981C112.726 47.784 110.814 47.8761 109.079 48.5601C108.393 48.7564 107.79 49.1694 107.358 49.7374C106.926 50.3055 106.69 50.9979 106.685 51.7113C106.66 52.4118 106.878 53.0993 107.302 53.6575C107.726 54.2157 108.33 54.6103 109.011 54.7748L114.906 56.2877C115.543 56.4406 116.171 56.6316 116.785 56.8596C118.665 57.5432 119.941 59.2885 119.998 61.2833C120.026 62.2598 119.758 63.2219 119.23 64.0434C118.701 64.8648 117.936 65.5071 117.036 65.8859C115.668 66.5074 114.185 66.8362 112.682 66.8513C111.18 66.8664 109.691 66.5675 108.31 65.9737C107.175 65.4842 106.217 64.6587 105.565 63.6083C104.914 62.5579 104.599 61.333 104.665 60.0985H105.925C106.399 62.3827 107.967 64.2853 110.119 65.1853C112.272 66.0853 114.729 65.8643 116.686 64.5974C117.273 64.2921 117.761 63.8248 118.091 63.251C118.421 62.6772 118.579 62.0208 118.548 61.3597C118.577 60.7084 118.393 60.0655 118.024 59.5282C117.654 58.991 117.12 58.5889 116.502 58.3828C114.989 57.82 113.38 57.5204 111.839 57.0157C110.226 56.5661 108.648 55.9991 107.118 55.3193C104.693 54.1265 104.5 49.4442 107.263 47.9506C108.721 47.1041 110.373 46.6494 112.058 46.6306C113.743 46.6118 115.405 47.0297 116.881 47.8435C117.725 48.3474 118.405 49.0858 118.837 49.9689C119.269 50.8521 119.435 51.8418 119.314 52.8175L119.328 52.8255ZM34.875 66.3029C34.3673 66.4949 33.807 66.4944 33.2997 66.3015C32.7924 66.1086 32.3732 65.7367 32.1214 65.2559L27.1086 58.3236L26.3818 57.3552L20.5647 65.2662C20.3276 65.7263 19.9312 66.0843 19.4494 66.2734C18.9676 66.4625 18.4335 66.4698 17.9467 66.2938L25.4408 56.2399L18.4685 47.1554C19.5029 46.7817 20.6559 47.1873 21.2312 48.1238L26.4262 55.1416L31.652 48.1511C31.8908 47.6989 32.2876 47.3503 32.7667 47.1716C33.2458 46.9928 33.774 46.9964 34.2506 47.1816L31.5449 50.7714L27.8799 55.5415C27.7782 55.6323 27.6968 55.7436 27.6411 55.8681C27.5854 55.9926 27.5565 56.1274 27.5565 56.2638C27.5565 56.4002 27.5854 56.535 27.6411 56.6595C27.6968 56.7839 27.7782 56.8952 27.8799 56.9861L34.8601 66.3029H34.875ZM66.6944 47.0586V48.4257C65.7138 48.3614 64.7306 48.5034 63.8083 48.8425C62.886 49.1817 62.0451 49.7105 61.3398 50.3947C60.6345 51.079 60.0805 51.9036 59.7135 52.8152C59.3466 53.7268 59.1749 54.7052 59.2095 55.6873C59.2095 58.8803 59.2095 62.0732 59.2095 65.2662V66.3519H57.823V47.144H59.1901V51.0802C60.8671 48.2092 63.4555 47.144 66.7035 47.0666L66.6944 47.0586ZM0.00227889 56.1145L0.612921 53.0989C2.28991 47.1361 9.12545 44.6547 13.8283 48.3482C16.5819 50.5105 17.2689 53.574 17.1344 57.0259H1.62116C1.37053 63.1916 5.81933 66.9147 11.5099 65.0144C13.3851 64.3309 14.7967 62.7724 15.2615 60.8356C15.5623 59.8673 16.059 59.7009 16.9681 59.9812C16.8165 61.1616 16.3992 62.2923 15.7476 63.2882C15.096 64.2841 14.2271 65.1193 13.2063 65.731C11.5197 66.6534 9.58459 67.0189 7.67775 66.7752C5.77091 66.5315 3.98995 65.6911 2.58953 64.3742C1.2042 62.8168 0.367981 60.8482 0.205067 58.769C0.205067 58.4272 0.0911409 58.1082 0.0113928 57.8006C0.00379779 57.2257 0 56.6637 0 56.1145H0.00227889ZM1.64053 55.6976H15.6693C15.5816 51.2283 12.7608 48.0577 8.99899 48.0281C4.81108 47.9711 1.81484 51.0722 1.63028 55.6782L1.64053 55.6976Z" fill="#1F2626"/>    
    </g>
    <g id="jest">
        <path d="M107.525 59.083C107.525 52.9145 102.524 47.9135 96.3553 47.9135C95.9581 47.9135 95.567 47.9348 95.1809 47.9756L110.522 2.72803H45.327L60.647 47.936C60.421 47.9218 60.1945 47.9144 59.968 47.9139C53.7995 47.9139 48.7986 52.914 48.7986 59.0834C48.7986 64.0695 52.0665 68.2911 56.5764 69.7273C54.1945 73.8533 51.197 77.5697 47.7939 80.7807C43.1662 85.146 37.8702 88.4565 32.1422 90.496C25.3223 86.9926 22.102 79.2012 25.0077 72.3698C25.3359 71.5981 25.6709 70.8162 25.9911 70.0377C30.9317 68.8846 34.6137 64.4555 34.6137 59.1633C34.6137 52.9944 29.6128 47.9939 23.4439 47.9939C17.2749 47.9939 12.2744 52.9944 12.2744 59.1633C12.2744 62.9461 14.1562 66.2876 17.0334 68.3081C14.2689 74.6024 10.2051 81.1901 8.93887 88.8251C7.4214 97.9749 8.93377 107.688 16.8476 113.173C35.2783 125.947 55.2847 105.254 76.3786 100.052C84.0234 98.1671 92.4151 98.4707 99.1504 94.5701C104.208 91.6406 107.543 86.7855 108.489 81.3351C109.424 75.9507 108.061 70.5896 104.927 66.2425C106.608 64.2361 107.528 61.7009 107.525 59.083Z" fill="#99425B"/>
        <path d="M105.802 80.8682C104.98 85.6005 102.058 89.7336 97.7837 92.2094C93.7993 94.5169 89.025 95.2057 83.9696 95.9344C81.2617 96.3247 78.4614 96.7291 75.7258 97.4034C68.4927 99.187 61.4866 102.667 54.7118 106.032C41.1528 112.767 29.4434 118.583 18.4023 110.931C10.3146 105.325 10.6879 94.9544 11.6301 89.2715C12.5034 84.006 14.8644 79.1569 17.1472 74.4676C17.5361 73.6706 17.9219 72.8721 18.3045 72.0721C19.4553 72.5321 20.6627 72.835 21.8943 72.9726C19.5703 80.6424 23.2251 88.9819 30.8958 92.9225L31.946 93.462L33.0574 93.0662C39.1217 90.9063 44.7099 87.4411 49.6662 82.7645C52.8699 79.7419 55.6246 76.3979 57.8887 72.8247C58.577 72.9285 59.2722 72.9807 59.9683 72.9807C67.0088 72.9807 72.8389 67.7174 73.7411 60.9197C76.623 60.8142 79.6838 60.8134 82.5823 60.9188C83.4837 67.7174 89.3146 72.9811 96.3551 72.9811C99.299 72.9811 102.03 72.0585 104.279 70.4913C105.841 73.6882 106.424 77.2852 105.802 80.8682ZM23.4445 50.7217C28.0994 50.7217 31.886 54.5088 31.886 59.1637C31.886 60.8355 31.3954 62.3946 30.5531 63.7076C29.15 65.896 26.7648 67.396 24.0245 67.5831C23.8327 67.5958 23.6393 67.6052 23.4445 67.6052C22.4071 67.6052 21.4135 67.416 20.4946 67.0724C18.6442 66.3766 17.0946 65.0568 16.1132 63.3406C15.3844 62.0692 15.0015 60.6291 15.0026 59.1637C15.0026 54.5088 18.7897 50.7217 23.4445 50.7217ZM51.5272 59.0833C51.5272 54.8541 54.6535 51.3425 58.7157 50.7353C59.1247 50.6737 59.5431 50.6418 59.9687 50.6418C62.675 50.6418 65.0845 51.9237 66.6296 53.9102C67.0166 54.4055 67.3471 54.9424 67.6151 55.511C68.1398 56.6287 68.4113 57.8485 68.4102 59.0833C68.4102 59.7581 68.3286 60.4141 68.1785 61.0434C67.3558 64.4873 64.419 67.12 60.8203 67.4823C60.5406 67.5104 60.2565 67.5248 59.9687 67.5248C58.345 67.5262 56.7558 67.0563 55.3938 66.1723C53.0697 64.6668 51.5272 62.0523 51.5272 59.0833ZM86.7597 49.0448C84.9227 50.7983 83.6006 53.021 82.9369 55.4723C79.7551 55.355 76.57 55.355 73.3882 55.4723C72.6739 52.8226 71.1934 50.4849 69.2015 48.7094L77.9368 31.0466L86.7597 49.0453V49.0448ZM49.1322 5.45675H106.717L93.1161 45.5703C92.5309 45.7104 91.9556 45.8887 91.3937 46.1039L77.958 18.6956L64.4841 45.9402C63.8967 45.7386 63.2964 45.5768 62.6873 45.4559L49.1322 5.45675ZM104.797 59.0837C104.797 59.9298 104.67 60.747 104.438 61.5187C103.886 63.3355 102.74 64.9144 101.184 66.0023C99.7694 66.9949 98.0831 67.5268 96.3551 67.5252C92.4575 67.5252 89.1696 64.8691 88.2027 61.2721C88.0107 60.5585 87.9135 59.8227 87.9136 59.0837C87.9136 57.9298 88.1466 56.8294 88.5675 55.8269C88.7847 55.3139 89.0522 54.8237 89.366 54.3634C90.8852 52.121 93.4486 50.6422 96.3551 50.6422C96.6217 50.6422 96.8844 50.6558 97.1451 50.6805C101.431 51.0797 104.797 54.695 104.797 59.0837H104.797ZM110.253 59.0837C110.253 52.2987 105.364 46.6375 98.9253 45.4283L114.328 0H41.5223L56.9486 45.5201C50.7334 46.9032 46.0713 52.4573 46.0713 59.0833C46.0713 64.0588 48.7006 68.4287 52.6412 70.8846C50.7457 73.7086 48.4982 76.366 45.9225 78.7963C41.8374 82.6497 37.2867 85.5724 32.3805 87.4955C27.4387 84.3913 25.3498 78.537 27.519 73.4374L27.6891 73.0377L28.008 72.2877C33.4358 70.3943 37.3419 65.2284 37.3419 59.1637C37.3419 51.5002 31.1075 45.2658 23.4445 45.2658C15.7811 45.2658 9.54671 51.5002 9.54671 59.1637C9.54671 63.0315 11.1369 66.5342 13.6956 69.0563C13.2184 70.0674 12.7339 71.0751 12.2423 72.0793C9.90258 76.8843 7.25116 82.3304 6.24817 88.3786C4.25663 100.39 7.46928 109.992 15.2947 115.415C20.0431 118.706 24.8655 120 29.7181 120C38.8552 120 48.0985 115.409 57.1391 110.919C63.6499 107.685 70.3826 104.341 77.0328 102.701C79.5074 102.091 82.0534 101.723 84.749 101.335C90.0948 100.563 95.6221 99.7662 100.518 96.9306C106.194 93.6431 110.079 88.1286 111.178 81.8019C112.121 76.3702 110.986 70.9301 108.218 66.316C109.552 64.1395 110.256 61.636 110.253 59.0833L110.253 59.0837Z" fill="white"/>    
    </g>
    <g id="PostgreSQL">
        <path d="M117.889 71.8826C117.189 69.7638 115.357 68.2881 112.987 67.9339C111.869 67.7671 110.59 67.8382 109.075 68.1504C106.435 68.695 104.477 68.9024 103.048 68.9425C108.443 59.8342 112.829 49.4475 115.355 39.6702C119.438 23.8605 117.256 16.6581 114.706 13.4004C107.958 4.77748 98.1119 0.145172 86.234 0.00343171C79.8976 -0.0740469 74.3351 1.177 71.4333 2.07667C68.7316 1.59995 65.8266 1.33378 62.7785 1.28456C57.0647 1.19341 52.0163 2.43899 47.7026 4.99898C45.3144 4.19138 41.4815 3.0529 37.0552 2.32642C26.6448 0.617335 18.2543 1.94906 12.1171 6.28467C4.68552 11.5341 1.24046 20.6547 1.87761 33.3931C2.07996 37.4374 4.34234 49.7429 7.90453 61.413C9.95179 68.1208 12.1349 73.691 14.3931 77.9706C17.5957 84.039 21.0226 87.6126 24.8696 88.896C27.0258 89.6143 30.9435 90.1174 35.064 86.6856C35.5863 87.3182 36.2831 87.9467 37.2079 88.5305C38.3823 89.2711 39.8184 89.8763 41.2527 90.235C46.4214 91.5271 51.2629 91.2039 55.3934 89.3928C55.419 90.1274 55.4386 90.8293 55.455 91.4355C55.4823 92.4185 55.5097 93.3825 55.5457 94.284C55.7904 100.379 56.2051 105.119 57.4339 108.435C57.5013 108.617 57.592 108.895 57.6877 109.19C58.3007 111.067 59.3257 114.209 61.9335 116.669C64.6339 119.218 67.9003 120 70.8919 120C72.3923 120 73.8238 119.803 75.0794 119.534C79.5549 118.575 84.638 117.114 88.315 111.878C91.7915 106.928 93.4815 99.4736 93.7873 87.7274C93.8269 87.3952 93.8634 87.078 93.8985 86.7758L93.9714 86.1551L94.7904 86.2271L95.0014 86.2412C99.5599 86.449 105.134 85.4824 108.557 83.8922C111.262 82.6371 119.93 78.0608 117.889 71.8826Z" fill="#1F2626"/>
        <path d="M110.095 73.0841C96.5413 75.8801 95.6093 71.2911 95.6093 71.2911C109.92 50.0561 115.903 23.1013 110.74 16.5042C96.6557 -1.49137 72.275 7.01943 71.868 7.24001L71.7372 7.26371C69.0592 6.70769 66.0626 6.37681 62.6941 6.32167C56.5614 6.2214 51.909 7.92957 48.3788 10.6067C48.3788 10.6067 4.88593 -7.31092 6.90903 33.1411C7.33926 41.7467 19.2436 98.2564 33.4423 81.1879C38.632 74.9463 43.6466 69.6691 43.6466 69.6691C46.1369 71.3235 49.1185 72.1675 52.244 71.8645L52.4869 71.6585C52.4113 72.4332 52.4459 73.1912 52.584 74.0885C48.9261 78.1753 50.0013 78.8927 42.6891 80.398C35.2899 81.923 39.6364 84.6375 42.4744 85.3476C45.9149 86.2076 53.8743 87.4263 59.2522 79.8976L59.038 80.7567C60.4709 81.9048 61.4772 88.2234 61.3086 93.9518C61.1399 99.6797 61.0274 103.612 62.1563 106.684C63.2861 109.756 64.4114 116.668 74.0242 114.608C82.056 112.887 86.2184 108.426 86.7977 100.985C87.2083 95.696 88.1385 96.478 88.1968 91.7487L88.9429 89.51C89.8029 82.3396 89.0796 80.0261 94.0278 81.1022L95.231 81.2079C98.8725 81.3734 103.64 80.6218 106.438 79.3215C112.462 76.5259 116.035 71.8576 110.095 73.0841H110.095Z" fill="#336791"/>
        <path d="M50.9253 36.9892C49.7039 36.8192 48.5978 36.9765 48.0381 37.4003C47.7236 37.6387 47.6261 37.9149 47.5997 38.1049C47.5295 38.6085 47.8822 39.1654 48.0992 39.4526C48.7126 40.2656 49.6086 40.8244 50.4955 40.9475C50.6241 40.9657 50.7521 40.9739 50.8793 40.9739C52.3582 40.9739 53.7032 39.8222 53.8216 38.9722C53.9698 37.9076 52.4243 37.1979 50.9253 36.9897" fill="white"/>
        <path d="M91.3868 37.0233C91.2701 36.1888 89.7853 35.9509 88.3761 36.1469C86.9687 36.3429 85.6042 36.9782 85.7181 37.8145C85.8092 38.4649 86.9837 39.5751 88.3738 39.5751C88.4914 39.5751 88.6099 39.5673 88.7293 39.5505C89.6572 39.422 90.3381 38.8327 90.6617 38.4931C91.1539 37.9754 91.4392 37.3984 91.3868 37.0233Z" fill="white"/>
        <path d="M114.606 72.7665C114.089 71.2037 112.426 70.701 109.662 71.2716C101.456 72.9652 98.5173 71.7921 97.5525 71.0815C103.931 61.3648 109.178 49.619 112.009 38.6604C113.349 33.4693 114.09 28.6483 114.151 24.7188C114.218 20.406 113.483 17.2366 111.968 15.3006C105.86 7.49576 96.8953 3.30918 86.0437 3.19433C78.5834 3.11047 72.2803 5.01963 71.0584 5.55651C68.4852 4.91663 65.68 4.52377 62.626 4.47364C57.0257 4.38294 52.1846 5.72378 48.1767 8.45695C46.4357 7.80886 41.9365 6.2643 36.4341 5.37786C26.9216 3.84652 19.3624 5.00687 13.9681 8.82839C7.53144 13.3887 4.55991 21.5403 5.13553 33.0564C5.32923 36.9308 7.53691 48.8497 11.0207 60.2642C15.6065 75.2877 20.5916 83.7926 25.8364 85.5422C26.4503 85.7469 27.1581 85.89 27.9388 85.89C29.8521 85.89 32.1979 85.0277 34.6385 82.0935C37.6153 78.5225 40.6946 75.0381 43.8726 71.6448C45.9344 72.7514 48.1995 73.3694 50.5161 73.4314C50.5207 73.492 50.5266 73.5526 50.5321 73.6128C50.1333 74.0883 49.7428 74.5707 49.3608 75.0598C47.7556 77.0975 47.4215 77.5218 42.2546 78.5856C40.7848 78.8891 36.8812 79.6935 36.8238 82.4299C36.7618 85.4196 41.4384 86.6752 41.9711 86.8083C43.8279 87.2732 45.6167 87.5024 47.3226 87.5024C51.4714 87.5024 55.1224 86.1388 58.0402 83.5004C57.9504 94.1588 58.3948 104.661 59.6745 107.861C60.7228 110.481 63.2832 116.883 71.3711 116.882C72.5579 116.882 73.8641 116.744 75.3011 116.436C83.7421 114.627 87.4078 110.896 88.8256 102.671C89.5845 98.2751 90.8866 87.7786 91.4991 82.1482C92.7916 82.5516 94.4556 82.7361 96.2545 82.7357C100.006 82.7357 104.335 81.9386 107.05 80.6784C110.1 79.2619 115.604 75.7863 114.606 72.7665ZM94.5044 34.7199C94.4766 36.3821 94.2478 37.8911 94.0053 39.4662C93.7442 41.1602 93.4743 42.9117 93.4064 45.0378C93.3394 47.1069 93.5979 49.2581 93.8476 51.3386C94.3526 55.5407 94.8708 59.8667 92.865 64.1353C92.5318 63.545 92.235 62.9348 91.9763 62.3082C91.727 61.7039 91.1855 60.7331 90.4358 59.3896C87.5194 54.1593 80.6899 41.9113 84.186 36.9135C85.2274 35.4259 87.8704 33.8964 94.5044 34.7199ZM86.463 6.56009C96.1861 6.77475 103.877 10.4121 109.323 17.3706C113.499 22.708 108.9 46.9939 95.5863 67.9455C95.4524 67.7752 95.3178 67.6055 95.1825 67.4364L95.0139 67.2258C98.4544 61.5439 97.7817 55.9222 97.1828 50.938C96.9367 48.8926 96.7043 46.9606 96.7635 45.1458C96.8246 43.2225 97.0789 41.5727 97.325 39.9775C97.6272 38.0118 97.9348 35.9778 97.8501 33.5801C97.9134 33.3285 97.9389 33.0313 97.9057 32.6786C97.6892 30.3793 95.064 23.4978 89.7134 17.2695C86.7866 13.8627 82.5184 10.0503 76.6907 7.4789C79.1973 6.95933 82.6251 6.47486 86.463 6.56009ZM32.0557 79.946C29.3667 83.1791 27.51 82.5593 26.8993 82.356C22.9205 81.0289 18.3037 72.6193 14.2333 59.2838C10.7113 47.745 8.65306 36.1419 8.4899 32.8882C7.97581 22.5982 10.4702 15.4268 15.9041 11.573C24.7476 5.30175 39.2872 9.05536 45.1295 10.9591C45.0457 11.042 44.9582 11.1195 44.8752 11.2038C35.2879 20.8859 35.5153 37.428 35.539 38.4393C35.5381 38.8295 35.5709 39.3818 35.6156 40.1416C35.7806 42.924 36.0878 48.1023 35.2674 53.9665C34.5054 59.416 36.1853 64.7497 39.8756 68.6004C40.2543 68.9948 40.6524 69.3702 41.0683 69.7252C39.4257 71.4844 35.8558 75.3748 32.0557 79.946ZM42.3006 66.2765C39.3264 63.1728 37.9755 58.8559 38.594 54.4314C39.4599 48.2367 39.1404 42.8415 38.9686 39.9429C38.9445 39.5373 38.923 39.1818 38.9107 38.9015C40.3113 37.6595 46.8017 34.1821 51.4304 35.2427C53.5423 35.7262 54.8294 37.1646 55.3645 39.6384C58.1336 52.4466 55.7309 57.7848 53.8003 62.0749C53.4024 62.9586 53.0264 63.794 52.7056 64.6581L52.4567 65.3262C51.8269 67.0153 51.2408 68.5858 50.8775 70.077C47.7155 70.0679 44.6396 68.7171 42.3006 66.276V66.2765ZM42.786 83.5497C41.8627 83.319 41.0323 82.9184 40.5451 82.5862C40.9521 82.3948 41.6763 82.1341 42.9323 81.8752C49.0107 80.6242 49.9496 79.7409 51.9996 77.1381C52.4695 76.541 53.0023 75.8647 53.7401 75.0407L53.741 75.0398C54.8399 73.8092 55.3426 74.018 56.2541 74.3962C56.9929 74.7016 57.7125 75.6277 58.0042 76.6468C58.1423 77.1281 58.2972 78.0414 57.79 78.7524C53.5077 84.7483 47.2675 84.6713 42.786 83.5497ZM74.5974 113.152C67.1613 114.745 64.5283 110.951 62.7933 106.614C61.6735 103.813 61.1229 91.1863 61.5135 77.2415C61.5185 77.056 61.4921 76.8769 61.441 76.7083C61.3954 76.3753 61.3259 76.046 61.2332 75.723C60.6526 73.6939 59.2375 71.9967 57.5398 71.293C56.8653 71.0136 55.6274 70.5009 54.1398 70.8815C54.457 69.5743 55.0071 68.0981 55.6037 66.4998L55.8539 65.8276C56.1356 65.0696 56.4893 64.2844 56.863 63.4531C58.8833 58.9648 61.6502 52.8171 58.6473 38.9288C57.5225 33.7268 53.7661 31.1864 48.0719 31.7766C44.6583 32.1299 41.535 33.5071 39.9772 34.297C39.6422 34.4665 39.3359 34.6306 39.0497 34.7901C39.4845 29.5489 41.1271 19.7538 47.2716 13.5564C51.1405 9.65513 56.2928 7.72819 62.5704 7.83211C74.9397 8.03446 82.8716 14.3822 87.3481 19.6722C91.2056 24.2302 93.2943 28.822 94.1279 31.2986C87.859 30.6609 83.5954 31.8983 81.4342 34.9884C76.7321 41.7099 84.0065 54.7554 87.5026 61.0253C88.1438 62.1742 88.6971 63.1673 88.8712 63.5894C90.0097 66.3485 91.4836 68.1907 92.5596 69.5351C92.8896 69.9472 93.2096 70.3468 93.4529 70.696C91.5543 71.2433 88.1438 72.508 88.4546 78.8298C88.204 82.0019 86.4215 96.8532 85.5159 102.1C84.3205 109.032 81.7696 111.614 74.5974 113.152V113.152ZM105.636 77.6321C103.695 78.5331 100.446 79.209 97.3592 79.3544C93.9502 79.5139 92.2146 78.9725 91.8063 78.6393C91.6149 74.6998 93.081 74.2882 94.6329 73.8525C94.8767 73.7842 95.1146 73.7172 95.3443 73.637C95.487 73.7532 95.6433 73.8685 95.8147 73.9815C98.5547 75.7899 103.442 75.985 110.341 74.5608L110.417 74.5457C109.486 75.4158 107.894 76.5834 105.636 77.6321Z" fill="white"/>    
    </g>


    <g id="python">
        <path fill="#0277BD" d="M24.047,5c-1.555,0.005-2.633,0.142-3.936,0.367c-3.848,0.67-4.549,2.077-4.549,4.67V14h9v2H15.22h-4.35c-2.636,0-4.943,1.242-5.674,4.219c-0.826,3.417-0.863,5.557,0,9.125C5.851,32.005,7.294,34,9.931,34h3.632v-5.104c0-2.966,2.686-5.896,5.764-5.896h7.236c2.523,0,5-1.862,5-4.377v-8.586c0-2.439-1.759-4.263-4.218-4.672C27.406,5.359,25.589,4.994,24.047,5z M19.063,9c0.821,0,1.5,0.677,1.5,1.502c0,0.833-0.679,1.498-1.5,1.498c-0.837,0-1.5-0.664-1.5-1.498C17.563,9.68,18.226,9,19.063,9z"/><path fill="#FFC107" d="M23.078,43c1.555-0.005,2.633-0.142,3.936-0.367c3.848-0.67,4.549-2.077,4.549-4.67V34h-9v-2h9.343h4.35c2.636,0,4.943-1.242,5.674-4.219c0.826-3.417,0.863-5.557,0-9.125C41.274,15.995,39.831,14,37.194,14h-3.632v5.104c0,2.966-2.686,5.896-5.764,5.896h-7.236c-2.523,0-5,1.862-5,4.377v8.586c0,2.439,1.759,4.263,4.218,4.672C19.719,42.641,21.536,43.006,23.078,43z M28.063,39c-0.821,0-1.5-0.677-1.5-1.502c0-0.833,0.679-1.498,1.5-1.498c0.837,0,1.5,0.664,1.5,1.498C29.563,38.32,28.899,39,28.063,39z"/>
    </g>

<!-- social -->

    <g id="Gmail">
        <circle cx="19.2481" cy="18.8683" r="18.8683" fill="#5222D0"/>
        <g clip-path="url(#clip0_1_2353)">
        <path d="M31.0404 11.4974V26.2383C31.0404 27.0748 30.4029 27.7123 29.5663 27.7123H28.0922V14.3343L19.2477 20.6876L10.4032 14.3343V27.7123H8.92916C8.09262 27.7123 7.45508 27.0748 7.45508 26.2383V11.4974C7.45508 11.0788 7.6128 10.7103 7.8774 10.4494C8.01521 10.3115 8.17933 10.2027 8.36001 10.1295C8.54069 10.0563 8.73425 10.0202 8.92916 10.0233H9.42077L19.2477 17.1483L29.0747 10.0233H29.5663C29.985 10.0233 30.3535 10.1811 30.6181 10.4494C30.8827 10.7103 31.0404 11.0788 31.0404 11.4974Z" fill="#DBFFFF"/>
        </g>
        <defs>
        <clipPath id="clip0_1_2353">
        <rect width="23.5853" height="23.5853" fill="white" transform="translate(7.45508 7.07556)"/>
        </clipPath>
        </defs>    
    </g>
    <g id="linkedIn">
        <ellipse cx="19.3521" cy="18.868" rx="18.8683" ry="18.8683" fill="#5222D0"/>
        <path d="M10.0633 28.7051H14.0113V14.0974H10.0633V28.7051ZM12.0373 7.64899C10.7213 7.64899 9.66846 8.70179 9.66846 10.0178C9.66846 11.3338 10.7213 12.3866 12.0373 12.3866C13.3533 12.3866 14.4061 11.3338 14.4061 10.0178C14.4061 8.70179 13.3533 7.64899 12.0373 7.64899ZM20.7229 16.3346V14.0974H16.7749V28.7051H20.7229V21.2039C20.7229 16.9926 26.1185 16.7294 26.1185 21.2039V28.7051H30.0666V19.7563C30.0666 12.6498 22.5653 12.913 20.7229 16.3346Z" fill="#DBFFFF"/>    
    </g>
    <g id="githubSocial">
        <circle cx="19.214" cy="18.8683" r="18.8683" fill="#DBFFFF"/>
        <g clip-path="url(#clip0_1_2368)">
        <path fill-rule="evenodd" clip-rule="evenodd" d="M19.214 0C8.78925 0 0.345703 8.44354 0.345703 18.8682C0.345703 27.2175 5.74674 34.2695 13.2469 36.7695C14.1903 36.9346 14.5441 36.3686 14.5441 35.8733C14.5441 35.4251 14.5205 33.9393 14.5205 32.3591C9.77983 33.2317 8.55339 31.2034 8.17603 30.142C7.96376 29.5996 7.04393 27.925 6.24203 27.4769C5.58164 27.1231 4.63823 26.2505 6.21845 26.2269C7.70432 26.2033 8.76566 27.5948 9.11944 28.1609C10.8176 31.0147 13.5299 30.2128 14.6148 29.7175C14.7799 28.4911 15.2752 27.6656 15.8177 27.1939C11.6195 26.7222 7.23261 25.0948 7.23261 17.8777C7.23261 15.8257 7.96376 14.1276 9.16661 12.8068C8.97793 12.3351 8.31754 10.4011 9.35529 7.80674C9.35529 7.80674 10.9355 7.31145 14.5441 9.74073C16.0535 9.3162 17.6573 9.10393 19.2611 9.10393C20.8649 9.10393 22.4687 9.3162 23.9782 9.74073C27.5867 7.28786 29.167 7.80674 29.167 7.80674C30.2047 10.4011 29.5443 12.3351 29.3556 12.8068C30.5585 14.1276 31.2896 15.8022 31.2896 17.8777C31.2896 25.1184 26.8792 26.7222 22.681 27.1939C23.365 27.7835 23.9546 28.9156 23.9546 30.6845C23.9546 33.2081 23.931 35.2365 23.931 35.8733C23.931 36.3686 24.2848 36.9582 25.2282 36.7695C28.9738 35.5049 32.2286 33.0976 34.5344 29.8863C36.8403 26.6751 38.0811 22.8216 38.0822 18.8682C38.0822 8.44354 29.6387 0 19.214 0Z" fill="#5222D0"/>
        </g>
        <defs>
        <clipPath id="clip0_1_2368">
        <rect width="37.7365" height="37.7365" fill="white" transform="translate(0.345703)"/>
        </clipPath>
        </defs>    
    </g>
    
    <g id="telegram">
        <rect width="35" height="35" rx="17.5" fill="#5222D0"/>
        <path d="M25.9057 11.7645L23.3705 23.7208C23.1791 24.5644 22.6804 24.7745 21.9717 24.3772L18.1085 21.5305L16.2447 23.3235C16.0383 23.5299 15.8661 23.7022 15.4682 23.7022L15.7461 19.7681L22.9054 13.2989C23.2169 13.0216 22.8376 12.8674 22.4218 13.1452L13.5708 18.7186L9.76043 17.5257C8.93174 17.2671 8.91674 16.697 9.93325 16.2992L24.837 10.5572C25.5271 10.2985 26.1308 10.7102 25.9057 11.7645Z" fill="#DBFFFF"/>    
    </g>

    <g id="mail">
        <rect width="60" height="60" rx="30" fill="#5222D0"/>
        <path fill-rule="evenodd" clip-rule="evenodd" d="M0.13125 4.64667C0.395898 3.46865 1.04647 2.41683 1.97642 1.66349C2.90637 0.910143 4.06057 0.499919 5.25 0.5H36.75C37.9394 0.499919 39.0936 0.910143 40.0236 1.66349C40.9535 2.41683 41.6041 3.46865 41.8687 4.64667L21 17.604L0.13125 4.64667ZM0 7.692V26.636L15.2329 17.148L0 7.692ZM17.7476 18.7133L0.501375 29.452C0.927482 30.3648 1.60001 31.1358 2.44068 31.6754C3.28135 32.215 4.25558 32.501 5.25 32.5H36.75C37.7443 32.5002 38.7181 32.2136 39.5583 31.6736C40.3985 31.1335 41.0705 30.3622 41.496 29.4493L24.2498 18.7107L21 20.7293L17.7476 18.7107V18.7133ZM26.7671 17.1507L42 26.636V7.692L26.7671 17.148V17.1507Z" 
        fill="#DBFFFF" transform="translate(9, 12)"/>    
    </g>

<!-- others -->

    <g id="code">
        <path d="M18.3125 42.0645L27.2623 6.6875L31.4375 7.87241L22.4878 43.3125L18.3125 42.0645Z" fill="white"/>
        <path d="M13.5025 12.6875L16.5625 15.9278L7.99501 25.0001L16.5625 34.0721L13.5025 37.3125L1.875 25.0001L13.5025 12.6875Z" fill="white"/>
        <path d="M36.4976 12.6875L33.4375 15.9278L42.0051 25.0001L33.4375 34.0721L36.4976 37.3125L48.125 25.0001L36.4976 12.6875Z" fill="white"/>
    </g>

</svg>