<?xml version="1.0" standalone="no"?>
<!DOCTYPE svg PUBLIC "-//W3C//DTD SVG 20010904//EN"
 "http://www.w3.org/TR/2001/REC-SVG-20010904/DTD/svg10.dtd">
<svg version="1.0" xmlns="http://www.w3.org/2000/svg"
 width="650.000000pt" height="650.000000pt" viewBox="0 0 650.000000 650.000000"
 preserveAspectRatio="xMidYMid meet">

<g transform="translate(0.000000,650.000000) scale(0.100000,-0.100000)"
fill="#000000" stroke="none">
<path d="M970 4321 c-89 -19 -159 -72 -202 -154 l-23 -42 0 -880 c0 -839 1
-882 19 -915 26 -49 84 -108 131 -133 l40 -22 2304 -3 2304 -2 51 23 c73 34
111 70 143 135 l28 57 0 860 c0 857 0 860 -21 906 -31 66 -86 123 -147 150
l-52 24 -2270 1 c-1249 1 -2286 -1 -2305 -5z m880 -885 l0 -553 -72 -13 c-113
-19 -286 -24 -364 -11 -185 32 -289 132 -316 305 -44 283 163 501 450 472 l62
-7 0 181 0 180 120 0 120 0 0 -554z m378 427 l3 -123 -126 0 -125 0 0 118 c0
65 3 122 7 126 4 3 59 5 122 4 l116 -3 3 -122z m605 -251 c60 -27 94 -67 107
-124 5 -28 10 -174 10 -332 l0 -283 -47 -7 c-27 -3 -122 -9 -213 -13 -136 -5
-175 -3 -221 10 -107 32 -149 91 -149 212 0 149 95 226 319 259 83 12 86 13
89 40 2 15 -4 39 -13 53 -17 25 -20 26 -99 21 -70 -5 -150 -26 -238 -63 -16
-6 -18 1 -18 84 l0 91 38 19 c37 19 126 45 187 55 64 10 204 -2 248 -22z m765
3 c66 -20 135 -84 152 -140 8 -26 14 -140 17 -327 l5 -288 -126 0 -126 0 0
255 c0 269 -4 294 -47 314 -30 14 -113 14 -147 1 l-26 -10 0 -280 0 -280 -120
0 -120 0 2 362 3 363 75 17 c171 40 353 45 458 13z m1002 3 c41 -6 79 -14 83
-18 4 -4 -9 -43 -30 -88 -34 -72 -41 -81 -65 -82 l-28 0 3 -297 c2 -321 -3
-375 -50 -466 -30 -61 -89 -120 -150 -150 -120 -61 -320 -69 -465 -21 l-48 16
0 110 c0 101 2 110 18 105 9 -4 44 -16 77 -28 46 -17 83 -23 160 -23 113 -1
152 14 192 73 21 30 41 116 31 127 -3 2 -18 -1 -34 -7 -46 -18 -181 -16 -241
4 -155 54 -238 213 -212 406 39 280 318 405 759 339z m636 -12 c114 -52 181
-148 204 -290 30 -189 -58 -372 -213 -441 -107 -48 -267 -45 -370 7 -138 69
-213 237 -187 420 19 134 89 241 192 294 70 36 112 44 219 40 78 -2 106 -8
155 -30z m-3009 -363 c-5 -405 -10 -441 -59 -538 -29 -56 -81 -109 -147 -150
l-43 -27 -114 53 -114 53 43 24 c110 65 156 127 176 236 7 35 11 196 11 393
l0 333 126 0 126 0 -5 -377z"/>
<path d="M1436 3420 c-64 -32 -94 -89 -95 -180 -1 -65 29 -133 72 -164 22 -16
47 -22 113 -25 l84 -3 0 190 c0 164 -2 191 -16 196 -34 13 -121 6 -158 -14z"/>
<path d="M2655 3173 c-95 -20 -141 -65 -116 -112 17 -30 43 -41 103 -41 96 0
98 2 98 86 l0 74 -32 -1 c-18 -1 -42 -3 -53 -6z"/>
<path d="M4211 3427 c-131 -42 -175 -235 -77 -333 37 -37 85 -49 151 -40 l45
7 0 190 0 189 -42 -1 c-24 -1 -58 -6 -77 -12z"/>
<path d="M4966 3406 c-24 -24 -37 -50 -45 -86 -22 -104 -6 -195 45 -246 31
-31 40 -34 91 -34 51 0 59 3 88 35 33 35 55 101 55 165 0 64 -22 130 -55 165
-29 32 -37 35 -88 35 -51 0 -60 -3 -91 -34z"/>
</g>
</svg>
