<svg height="32" viewBox="0 0 32 32" width="32" xmlns="http://www.w3.org/2000/svg">
    <path fill="#7572D5" d="m18.036.131c-8.765-1.12-16.781 5.067-17.905 13.833-1.12 8.765 5.067 16.781 13.833 17.905 8.765 1.12 16.781-5.067 17.9-13.833 1.125-8.765-5.061-16.781-13.828-17.905zm3.292 9.984c-.297 0-.579.12-.787.333l-5.937 5.932-.411-.407-.855-.859c5.849-5.833 6.907-5.891 7.989-5zm-6.479 6.478 5.916-5.921c.328-.344.875-.339 1.204.005.323.349.291.896-.073 1.197l-6.265 5.5zm.438.928-1.469.317c-.031.005-.072-.011-.088-.047-.016-.032-.011-.068.016-.095l.859-.859zm-3.74-.614 1.568-1.563 1.172 1.172-2.641.567c-.047.011-.093-.009-.115-.052-.025-.041-.015-.093.016-.124zm-4.859 8.077c-.057-.005-.1-.057-.095-.109.005-.025.016-.047.032-.063h.005l1.26-1.26 1.631 1.631zm3.233-1.677c-.124.068-.187.209-.156.344l.271 1.152c.043.167-.161.28-.281.156h-.005l-1.635-1.636 5.016-5.011 2.427-.525 1.161 1.167c-1.672 1.468-3.959 2.932-6.797 4.353zm7.038-4.567-1.12-1.12 6.265-5.5c.057-.052.109-.109.156-.167-.192 1.792-2.703 4.323-5.301 6.787zm4.88-8.615h-.005c-2.183-2.193.901-5.563 3.276-3.584l-2.145 2.152c-.063.061-.063.167 0 .228l1.661 1.663c-.932.463-2.052.276-2.787-.459zm3.432 0c-.109.109-.229.208-.359.291l-1.609-1.609 2.041-2.047c.885.964.849 2.443-.073 3.365zm-.131-2.057c-.067.047-.093.129-.072.208.099.197.072.432-.068.599-.068.084-.052.199.031.265.032.021.068.037.109.037.057 0 .111-.021.141-.063.235-.281.281-.677.12-1.005-.063-.083-.177-.104-.261-.041z"/>
</svg>