<svg width="200" height="100" viewBox="0 0 250 200" fill="none" xmlns="http://www.w3.org/2000/svg">
<path d="M63.0825 53.2238C63.0825 53.2238 51.3362 18.9924 92.3075 23.1703C133.279 27.3483 113.703 12.1969 129.185 2.7944C144.667 -6.60806 190.284 22.6438 171.2 50.8576C152.115 79.0715 201.699 53.2625 212.042 95.6907C218.425 121.874 202.589 141.145 189.525 152.069" stroke="#7572D5" stroke-width="2" stroke-miterlimit="10"/>
<path d="M193.522 119.36C190.443 101.799 179.541 86.0846 161.829 80.4603C157.298 79.0296 152.665 77.934 147.968 77.1829V77.2065C147.724 78.6643 147.144 80.0479 146.273 81.2512C144.427 83.742 141.882 85.788 138.937 86.854C135.93 87.95 132.205 88.0919 129.414 86.3683C127.734 85.3324 126.104 83.5078 125.809 81.5392C125.473 79.3213 126.621 77.2216 128.236 75.7559C114.549 75.8655 101.675 78.0834 91.3578 80.6086C91.7155 82.0831 92.2106 83.522 92.8373 84.9069C93.7143 86.8374 94.9535 88.5875 96.4902 90.0648C98.4067 88.1948 100.085 86.102 101.487 83.8323C102.829 84.2647 104.012 85.0762 104.889 86.1656C105.766 87.255 106.299 88.5741 106.421 89.9595V90.0304C106.962 95.0615 102.044 98.8419 97.9107 101.167C93.1362 103.871 87.8141 105.895 82.5857 107.578C80.4298 108.274 77.628 108.868 75.352 108.141C75.107 108.064 74.8678 107.97 74.6363 107.86C72.3669 106.764 70.8481 104.466 69.6632 102.366C66.2875 96.4026 64.0923 89.9014 62.6041 83.2284C52.2762 84.5286 51.0935 77.6406 50.4803 75.9514L41.6449 100.277C41.1814 102.026 41.1315 103.856 41.4983 105.627C41.8653 107.397 42.6397 109.062 43.762 110.491C44.884 111.921 46.3242 113.079 47.9715 113.875C49.619 114.671 51.4297 115.084 53.2647 115.083H89.8413L106.456 157.055L111.165 168.968H138.062C135.879 168.968 134.686 168.444 133.82 167.588C132.925 166.707 132.421 165.512 132.419 164.266C132.419 161.687 134.568 159.572 138.062 159.572H138.308C138.044 159.572 137.791 159.548 137.527 159.525C137.691 159.507 137.853 159.481 138.014 159.445C137.841 159.441 137.668 159.428 137.496 159.407C139.072 159.223 140.532 158.501 141.622 157.364C142.711 156.228 143.36 154.751 143.456 153.191C143.46 153.11 143.46 153.029 143.456 152.948V152.824C143.418 151.225 142.797 149.692 141.707 148.506C140.617 147.32 139.13 146.561 137.518 146.366C137.702 146.351 137.876 146.336 138.053 146.336C137.894 146.297 137.717 146.273 137.551 146.25C137.813 146.226 138.077 146.209 138.33 146.209L158.008 146.312L161.628 146.327H165.925C166.124 146.327 166.324 146.327 166.514 146.351L172.897 146.383L177.161 146.406C178.943 146.421 180.646 147.13 181.899 148.379C183.151 149.627 183.851 151.314 183.845 153.069C183.842 154.061 183.609 155.04 183.162 155.929C184.991 155.699 186.687 154.865 187.975 153.565C191.046 150.477 192.368 145.854 193.282 141.745C194.899 134.425 194.803 126.712 193.522 119.36ZM143.805 119.854C140.098 125.474 133.785 124.969 133.785 124.969C133.785 124.969 133.261 125.472 132.039 123.331C130.817 121.191 127.337 119.727 127.337 119.727C127.059 121.876 126.485 125.143 120.79 120.909C115.095 116.675 116.812 110.503 117.299 107.243C117.785 103.983 119.725 102.902 119.725 102.902L122.017 101.711C122.017 101.711 115.389 100.032 115.071 99.9701C114.752 99.9078 108.85 95.04 114.84 93.7549C120.829 92.4697 130.167 97.5803 131.971 98.5904C133.776 99.6005 144.322 108.386 144.322 108.386C144.322 108.386 147.532 114.243 143.805 119.854Z" fill="#7572D5"/>
<path d="M62.5942 83.2283C62.5942 83.2283 67.5891 82.6308 69.4592 79.1191L67.8291 88.1262C67.8291 88.1262 87.6995 81.4639 91.3436 80.6042C91.3436 80.6042 92.5176 88.0595 97.1917 90.0604L102.014 84.0213C102.014 84.0213 108.061 85.5257 106.407 93.6408C104.753 101.756 81.8754 108.539 77.9956 108.382C74.1158 108.225 69.9392 105.874 65.6623 93.239L62.5942 83.2283Z" fill="#7572D5"/>
<path d="M70.7311 63.168C71.9968 65.1968 73.2689 67.2212 74.5826 69.2199C75.3921 70.4514 76.8672 72.2072 75.2983 73.4946C74.7877 73.8801 74.171 74.1049 73.5286 74.1393C72.5205 74.2274 71.4621 73.9889 70.849 73.1356L67.794 68.1497C67.1852 67.1553 66.2183 66.4233 65.0862 66.099C63.9539 65.7749 62.7394 65.8825 61.6841 66.4003" stroke="#212121" stroke-width="2" stroke-miterlimit="10"/>
<path d="M82.2851 69.7328C83.0837 71.6025 82.5426 72.8082 81.6086 73.4143C80.0811 74.4007 78.0365 73.9279 76.9542 72.488L70.7417 63.1758" stroke="#212121" stroke-width="2" stroke-miterlimit="10"/>
<path d="M75.9914 60.4568C78.252 63.1647 81.1041 68.1937 82.6817 70.2934C84.2594 72.3931 86.699 71.1273 86.699 71.1273C88.6804 70.0764 88.3443 68.3334 87.478 66.2165C85.3439 61.0199 82.2977 57.5641 78.9001 55.2989C68.3714 48.2841 57.57 53.4593 54.3557 65.5675L41.6449 100.274C41.1814 102.023 41.1315 103.853 41.4983 105.623C41.8653 107.394 42.6397 109.058 43.762 110.488C44.884 111.918 46.3242 113.075 47.9715 113.871C49.619 114.667 51.4297 115.08 53.2647 115.079H89.8413L111.171 168.967" stroke="#212121" stroke-width="2" stroke-miterlimit="10"/>
<path d="M89.0508 63.8343C91.6693 62.9403 91.5493 58.8269 87.8332 57.4385C83.7286 55.904 76.4404 53.7334 74.6096 53.1918C74.5982 53.1832 74.5845 53.1781 74.5703 53.1768C74.4415 53.1381 74.3521 53.1059 74.2822 53.0908L74.1797 53.0586" stroke="#212121" stroke-width="2" stroke-miterlimit="10"/>
<path d="M127.739 104.965C125.448 102.253 119.177 100.716 115.083 99.9728C114.395 99.8456 113.768 99.5015 113.295 98.9926C112.823 98.4837 112.531 97.8374 112.464 97.151C112.417 96.6881 112.471 96.2204 112.624 95.7798C112.868 95.1035 113.335 94.5275 113.951 94.1441C114.567 93.7607 115.296 93.592 116.021 93.6651C123.004 94.3614 130.205 96.5256 135.532 101.187C135.532 101.187 161.353 120.594 164.436 122.483C165.708 123.244 166.895 122.345 166.033 121.15L165.763 120.695C164.245 118.13 162.449 115.734 160.405 113.551" stroke="#212121" stroke-width="2" stroke-miterlimit="10"/>
<path d="M128.216 75.749C95.7417 76.0155 67.8281 88.1237 67.8281 88.1237L70.6147 72.7402" stroke="#212121" stroke-width="2" stroke-miterlimit="10"/>
<path d="M178.655 159.476C178.655 159.476 175.117 158.687 174.177 161.477C173.236 164.266 172.254 168.704 179.017 168.967C185.779 169.229 181.808 167.92 181.417 165.764C181.026 163.609 178.655 159.476 178.655 159.476Z" fill="#7572D5"/>
<path d="M124.619 108.502C124.619 108.502 120.802 105.651 117.366 108.541C117.221 108.666 117.095 108.811 116.99 108.971" stroke="#212121" stroke-width="2" stroke-miterlimit="10"/>
<g opacity="0.77">
<path opacity="0.77" d="M76.9404 72.4792C78.0315 73.9213 80.0739 74.392 81.5949 73.4033C82.5179 72.8016 83.0591 71.6024 82.28 69.7498C82.4219 69.954 82.5506 70.1345 82.6772 70.3C84.2527 72.4083 86.6945 71.1382 86.6945 71.1382C88.6758 70.0872 88.3419 68.3443 87.4757 66.2252C86.6279 64.1264 85.5157 62.1408 84.1654 60.3151C85.0491 59.5006 86.0987 58.6775 87.2051 59.0385C88.3987 59.4297 88.7325 60.904 88.8678 62.1333C88.9311 62.705 88.9944 63.2702 89.0577 63.8419L90.0135 72.2579C90.332 75.0517 90.6506 77.8864 91.3424 80.6137C91.7 82.0882 92.1951 83.5271 92.8218 84.912C93.6988 86.8425 94.938 88.5926 96.4747 90.0699C98.3912 88.1999 100.069 86.1071 101.472 83.8374C102.813 84.2698 103.996 85.0813 104.874 86.1707C105.751 87.2601 106.284 88.5792 106.405 89.9646V90.0355C106.947 95.0666 102.028 98.8469 97.8952 101.172C93.1208 103.876 87.7986 105.9 82.5703 107.583C80.4143 108.279 77.6125 108.873 75.3365 108.146C75.0915 108.069 74.8523 107.975 74.6208 107.865C72.3514 106.769 70.8327 104.471 69.6478 102.372C63.9743 92.3243 61.6176 80.7878 60.376 69.363C62.8592 69.0256 65.3337 68.6495 67.7777 68.1315C67.7777 68.1315 67.7777 68.1487 67.793 68.1552L70.6101 72.7565L70.8414 73.139C71.4524 73.9987 72.5107 74.2286 73.521 74.1427C74.1634 74.1113 74.7805 73.8863 75.2885 73.4979C76.8553 72.2084 75.3846 70.459 74.5728 69.2276" fill="rgb(150, 200, 250)"/>
<path opacity="0.77" d="M76.9404 72.4792C78.0315 73.9213 80.0739 74.392 81.5949 73.4033C82.5179 72.8016 83.0591 71.6024 82.28 69.7498C82.4219 69.954 82.5506 70.1345 82.6772 70.3C84.2527 72.4083 86.6945 71.1382 86.6945 71.1382C88.6758 70.0872 88.3419 68.3443 87.4757 66.2252C86.6279 64.1264 85.5157 62.1408 84.1654 60.3151C85.0491 59.5006 86.0987 58.6775 87.2051 59.0385C88.3987 59.4297 88.7325 60.904 88.8678 62.1333C88.9311 62.705 88.9944 63.2702 89.0577 63.8419L90.0135 72.2579C90.332 75.0517 90.6506 77.8864 91.3424 80.6137C91.7 82.0882 92.1951 83.5271 92.8218 84.912C93.6988 86.8425 94.938 88.5926 96.4747 90.0699C98.3912 88.1999 100.069 86.1071 101.472 83.8374C102.813 84.2698 103.996 85.0813 104.874 86.1707C105.751 87.2601 106.284 88.5792 106.405 89.9646V90.0355C106.947 95.0666 102.028 98.8469 97.8952 101.172C93.1208 103.876 87.7986 105.9 82.5703 107.583C80.4143 108.279 77.6125 108.873 75.3365 108.146C75.0915 108.069 74.8523 107.975 74.6208 107.865C72.3514 106.769 70.8327 104.471 69.6478 102.372C63.9743 92.3243 61.6176 80.7878 60.376 69.363C62.8592 69.0256 65.3337 68.6495 67.7777 68.1315C67.7777 68.1315 67.7777 68.1487 67.793 68.1552L70.6101 72.7565L70.8414 73.139C71.4524 73.9987 72.5107 74.2286 73.521 74.1427C74.1634 74.1113 74.7805 73.8863 75.2885 73.4979C76.8553 72.2084 75.3846 70.459 74.5728 69.2276" fill="#7572D5"/>
<path opacity="0.77" d="M77.6106 73.1585C78.5773 74.448 80.2291 74.2847 81.5951 73.4014C82.42 72.8641 83.0964 73.021 82.4004 71.364C82.5291 71.5445 82.5466 70.9342 82.66 71.0696C84.0675 72.9522 82.6775 70.2916 82.6775 70.2916C84.6414 72.7352 88.9161 70.4334 88.1328 68.5443C87.3036 66.5091 86.4307 63.5003 85.3244 61.9959C86.1972 61.1836 86.0292 61.3039 87.1399 61.9508C87.4382 62.1395 87.688 62.3942 87.8694 62.6944C88.0509 62.9946 88.159 63.3323 88.1851 63.6809C88.2746 64.4997 88.3641 65.2841 88.4535 66.0836L89.3046 73.6056C89.5904 76.105 89.8741 78.6302 90.4916 81.063C90.8109 82.3785 91.2536 83.662 91.814 84.8971C92.5952 86.5971 95.1046 89.4275 96.475 90.7234C98.1792 89.0578 100.222 85.9953 101.472 83.9601C103.872 84.6865 103.768 86.9474 103.938 89.4167V89.4812C104.422 93.9707 100.032 97.3427 96.3528 99.4209C92.0889 101.834 87.3385 103.64 82.6709 105.144C80.7463 105.767 78.2456 106.305 76.2141 105.647C75.995 105.579 75.7811 105.495 75.5747 105.396C73.5497 104.416 72.1924 102.367 71.1341 100.491C66.5015 92.2966 64.3521 82.993 63.1694 73.6657C63.0825 72.9677 63.2743 72.2641 63.7042 71.7027C64.1341 71.1414 64.7684 70.7663 65.4737 70.6569C66.8026 70.442 68.1271 70.2271 69.443 69.9391L69.4801 69.9563L71.9939 74.0633C72.5416 74.8263 72.631 74.2288 73.5322 74.1514C74.1018 74.102 75.2059 73.9924 75.6467 73.6292C77.0454 72.4816 76.2555 72.0066 75.5311 70.9084" fill="#7572D5"/>
</g>
<path d="M124.158 112.652C124.158 112.652 116.911 110.305 116.802 114.251" stroke="#212121" stroke-width="2" stroke-miterlimit="10"/>
<path opacity="0.54" d="M59.2907 152.843L45.0786 116.983C44.9025 116.289 44.8894 115.564 45.04 114.865C45.1908 114.165 45.5015 113.508 45.9484 112.945C46.3955 112.381 46.967 111.925 47.6199 111.611C48.2726 111.298 48.9894 111.135 49.7156 111.135H106.167C107.434 111.135 108.665 111.555 109.661 112.328C110.656 113.1 111.359 114.181 111.655 115.394L127.213 151.246C127.382 151.938 127.388 152.658 127.233 153.353C127.078 154.047 126.766 154.698 126.318 155.256C125.871 155.815 125.302 156.266 124.652 156.577C124.002 156.887 123.29 157.049 122.568 157.049H64.7656C63.5074 157.05 62.2852 156.636 61.2932 155.874C60.3013 155.112 59.5964 154.045 59.2907 152.843Z" fill="rgb(150, 200, 250)"/>
<path d="M126.517 118.699C126.517 118.699 127.693 119.761 127.246 121.278C126.914 122.402 125.779 123.111 124.656 122.726C121.077 121.508 117.854 119.438 117.068 115.92C116.697 114.139 116.617 112.311 116.83 110.504C117.003 108.83 117.254 107.023 117.826 105.43C118.698 102.984 121.371 101.28 123.966 102.458" stroke="#212121" stroke-width="2" stroke-miterlimit="10"/>
<path d="M59.2907 152.843L45.0786 116.983C44.9025 116.289 44.8894 115.564 45.04 114.865C45.1908 114.165 45.5015 113.508 45.9484 112.945C46.3955 112.381 46.967 111.925 47.6199 111.611C48.2726 111.298 48.9894 111.135 49.7156 111.135H106.167C107.434 111.135 108.665 111.555 109.661 112.328C110.656 113.1 111.359 114.181 111.655 115.394L127.213 151.246C127.382 151.938 127.388 152.658 127.233 153.353C127.078 154.047 126.766 154.698 126.318 155.256C125.871 155.815 125.302 156.266 124.652 156.577C124.002 156.887 123.29 157.049 122.568 157.049H64.7656C63.5074 157.05 62.2852 156.636 61.2932 155.874C60.3013 155.112 59.5964 154.045 59.2907 152.843Z" fill="#7572D5"/>
<path d="M59.2907 152.843L45.0786 116.983C44.9025 116.289 44.8894 115.564 45.04 114.865C45.1908 114.165 45.5015 113.508 45.9484 112.945C46.3955 112.381 46.967 111.925 47.6199 111.611C48.2726 111.298 48.9894 111.135 49.7156 111.135H106.167C107.434 111.135 108.665 111.555 109.661 112.328C110.656 113.1 111.359 114.181 111.655 115.394L127.213 151.246C127.382 151.938 127.388 152.658 127.233 153.353C127.078 154.047 126.766 154.698 126.318 155.256C125.871 155.815 125.302 156.266 124.652 156.577C124.002 156.887 123.29 157.049 122.568 157.049H64.7656C63.5074 157.05 62.2852 156.636 61.2932 155.874C60.3013 155.112 59.5964 154.045 59.2907 152.843Z" stroke="#212121" stroke-width="2" stroke-linecap="square" stroke-linejoin="round"/>
<path d="M61.3703 151.401L48.258 118.304C48.0958 117.664 48.0841 116.996 48.2233 116.351C48.3625 115.705 48.6492 115.099 49.0619 114.58C49.4743 114.06 50.0017 113.639 50.6038 113.35C51.206 113.061 51.8672 112.91 52.5371 112.91H104.615C105.785 112.91 106.92 113.297 107.838 114.01C108.757 114.723 109.405 115.719 109.678 116.839L124.034 149.916C124.189 150.554 124.195 151.219 124.052 151.86C123.909 152.501 123.62 153.101 123.207 153.616C122.795 154.131 122.269 154.548 121.67 154.834C121.07 155.121 120.412 155.27 119.746 155.27H66.4197C65.2608 155.271 64.1348 154.89 63.2203 154.19C62.3056 153.489 61.6546 152.508 61.3703 151.401Z" fill="#7572D5"/>
<path d="M172.826 146.211L182.811 168.968" stroke="#212121" stroke-width="2" stroke-miterlimit="10"/>
<path d="M244 168.998H0" stroke="#212121" stroke-width="2" stroke-miterlimit="10"/>
<path d="M127.318 66.2539C125.699 67.83 123.281 67.8279 121.904 66.37" stroke="#212121" stroke-width="2" stroke-miterlimit="10"/>
<path d="M84.167 60.3093C85.0507 59.4947 86.1003 58.6716 87.2067 59.0327C88.4003 59.4238 88.7342 60.8981 88.8695 62.1274C89.252 65.5059 89.6338 68.8809 90.0151 72.2522C90.4995 76.5505 91.0101 80.9517 92.8234 84.9018C93.7004 86.8324 94.9397 88.5824 96.4763 90.0597" stroke="#212121" stroke-width="2" stroke-miterlimit="10"/>
<path d="M106.406 90.0301V89.9592C106.284 88.5741 105.752 87.2547 104.875 86.1653C103.997 85.0762 102.814 84.2647 101.473 83.832C100.07 86.1017 98.3921 88.1948 96.4756 90.0645C91.4508 94.9854 84.9959 98.2443 78.0062 99.3896C78.3422 100.707 79.034 101.906 79.5118 103.174C79.9897 104.442 80.2276 105.91 79.6471 107.133C78.9139 108.693 76.8104 108.489 75.3484 108.143C75.3331 108.143 75.3244 108.143 75.3091 108.143" stroke="#212121" stroke-width="2" stroke-miterlimit="10"/>
<path d="M67.7831 68.1289C65.3391 68.6468 62.8646 69.0229 60.3813 69.3604C61.623 80.7852 63.9709 92.3217 69.6531 102.369C70.838 104.469 72.3568 106.766 74.6262 107.862C74.8577 107.973 75.0969 108.067 75.3419 108.144C77.6179 108.881 80.4197 108.277 82.5756 107.581C87.8127 105.896 93.1261 103.873 97.9006 101.17C102.023 98.8422 106.941 95.064 106.411 90.0329C106.36 89.4788 106.245 88.9323 106.068 88.4038" stroke="#212121" stroke-width="2" stroke-miterlimit="10"/>
<path d="M108.649 45.3398C109.015 46.8437 109.851 48.1964 111.039 49.2073C112.227 50.2185 113.708 50.8366 115.272 50.9748C115.401 50.3546 115.683 49.7745 116.092 49.2858C117.838 47.2592 118.582 51.061 124.166 48.3316C131.904 44.5405 134.841 46.7154 134.841 46.7154C135.098 46.9046 135.059 48.6494 135.103 48.9675C135.321 50.7792 135.517 52.5823 135.733 54.3919C135.864 55.4966 135.993 56.5928 136.115 57.6889C136.221 57.5024 136.337 57.322 136.464 57.1493C137.169 54.6928 138.428 51.7917 141.143 53.0403C141.692 53.3042 142.171 53.6922 142.539 54.1727C144.34 56.5024 142.976 58.7525 141.093 60.4181C140.621 60.935 140.093 61.3996 139.519 61.8045C139.829 62.4363 141.095 64.9444 141.095 64.953C141.226 65.2066 145.649 60.2762 145.978 59.739C146.471 58.4228 146.735 57.0345 146.76 55.6322C146.832 49.8661 144.449 43.1541 139.707 39.8466C138.531 39.0278 138.906 38.239 138.834 37.1258C138.829 37.0656 138.806 37.0084 138.767 36.9616C138.728 36.9147 138.676 36.8806 138.617 36.8636C138.558 36.8466 138.496 36.8477 138.437 36.8664C138.379 36.8853 138.328 36.921 138.291 36.9691C136.805 38.654 133.126 38.4864 133.126 38.4864C120.356 35.3358 116.064 40.9278 113.487 41.925C112.435 42.3172 111.278 42.3361 110.213 41.9787C110.151 42.3256 109.993 42.649 109.757 42.9143C109.522 43.1795 109.217 43.3761 108.876 43.4831L108.941 44.0653C108.997 44.5108 108.894 44.9613 108.649 45.3398Z" fill="#7572D5"/>
<path d="M115.281 50.9841C113.717 50.8457 112.237 50.2276 111.049 49.2167C109.86 48.2057 109.024 46.8529 108.658 45.3491C108.515 44.7723 108.424 44.1838 108.388 43.5911L108.488 43.5804C108.625 43.5703 108.76 43.5413 108.89 43.4944C109.231 43.3874 109.535 43.1907 109.771 42.9255C110.007 42.6605 110.165 42.3369 110.227 41.99C110.267 41.7977 110.275 41.6002 110.251 41.4055L109.924 38.56C109.924 38.56 112.233 40.2514 114.794 39.2628C117.356 38.2742 121.657 32.6821 134.433 35.8241C134.433 35.8241 137.318 35.9918 138.798 34.3069C138.835 34.2587 138.886 34.223 138.944 34.2043C139.003 34.1854 139.065 34.1846 139.124 34.2015C139.183 34.2185 139.235 34.2527 139.274 34.2993C139.313 34.3462 139.336 34.4036 139.341 34.4637C139.417 35.5791 139.836 36.3679 141.015 37.1845C145.756 40.4942 148.139 47.2038 148.065 52.9699C148.043 55.3619 147.236 57.7238 145.99 59.7505C145.66 60.2877 141.237 65.2179 141.106 64.9643C141.106 64.9643 139.841 62.4476 139.531 61.8158L139.457 61.6761L139.598 61.5837C140.125 61.2314 140.628 60.8459 141.104 60.4296C142.985 58.764 144.351 56.5139 142.551 54.1842C142.182 53.7037 141.704 53.3155 141.154 53.0516C138.431 51.803 137.181 54.7043 136.476 57.1608C136.339 57.6301 136.255 58.113 136.225 58.6007C136.192 58.2998 136.159 58.0097 136.127 57.7088C136.005 56.6127 135.876 55.5167 135.745 54.412C135.527 52.6024 135.322 50.7993 135.114 48.9876C135.081 48.6781 135.114 46.9244 134.852 46.7353C134.852 46.7353 131.913 44.5604 124.177 48.3515C118.593 51.0809 117.849 47.2769 116.104 49.3057C115.695 49.7946 115.413 50.3744 115.283 50.9949C115.243 51.1941 115.218 51.3959 115.207 51.5988C115.203 51.625 115.203 51.6519 115.207 51.6783C115.181 52.1232 115.172 52.5659 115.161 53C115.12 57.1887 115.586 61.5643 117.256 65.4543C119.285 70.1695 124.655 74.8202 130.239 72.6216C131.985 71.9317 133.55 70.8206 134.981 69.6408" stroke="#212121" stroke-width="2" stroke-miterlimit="10"/>
<path d="M119.103 61.1999C119.659 61.0168 119.927 60.3318 119.702 59.6701C119.477 59.0082 118.844 58.62 118.289 58.8031C117.734 58.986 117.466 59.671 117.69 60.3329C117.915 60.9948 118.548 61.383 119.103 61.1999Z" fill="#212121"/>
<path d="M127.411 60.9362C127.967 60.7533 128.235 60.0684 128.01 59.4064C127.785 58.7445 127.153 58.3564 126.597 58.5395C126.042 58.7226 125.774 59.4075 125.998 60.0692C126.223 60.7312 126.856 61.1193 127.411 60.9362Z" fill="#212121"/>
<path d="M124.234 62.3542C124.234 62.3542 121.469 63.8995 121.301 62.2962C121.249 61.8019 120.572 56.9599 120.572 56.9599C120.572 56.9599 118.338 54.6281 114.914 56.3517" stroke="#212121" stroke-width="2" stroke-miterlimit="10"/>
<path d="M123.612 55.6036C123.612 55.6036 128.077 53.4061 131.031 56.5733" stroke="#212121" stroke-width="2" stroke-miterlimit="10"/>
<path d="M127.706 73.1582L128.219 75.7501C126.602 77.2179 125.459 79.3219 125.793 81.5377C126.089 83.502 127.721 85.3309 129.395 86.3603C132.193 88.0796 135.913 87.9442 138.924 86.8503C141.868 85.7758 144.415 83.7362 146.261 81.2475C147.13 80.0445 147.709 78.6619 147.954 77.205V77.1792" stroke="#212121" stroke-width="2" stroke-miterlimit="10"/>
<path d="M128.219 75.752L129.218 80.4328" stroke="#212121" stroke-width="2" stroke-miterlimit="10"/>
<path d="M142.354 63.834L143.864 73.7093C144.013 74.6759 144.509 75.5579 145.262 76.1947C146.015 76.8317 146.975 77.1814 147.968 77.1801C152.668 77.9302 157.304 79.0249 161.838 80.4554C179.55 86.0818 190.452 101.796 193.531 119.355C194.812 126.707 194.908 134.418 193.299 141.729C192.385 145.845 191.063 150.468 187.993 153.55C184.006 157.568 177.887 155.914 173.176 154.098C158.549 148.495 146.384 138.527 135.879 127.115C130.263 121.012 123.005 116.12 123.005 116.12" stroke="#212121" stroke-width="2" stroke-miterlimit="10"/>
<path d="M66.2026 143.995C64.5617 143.98 63.1324 142.675 62.7636 140.859C62.0348 137.287 61.8427 131.764 67.1605 130.558C73.8051 129.054 78.9156 136.18 81.4207 140.685C82.263 142.189 81.3094 144.124 79.7404 144.124L66.2026 143.995Z" fill="rgb(150, 200, 250)"/>
<path d="M68.3972 127.524C69.8078 126.599 69.8296 124.189 68.4455 122.141C67.0616 120.092 64.7961 119.181 63.3854 120.105C61.9746 121.03 61.953 123.44 63.3369 125.488C64.721 127.537 66.9865 128.448 68.3972 127.524Z" fill="rgb(150, 200, 250)"/>
<path d="M177.594 159.592C177.491 159.607 177.375 159.622 177.275 159.646H177.236L161.714 159.566L138.425 159.448C138.335 159.448 138.248 159.448 138.161 159.448C137.988 159.444 137.815 159.431 137.644 159.409C139.221 159.229 140.684 158.506 141.774 157.368C142.864 156.23 143.512 154.75 143.603 153.188C143.607 153.107 143.607 153.026 143.603 152.945V152.82C143.597 151.292 143.056 149.812 142.072 148.631C141.088 147.449 139.72 146.637 138.2 146.332C138.041 146.293 137.866 146.27 137.698 146.246C137.962 146.222 138.224 146.205 138.479 146.205L158.155 146.308L161.778 146.323L166.663 146.347C168.336 146.497 169.892 147.257 171.027 148.477C172.161 149.697 172.792 151.29 172.797 152.945C172.798 153.257 172.774 153.569 172.725 153.877C172.493 155.453 171.694 156.893 170.474 157.937C169.254 158.981 167.695 159.559 166.079 159.566H177.901C177.221 159.566 177.41 159.566 177.594 159.592Z" fill="rgb(150, 200, 250)"/>
<path d="M146.111 167.587C146.554 168.026 147.081 168.374 147.662 168.611C148.243 168.847 148.866 168.968 149.495 168.966H138.065C135.883 168.966 134.692 168.442 133.823 167.587C132.931 166.704 132.428 165.51 132.424 164.264C132.424 161.685 134.572 159.57 138.065 159.57H149.495C148.551 159.569 147.629 159.843 146.844 160.359C146.058 160.875 145.446 161.608 145.085 162.467C144.724 163.325 144.629 164.27 144.814 165.182C144.998 166.093 145.453 166.93 146.121 167.587H146.111Z" fill="rgb(150, 200, 250)"/>
<path d="M183.858 153.062C183.856 154.054 183.621 155.033 183.173 155.922C182.853 156.594 182.415 157.205 181.877 157.725C180.991 158.59 179.878 159.195 178.663 159.473C178.162 159.587 177.649 159.644 177.135 159.645C177.24 159.621 177.354 159.606 177.454 159.591C177.271 159.574 177.081 159.567 177.764 159.567H165.939C167.556 159.561 169.117 158.983 170.338 157.939C171.559 156.894 172.358 155.452 172.59 153.876C172.638 153.568 172.662 153.256 172.662 152.944C172.657 151.289 172.025 149.696 170.89 148.475C169.755 147.255 168.199 146.496 166.526 146.346L172.909 146.378L177.172 146.402C178.954 146.416 180.658 147.125 181.911 148.373C183.163 149.621 183.864 151.307 183.858 153.062Z" fill="#7572D5"/>
<path d="M183.859 153.065C183.845 154.821 183.126 156.5 181.858 157.734C180.59 158.969 178.877 159.659 177.094 159.652L138.27 159.454C138.01 159.454 137.751 159.435 137.489 159.409C139.125 159.226 140.637 158.459 141.737 157.252C142.838 156.045 143.45 154.482 143.459 152.86C143.467 151.238 142.871 149.669 141.784 148.451C140.696 147.232 139.193 146.449 137.559 146.25C137.818 146.223 138.079 146.21 138.34 146.211L177.164 146.409C178.947 146.421 180.652 147.128 181.907 148.375C183.162 149.623 183.863 151.309 183.859 153.065Z" stroke="#212121" stroke-width="2" stroke-linecap="square" stroke-linejoin="round"/>
<path d="M172.658 152.945C172.654 154.701 171.945 156.384 170.684 157.625C169.424 158.867 167.715 159.566 165.932 159.569H138.309C138.048 159.568 137.787 159.553 137.528 159.526C139.163 159.335 140.671 158.559 141.764 157.347C142.858 156.134 143.462 154.569 143.462 152.947C143.462 151.325 142.858 149.759 141.764 148.546C140.671 147.334 139.163 146.558 137.528 146.367C137.788 146.343 138.049 146.326 138.309 146.326H165.932C167.714 146.33 169.422 147.029 170.682 148.269C171.942 149.509 172.652 151.191 172.658 152.945Z" stroke="#212121" stroke-width="2" stroke-linecap="square" stroke-linejoin="round"/>
<path d="M132.424 164.267C132.424 164.883 132.547 165.493 132.787 166.063C133.027 166.632 133.378 167.149 133.821 167.585C134.694 168.444 135.879 168.967 138.063 168.967H177.762C177.079 168.967 177.265 168.954 177.45 168.937C176.289 168.802 175.218 168.252 174.44 167.391C173.663 166.53 173.234 165.418 173.234 164.267C173.234 163.115 173.663 162.003 174.44 161.142C175.218 160.281 176.289 159.731 177.45 159.596C177.265 159.579 177.079 159.566 177.762 159.566H138.063C134.567 159.569 132.424 161.683 132.424 164.267Z" stroke="#212121" stroke-width="2" stroke-linecap="square" stroke-linejoin="round"/>
<path d="M144.709 164.267C144.712 165.512 145.216 166.706 146.11 167.587C147.004 168.468 148.217 168.964 149.481 168.967H176.895C177.078 168.967 177.264 168.954 177.449 168.937C176.288 168.802 175.217 168.252 174.44 167.391C173.662 166.53 173.233 165.418 173.233 164.267C173.233 163.115 173.662 162.003 174.44 161.142C175.217 160.281 176.288 159.731 177.449 159.596C177.264 159.579 177.078 159.566 176.895 159.566H149.481C148.217 159.57 147.005 160.066 146.111 160.947C145.216 161.828 144.712 163.021 144.709 164.267Z" stroke="#212121" stroke-width="2" stroke-linecap="square" stroke-linejoin="round"/>
<path d="M100.27 128.405H88.024C87.4636 128.404 86.9157 128.243 86.447 127.941C85.9783 127.638 85.6089 127.209 85.3837 126.703C85.2968 126.515 85.2595 126.308 85.2756 126.102C85.2916 125.896 85.3603 125.697 85.4753 125.524C85.5903 125.352 85.7479 125.21 85.9333 125.113C86.1188 125.017 86.3259 124.968 86.5358 124.971H99.5543C98.9411 125.987 99.2532 127.399 100.27 128.405Z" fill="rgb(150, 200, 250)"/>
<path d="M108.19 127.163C108.189 127.492 108.056 127.807 107.82 128.04C107.584 128.272 107.264 128.403 106.931 128.403H100.271C99.2539 127.4 98.9418 125.988 99.555 124.965H105.436C105.996 124.965 106.543 125.125 107.012 125.426C107.481 125.726 107.852 126.155 108.078 126.658C108.149 126.818 108.187 126.99 108.19 127.163Z" fill="#7572D5"/>
<path d="M105.126 128.404C105.091 128.47 105.051 128.532 105.006 128.591C104.133 129.767 102.237 129.881 100.764 128.819C100.59 128.692 100.425 128.554 100.271 128.404C99.2539 127.4 98.9418 125.988 99.555 124.965C99.5895 124.9 99.6296 124.837 99.675 124.778C100.548 123.594 102.435 123.489 103.908 124.542C104.086 124.673 104.253 124.817 104.408 124.972C105.416 125.971 105.73 127.375 105.126 128.404Z" fill="rgb(150, 200, 250)"/>
<path d="M111.269 134.734C111.267 135.063 111.133 135.378 110.895 135.61C110.658 135.842 110.338 135.972 110.004 135.972H97.153C97.7728 134.945 97.4629 133.543 96.4438 132.533H108.515C109.076 132.533 109.624 132.694 110.093 132.996C110.563 133.298 110.932 133.728 111.158 134.233C111.23 134.391 111.268 134.561 111.269 134.734Z" fill="#7572D5"/>
<path d="M97.1515 135.973H91.1049C90.5452 135.974 89.9973 135.814 89.5281 135.513C89.059 135.212 88.6887 134.784 88.4624 134.28C88.391 134.122 88.3533 133.952 88.3511 133.779C88.3509 133.616 88.3832 133.455 88.4462 133.305C88.5093 133.155 88.6018 133.018 88.7185 132.903C88.8353 132.788 88.9741 132.697 89.1266 132.635C89.2793 132.573 89.4428 132.541 89.608 132.541H96.4424C97.4614 133.545 97.7778 134.946 97.1515 135.973Z" fill="rgb(150, 200, 250)"/>
<path d="M97.1519 135.972C97.1235 136.04 97.0859 136.104 97.0406 136.162C96.1677 137.344 94.278 137.451 92.8073 136.396C92.6292 136.265 92.4616 136.121 92.3054 135.966C91.2951 134.962 90.9852 133.561 91.5896 132.527C91.6246 132.461 91.6647 132.398 91.7097 132.338C92.5825 131.163 94.4788 131.049 95.9495 132.113C96.1247 132.238 96.2895 132.377 96.4427 132.527C97.4617 133.544 97.7781 134.945 97.1519 135.972Z" fill="rgb(150, 200, 250)"/>
<path d="M101.434 143.487H93.7399C93.1804 143.486 92.6332 143.326 92.1642 143.026C91.6951 142.725 91.3245 142.297 91.0974 141.793C91.0108 141.605 90.9739 141.398 90.99 141.191C91.0064 140.985 91.0751 140.786 91.1901 140.612C91.3053 140.439 91.4629 140.297 91.6484 140.2C91.8341 140.102 92.0414 140.052 92.2517 140.055H100.718C100.112 141.084 100.424 142.483 101.434 143.487Z" fill="#7572D5"/>
<path d="M113.902 142.258C113.9 142.585 113.767 142.898 113.531 143.129C113.296 143.359 112.977 143.488 112.645 143.487H101.433C100.423 142.484 100.111 141.083 100.718 140.049H111.148C111.708 140.049 112.257 140.21 112.726 140.512C113.195 140.813 113.565 141.243 113.791 141.749C113.862 141.909 113.9 142.083 113.902 142.258Z" fill="rgb(150, 200, 250)"/>
<path d="M106.289 143.487C106.254 143.553 106.214 143.616 106.169 143.676C105.296 144.858 103.408 144.965 101.935 143.91C101.758 143.779 101.592 143.635 101.436 143.48C100.425 142.477 100.113 141.076 100.72 140.042C100.753 139.975 100.793 139.912 100.838 139.853C101.711 138.677 103.607 138.576 105.08 139.627C105.255 139.752 105.42 139.891 105.573 140.042C106.59 141.058 106.9 142.468 106.289 143.487Z" fill="rgb(150, 200, 250)"/>
<path d="M48.1597 74.9707L48.3517 75.0245L48.2797 75.2997C48.2341 75.1922 48.1939 75.0823 48.1597 74.9707Z" fill="#7572D5"/>
<path d="M82.3089 92.168C85.1814 91.3375 86.6906 87.9157 85.6801 84.5252C84.6695 81.1349 81.5218 79.0595 78.6495 79.89C75.777 80.7206 74.2678 84.1422 75.2784 87.5327C76.2889 90.9232 79.4366 92.9984 82.3089 92.168Z" fill="rgb(150, 200, 250)"/>
</svg>
